<svg version="1.2" xmlns="http://www.w3.org/2000/svg" viewBox="0 0 317 233" width="317" height="233">
	<title>Untitled-177 06 Registration-svg</title>
	<style>
		.s0 { fill: #4bcb5e } 
	</style>
	<path id="Layer" fill-rule="evenodd" class="s0" d="m2.4 193.7v-191.5l52.3 34 52-33.9h0.1 0.1l52 33.9 52.1-33.9h0.1 0.1l52 33.9 52.2-34v191.5l-52.2 34-52.1-33.9-52.2 33.9-52.1-33.9-52.1 33.9zm29-69.6h5.9v-12.9c2.5 2.7 6.8 8.3 7.1 12.9h7.8c-2.7-2.6-7.3-6.8-11.1-10.2 6.1-0.4 10.8-2.8 10.8-7.4 0-4.9-4.9-7.9-11.8-7.9h-8.7zm5.9-13.8v-8.8h2.8c3.6 0 5.9 0.9 5.9 5.4 0 3.8-2.6 5.9-5.7 6.2-1.1-1.1-2.2-2.1-3-2.8zm18.5 13.8h17v-3.8h-11.1v-5.6h9.4v-0.8h-9.4v-11.5h11.1v-3.8h-17zm37.5-11.1c-0.1 4.4-1.8 7.2-5.5 7.2-4 0-6.3-3.9-6.3-9.5 0-5.7 2.9-9.8 7.4-9.8 2.5 0 5.4 1.9 5.2 4.9l5.4-2.6c-1.6-3.3-5.6-5.1-10.5-5.1-8.3 0-13.4 5.5-13.4 13.3 0 7.9 3.6 13.2 10 13.2 5.3 0 8.5-4 8.6-11.6h0.6l4.6 11.1h1v-11.9h-14.7v0.8zm16.2 11.1v-25.5h-5.9v25.5zm8-18.9c0-3 2.1-4.1 4.4-4.1 3.8 0 5.2 3.2 4.3 6l5.6-0.9c-0.2-4.3-2.9-8.1-10.6-8.1-6.8 0-9.4 3-9 6.2 0.8 7.4 15.9 5.7 15.9 12.2 0 3.3-2.6 5-5.6 5-3.8 0-5.8-3.1-5.3-6.1l-5.7 1.4c0.9 5.9 5.4 7.8 11 7.8 5.4 0 10.2-2 10.2-6.7-0.3-7.3-15.1-4.9-15.2-12.7zm37-6.6h-20.3v3.8h7.2v21.7h5.9v-21.7h7.2c0 0 0-3.8 0-3.8zm2.6 25.5h5.9v-12.9c2.5 2.7 6.7 8.3 7.1 12.9h7.7c-2.7-2.6-7.2-6.8-11-10.2 6.1-0.4 10.8-2.8 10.8-7.4 0-4.9-4.9-7.9-11.8-7.9h-8.7zm5.9-13.8v-8.8h2.8c3.6 0 5.9 0.9 5.9 5.4 0 3.8-2.6 5.9-5.7 6.2-1.1-1.1-2.2-2.1-3-2.8zm39 13.8h0.9l-8.9-25.5h-5.9l-8.7 25.5h5.9l3-9.1h10.5zm-13.3-9.9l4.9-14.4 5 14.4zm35.1-15.6h-20.4v3.8h7.2v21.7h6v-21.7h7.2c0 0 0-3.8 0-3.8zm7.4 25.5v-25.5h-5.9v25.5zm2.7-12.8c0 9.4 3.9 13.3 13.2 13.3 9.3 0 13.2-3.9 13.2-13.3 0-9.2-3.9-13.2-13.2-13.2-9.3 0-13.2 4-13.2 13.2zm5.6 0.2c0-7.7 2.2-10.6 7.6-10.6 5.3 0 7.6 2.9 7.6 10.6 0 7.7-2.3 10.3-7.6 10.3-5.4 0-7.6-2.6-7.6-10.3zm30.4 12.6v-24.3l10.5 24.3h6.3v-25.5h-5.9v24.4l-10.6-24.4h-6.3v25.5z"/>
</svg>