<svg version="1.2" xmlns="http://www.w3.org/2000/svg" viewBox="0 0 408 100" width="408" height="100">
	<title>Untitled-177 05 Accomodation-svg</title>
	<style>
		.s0 { fill: #4bcb5e } 
	</style>
	<path id="Layer" fill-rule="evenodd" class="s0" d="m2.5 56.5v-11c0-22.6 18.3-40.9 40.9-40.9h322c22.6 0 40.9 18.3 40.9 40.9v11c0 22.6-18.3 40.9-40.9 40.9h-322c-22.6 0-40.9-18.3-40.9-40.9zm74.8 7h0.8l-8.8-25.5h-5.9l-8.8 25.5h5.9l3.1-9.1h10.5zm-13.3-9.9l4.9-14.3 5 14.3zm34.7 2.9c-0.9 2.5-2.5 4.4-5.9 4.5-5 0-7.2-4.8-7.2-10.2 0-6.3 2.3-10.5 6.8-10.5 2.7 0 4.6 1.3 4.9 4.6l5-3.8c-2.1-2-5.4-3.6-9.7-3.6-8 0-12.9 5.4-12.9 13.2 0 7.9 5.2 13.3 13.2 13.3 4.5 0 7.4-1.6 9.4-4.1zm24.6 0c-1 2.5-2.6 4.4-5.9 4.4-5 0.1-7.2-4.7-7.2-10.2 0-6.3 2.3-10.4 6.8-10.4 2.7 0 4.5 1.3 4.9 4.5l4.9-3.8c-2-2-5.3-3.5-9.7-3.5-7.9 0-12.8 5.4-12.8 13.2 0 7.9 5.1 13.3 13.1 13.3 4.6 0 7.5-1.6 9.4-4.2zm5.6-5.8c0 9.4 4 13.3 13.3 13.3 9.2 0 13.2-3.9 13.2-13.3 0-9.2-4-13.2-13.2-13.2-9.3 0-13.3 4-13.3 13.2zm5.7 0.2c0-7.7 2.2-10.6 7.6-10.6 5.3 0 7.5 2.9 7.5 10.6 0 7.7-2.2 10.4-7.5 10.4-5.4 0-7.6-2.7-7.6-10.4zm52.2-12.9h-5.9l-8.2 24.1-7.4-24.1h-6.3v25.5h5.9v-24l7.3 24 5.9 0.1 7.8-23v22.9h0.9zm3.6 12.7c0 9.4 3.9 13.3 13.2 13.3 9.3 0 13.3-3.9 13.3-13.3 0-9.2-4-13.2-13.3-13.2-9.2 0-13.2 4-13.2 13.2zm5.7 0.2c0-7.7 2.2-10.6 7.5-10.6 5.3 0 7.6 2.9 7.6 10.6 0 7.7-2.3 10.3-7.6 10.3-5.3 0-7.5-2.6-7.5-10.3zm33.7 12.6c7.3 0 11.5-4.3 11.5-13.3 0-8-4.7-12.2-11.4-12.2h-9.4v25.5zm-3.4-2.7v-19.9h1.9c5.2 0 7.1 1.6 7.1 9.2 0 7.5-2.8 10.7-7.2 10.7zm39.2 2.7h0.8l-8.8-25.5h-5.9l-8.8 25.5h5.9l3.1-9.1h10.5zm-13.4-9.9l4.9-14.3 5 14.3zm35.1-15.6h-20.3v3.9h7.2v21.6h5.9v-21.6h7.2c0 0 0-3.9 0-3.9zm7.5 25.5v-25.5h-5.9v25.5zm2.6-12.7c0 9.3 3.9 13.2 13.2 13.2 9.3 0 13.3-3.9 13.3-13.2 0-9.3-4-13.3-13.3-13.3-9.3 0-13.2 4-13.2 13.3zm5.6 0.1c0-7.7 2.3-10.6 7.6-10.6 5.3 0 7.6 2.9 7.6 10.6 0 7.7-2.3 10.4-7.6 10.4-5.3 0-7.6-2.7-7.6-10.4zm30.4 12.6v-24.3l10.6 24.3h6.2v-25.5h-5.8v24.4l-10.6-24.4h-6.3v25.5z"/>
</svg>