<svg version="1.2" xmlns="http://www.w3.org/2000/svg" viewBox="0 0 324 323" width="150" height="150">
	<title>Untitled-177 07 Apply now-svg</title>
	<style>
		.s0 { fill: #ffffff } 
	</style>
	<path id="Layer" fill-rule="evenodd" class="s0" d="m308.1 224.7l-41.5 5.6 10.7 40.5-40.9-8.9-3.7 41.6-35.4-22.3-17.8 37.9-25.6-33.2-29.6 29.6-12.7-39.9-38 17.6 1.7-41.8-41.7 3.5 15.9-38.7-40.4-10.9 28.2-30.9-34.3-24.1 37.1-19.4-24-34.4 41.5-5.6-10.7-40.4 40.9 8.9 3.7-41.6 35.4 22.3 17.8-37.9 25.6 33.2 29.6-29.6 12.7 39.9 38-17.6-1.7 41.8 41.7-3.6-15.9 38.7 40.4 11-28.2 30.9 34.3 24.1-37.1 19.4zm-230.7-54.7h0.8l-8.8-25.3h-5.8l-8.8 25.2h5.9l3.1-8.9h10.4zm-13.2-9.9l4.9-14.2 4.9 14.2zm24.9 1c7.1 0 13-2.5 13-7.9 0-5.2-5.1-8.4-12.3-8.4h-8.8l-0.1 25.2 5.9 0.1v-9c0 0 2.3 0 2.3 0zm-2.3-0.9v-12.6h3.2c3.7 0.1 6.2 1.1 6.2 6 0 4.4-3.3 6.6-6.9 6.6zm26.5 0.9c7.1 0.1 13-2.4 13-7.8 0-5.2-5.1-8.4-12.2-8.4l-8.9-0.1-0.1 25.3h5.9v-9c0 0 2.3 0 2.3 0zm-2.3-0.8l0.1-12.6h3.1c3.7 0 6.3 1.1 6.2 5.9 0 4.5-3.3 6.7-6.9 6.7zm24.3-15.4h-5.9l-0.1 25.3h17v-3.7l-11-0.1zm14.6 0.1h-5.8l7.8 16.8v8.5h5.9v-8.5l8.1-16.8h-0.9l-7.6 15.9zm32.7 25.4l0.1-24.1 10.4 24.1h6.3v-25.2l-5.8-0.1-0.1 24.2-10.5-24.2h-6.2l-0.1 25.3zm20.5-12.6c-0.1 9.2 3.8 13.2 13.1 13.2 9.3 0 13.2-3.9 13.2-13.2 0.1-9.2-3.9-13.1-13.1-13.1-9.3 0-13.2 3.8-13.2 13.1zm5.6 0.1c0-7.6 2.2-10.5 7.6-10.5 5.3 0.1 7.5 2.9 7.5 10.5 0 7.7-2.3 10.3-7.6 10.3-5.3 0-7.5-2.6-7.5-10.3zm27.8-12.7h-5.9l7.7 25.3h5.8l5.9-18.4 5.6 18.5h5.8l8-25.3h-0.9l-7.5 23.9-7.2-23.9h-5.9l1.6 5.4-5.8 18.5z"/>
</svg>