<svg version="1.2" xmlns="http://www.w3.org/2000/svg" viewBox="0 0 329 323" width="329" height="323">
	<title>Untitled-177 02 Authors-svg</title>
	<style>
		.s0 { fill: #ffffff } 
	</style>
	<path id="Layer" fill-rule="evenodd" class="s0" d="m315.5 229.1l-42.4 5.8 11.1 41.3-41.8-9-3.7 42.6-36.2-22.7-18.1 38.8-26.2-33.8-30.3 30.3-13.1-40.8-38.7 18.1 1.6-42.7-42.7 3.7 16.2-39.6-41.4-11 28.7-31.8-35-24.5 37.8-20-24.6-35 42.4-5.8-11.1-41.4 41.8 9 3.7-42.6 36.3 22.8 18-38.8 26.3 33.8 30.2-30.3 13.1 40.7 38.8-18.1-1.6 42.8 42.6-3.8-16.1 39.6 41.3 11.1-28.7 31.7 35.1 24.5-37.8 20zm-211.5-51.5h0.9l-8.9-25.5h-5.9l-8.7 25.5h5.8l3.1-9h10.5zm-13.3-10l4.9-14.3 5 14.3zm16.6 1.3c0 6 3.4 9.2 10.2 9.2 6.8 0 10.3-3.2 10.3-9.2v-16.8h-5.9v16.8c0.5 4.3-0.5 6.4-4.4 6.4-3.8 0-4.6-2-4.3-6.4v-16.8h-5.9zm43.3-16.8h-20.3v3.8h7.2v21.7h5.9v-21.7h7.2c0 0 0-3.8 0-3.8zm8.5 25.5v-11.5h12v11.5h5.9v-25.5h-5.9v13.2l-12-0.1v-13.1h-5.9v25.5zm21.6-12.8c0 9.3 3.9 13.3 13.2 13.3 9.3 0 13.3-4 13.3-13.3 0-9.3-4-13.2-13.3-13.2-9.3 0-13.2 3.9-13.2 13.2zm5.6 0.1c0-7.7 2.3-10.6 7.6-10.6 5.3 0 7.6 2.9 7.6 10.6 0 7.8-2.3 10.4-7.6 10.4-5.3 0-7.6-2.6-7.6-10.4zm24.5 12.7h5.9v-12.9c2.5 2.7 6.7 8.3 7.1 12.9h7.7c-2.7-2.6-7.2-6.8-11-10.3 6.1-0.3 10.8-2.7 10.8-7.4 0-4.8-4.9-7.8-11.8-7.8h-8.7zm5.9-13.9v-8.7h2.8c3.5 0 5.9 0.9 5.9 5.4 0 3.8-2.6 5.9-5.7 6.1-1.2-1-2.2-2-3-2.8zm22.8-5.1c0-2.9 2.2-4 4.4-4 3.8 0 5.3 3.2 4.3 6l5.6-0.9c-0.1-4.4-2.9-8.1-10.6-8.1-6.8 0-9.4 3-9 6.2 0.8 7.4 15.9 5.7 15.9 12.2 0 3.3-2.6 5-5.5 5-3.9 0-5.9-3.1-5.3-6.1l-5.7 1.4c0.8 5.8 5.3 7.8 10.9 7.8 5.4 0 10.2-2.1 10.2-6.7-0.2-7.3-15.1-4.9-15.2-12.8z"/>
</svg>