<svg width="1440" height="768" viewBox="0 0 1440 768" fill="none" xmlns="http://www.w3.org/2000/svg">
<g clip-path="url(#clip0)">
<rect width="1440" height="768" fill="#0D2240"/>
<path d="M1702.14 3025.07C1691.73 2970.89 1672.18 2921.51 1602.26 2891.04C1348.93 2780.75 1099.13 2662.47 848.016 2547.19C839.475 2543.27 828.093 2541.49 823.214 2534.82C815.156 2523.94 811.403 2509.85 805.828 2497.12C819.194 2494.24 834.704 2485.33 845.622 2489.28C952.549 2528.07 1060.12 2565.62 1164.79 2609.89C1321.29 2676.04 1475.66 2747.28 1631.67 2816.71C1609.33 2736.88 1587.21 2657.86 1565.13 2578.92C1571.2 2576.09 1577.33 2573.21 1583.41 2570.35C1595.58 2584.86 1610.92 2597.77 1619.23 2614.16C1656.38 2688.09 1694.07 2761.83 1726.18 2837.97C1739.72 2870.01 1758.4 2887.95 1789.09 2900.49C2050.46 3007.46 2311.38 3115.37 2572.39 3223.14C2576.52 3224.78 2580.11 3227.7 2583.97 3230.01M1702.14 3025.07C1516.18 2941.59 1328.56 2853.38 1137.62 2773.2C1018.77 2723.2 895.011 2684.9 773.003 2642.71C763.586 2639.42 750.614 2646.22 739.303 2648.39C742.555 2660.79 741.894 2678.71 749.935 2684.51C769.858 2698.93 793.356 2708.76 816.228 2718.69C889.132 2750.46 963.61 2778.94 1035.33 2813.2C1261.93 2921.54 1487.92 3031.12 1713.03 3142.63C1734.99 3153.53 1757.75 3177.93 1765.13 3200.91C1827.33 3395.2 1884.78 3591.05 1946.47 3785.54M1702.14 3025.07C1516.18 2941.59 1328.56 2853.38 1137.62 2773.16C1018.77 2723.22 895.011 2684.91 773.003 2642.69C763.569 2639.43 750.614 2646.29 739.303 2648.4C742.555 2660.82 741.894 2678.72 749.935 2684.52C769.858 2698.95 793.356 2708.81 816.228 2718.71C889.132 2750.48 963.645 2778.94 1035.3 2813.25C1261.93 2921.52 1487.92 3031.12 1713.03 3142.59C1735.01 3153.51 1757.75 3177.92 1765.1 3200.9C1827.3 3395.2 1884.78 3591.05 1946.47 3785.54M1702.14 3025.07C1691.73 2970.91 1672.18 2921.47 1602.26 2891.04C1348.99 2780.75 1099.18 2662.5 848.016 2547.18C839.475 2543.26 828.111 2541.45 823.214 2534.81C815.174 2523.88 811.403 2509.84 805.828 2497.12C819.176 2494.22 834.686 2485.34 845.622 2489.28C952.549 2528.01 1060.12 2565.62 1164.79 2609.92C1321.36 2676.09 1475.71 2747.33 1631.74 2816.78C1609.41 2736.93 1587.3 2657.92 1565.15 2578.95C1571.24 2576.05 1577.37 2573.21 1583.42 2570.38C1595.56 2584.88 1610.94 2597.73 1619.23 2614.18C1656.4 2688.05 1694.09 2761.88 1726.2 2837.97C1739.74 2870.04 1758.45 2887.92 1789.15 2900.49C2050.43 3007.45 2311.36 3115.4 2572.36 3223.1C2576.45 3224.78 2580.13 3227.65 2583.97 3230.01M1946.47 3785.54C1968.6 3855.29 1998.48 3922.55 2024.84 3991M1946.47 3785.54C1968.64 3855.29 1998.48 3922.55 2024.84 3991M2024.84 3991C2031.36 3989.1 2037.97 3987.1 2044.49 3985.11M2024.84 3991C2031.38 3989.05 2037.9 3987.04 2044.49 3985.11M2044.49 3985.11C2010.42 3727.4 1943.27 3476.51 1868.02 3217.93C1984.4 3275.06 2090.43 3327.83 2197.09 3379.38C2345.83 3451.28 2494.54 3523.48 2644.47 3592.86C2680.93 3609.68 2722.27 3615.88 2761.41 3626.94C2763.27 3622.78 2765.14 3618.67 2767 3614.51M2044.49 3985.11C2010.38 3727.44 1943.3 3476.51 1868.07 3217.96C1984.36 3275.11 2090.43 3327.88 2197 3379.38C2345.83 3451.31 2494.5 3523.5 2644.53 3592.86C2680.96 3609.68 2722.27 3615.86 2761.35 3626.94C2763.23 3622.78 2765.14 3618.67 2767 3614.51M2767 3614.51C2748.77 3600.95 2731.87 3584.93 2712.07 3574.19M2767 3614.51C2748.79 3600.95 2731.87 3584.89 2712.07 3574.19M2712.07 3574.19C2440.04 3426.85 2169.13 3277.19 1894.13 3135.49C1825.14 3099.98 1799.48 3048.87 1781.8 2977.08C1809.93 2988.02 1833.86 2997.76 1858.1 3006.54C2063.35 3080.82 2268.37 3155.91 2474.4 3228.02M2712.07 3574.19C2440.05 3426.84 2169.09 3277.21 1894.07 3135.52C1825.14 3099.97 1799.44 3048.87 1781.77 2977.08C1809.95 2987.98 1833.8 2997.77 1858.07 3006.54C2063.34 3080.82 2268.37 3155.96 2474.4 3228.02M2474.4 3228.02C2508.03 3239.8 2546.36 3238.07 2582.45 3242.56C2582.97 3238.41 2583.52 3234.25 2583.97 3230.01M2474.4 3228.02C2508.08 3239.8 2546.37 3238.1 2582.49 3242.56C2583.02 3238.39 2583.49 3234.2 2583.97 3230.01M1444.74 596.38C1425 600.289 1399.15 614.195 1386.55 606.43C1329.87 571.692 1274.56 533.777 1223.41 491.346C1173.42 449.915 1129.14 401.682 1081.63 355.877C1093.7 495.077 1105.39 629.154 1116.74 763.302C1118.58 785.044 1121.88 807.358 1118.97 828.636C1117.58 838.686 1103.08 847.022 1094.53 856.09C1087.36 847.343 1074.1 838.668 1073.9 829.796C1071.46 701.128 1001.6 593.631 964.177 476.03M1444.74 596.38C1439.74 577.387 1440.29 553.681 1428.78 540.221C1386.3 490.436 1341.4 442.417 1294.6 396.648C1194.16 298.469 1092.07 201.932 990.341 105.145C965.016 81.0289 935.193 74.2097 905.173 94.7381C874.565 115.641 857.181 145.22 869.264 183.367C900.212 281.172 933.069 378.315 964.177 476.03M1444.74 596.38C1439.69 577.369 1440.28 553.645 1428.75 540.221C1386.27 490.436 1341.37 442.417 1294.58 396.647C1194.14 298.468 1092.06 201.932 990.304 105.145C964.98 81.0284 935.213 74.2097 905.124 94.7381C874.572 115.641 857.172 145.22 869.272 183.367C900.217 281.171 933.071 378.315 964.177 476.03M1444.74 596.38C1424.95 600.307 1399.1 614.195 1386.51 606.43C1329.86 571.692 1274.54 533.777 1223.37 491.346C1173.37 449.915 1129.06 401.7 1081.59 355.895C1093.65 495.113 1105.32 629.19 1116.76 763.302C1118.56 785.044 1121.87 807.358 1118.96 828.636C1117.56 838.686 1103.07 847.022 1094.53 856.09C1087.35 847.361 1074.07 838.668 1073.89 829.796C1071.43 701.128 1001.58 593.631 964.177 476.03M1515.98 1227.83C1514.44 1242.19 1488.2 1253.82 1474.93 1264.99C1434.94 1247.85 1399.5 1239.88 1372.94 1219.96C1276.65 1148.02 1183.21 1072.26 1089.17 997.356C1079.64 989.737 1069.48 979.357 1066.23 968.242C1061.36 951.838 1056.02 930.093 1062.98 917.311C1068.25 907.558 1095.85 900.351 1107.62 905.514C1161.34 929.196 1216.79 952.179 1264.6 985.47C1343.93 1040.72 1419.11 1102.28 1493.02 1164.81M1515.98 1227.83C1518.25 1207.48 1508.37 1177.78 1493.02 1164.81M1515.98 1227.83C1518.25 1207.45 1508.37 1177.83 1493.02 1164.81M1515.98 1227.83C1514.44 1242.17 1488.16 1253.84 1474.95 1264.99C1434.97 1247.87 1399.52 1239.93 1372.89 1219.96C1276.68 1148.02 1183.23 1072.26 1089.15 997.356C1079.65 989.737 1069.44 979.303 1066.21 968.242C1061.35 951.803 1056.02 930.093 1063 917.257C1068.23 907.559 1095.83 900.352 1107.6 905.515C1161.32 929.161 1216.78 952.144 1264.59 985.47C1343.92 1040.72 1419.1 1102.28 1493.02 1164.81M1379.99 489.671C1368.61 491.298 1355.36 497.502 1346.1 493.765C1226.21 446.098 1104.44 402.203 988.068 346.883C801.135 258.091 617.879 161.503 436.071 69.6546C443.963 124.17 461.23 174.359 529.636 207.973C777.458 329.628 1021.44 459.114 1266.83 585.668C1275.16 589.941 1286.42 592.248 1291.01 599.149C1298.55 610.36 1301.67 624.575 1306.64 637.538C1293.17 639.79 1277.3 647.961 1266.58 643.527C1161.59 599.918 1055.94 557.507 953.463 508.57C800.26 435.37 649.449 357.217 496.87 280.781C515.53 361.472 533.975 441.306 552.456 521.211C546.242 523.768 540.01 526.361 533.814 528.953C522.333 513.88 507.566 500.327 500.031 483.574C466.354 408.103 432.107 332.775 403.519 255.337C391.485 222.742 373.646 203.986 343.559 190.058C87.5592 71.3532 -167.976 -48.281 -423.584 -167.79C-427.637 -169.614 -431.119 -172.707 -434.851 -175.174C-434.208 -179.376 -433.476 -183.524 -432.762 -187.637C-396.925 -181.486 -358.588 -181.468 -325.555 -168.183C-123.176 -86.7939 78.0421 -2.4725 279.546 81.0623C303.348 90.9498 326.757 101.749 354.344 113.961C339.97 41.5117 316.704 -10.6615 249.459 -49.2642C-18.5761 -203.281 -282.165 -365.022 -547.004 -524.529C-566.288 -536.169 -582.448 -552.904 -600 -567.297C-597.947 -571.374 -595.893 -575.38 -593.84 -579.438C-555.289 -566.601 -514.309 -558.536 -478.687 -540.084C-332.197 -463.988 -187.029 -385.12 -41.8246 -306.556C62.2931 -250.234 165.715 -192.714 279.278 -130.367C215.961 -391.86 160.411 -645.29 138.163 -904.029C144.77 -905.71 151.448 -907.391 158.054 -909C181.231 -839.501 207.98 -771.003 226.907 -700.395C279.6 -503.484 327.989 -305.411 381.2 -108.679C387.538 -85.3996 409.144 -60.028 430.589 -48.1379C650.181 73.4452 870.773 193.133 1091.99 311.659C1162.04 349.135 1235.09 380.943 1306.4 415.988M1379.99 489.671C1377.31 477.137 1378.79 459.293 1371.02 453.142M1379.99 489.671C1368.6 491.262 1355.35 497.499 1346.1 493.816C1226.21 446.094 1104.44 402.2 988.072 346.915C801.14 258.088 617.886 161.501 436.079 69.6521C443.972 124.186 461.238 174.392 529.643 207.971C777.427 329.625 1021.39 459.075 1266.84 585.664C1275.17 589.937 1286.44 592.28 1291.01 599.146C1298.55 610.428 1301.67 624.589 1306.64 637.534C1293.17 639.822 1277.28 647.958 1266.59 643.523C1161.59 599.968 1055.94 557.504 953.467 508.531C800.229 435.384 649.42 357.231 496.842 280.795C515.502 361.505 533.947 441.338 552.445 521.172C546.231 523.782 540 526.339 533.804 528.878C522.358 513.859 507.556 500.324 500.056 483.552C466.327 408.117 432.08 332.718 403.51 255.316C391.458 222.686 373.584 204.002 343.515 190.037C87.5888 71.3332 -167.945 -48.3545 -423.55 -167.774C-427.567 -169.633 -431.103 -172.673 -434.852 -175.194C-434.174 -179.36 -433.513 -183.544 -432.799 -187.657C-396.927 -181.542 -358.626 -181.488 -325.557 -168.203C-123.18 -86.832 78.0361 -2.47494 279.574 81.0418C303.411 90.9293 326.766 101.765 354.371 113.941C339.998 41.4916 316.714 -10.6817 249.487 -49.3379C-18.5636 -203.301 -282.186 -365.042 -547.004 -524.548C-566.288 -536.134 -582.43 -552.924 -600 -567.317C-597.947 -571.393 -595.857 -575.398 -593.786 -579.457C-555.271 -566.619 -514.328 -558.556 -478.724 -540.104C-332.146 -464.007 -187.032 -385.175 -41.7582 -306.575C62.2872 -250.289 165.743 -192.788 279.234 -130.405C215.936 -391.862 160.458 -645.326 138.174 -904.03C144.87 -905.675 151.459 -907.373 158.065 -909C181.242 -839.501 207.954 -771.003 226.917 -700.396C279.592 -503.485 328.016 -305.413 381.262 -108.681C387.547 -85.4016 409.117 -59.9943 430.597 -48.1042C650.187 73.4429 870.777 193.184 1092.05 311.62C1162 349.114 1235.09 380.943 1306.4 415.988M1371.02 453.142C1351.79 437.855 1328.78 426.966 1306.4 415.988M1371.02 453.142C1351.79 437.855 1328.78 426.912 1306.4 415.988M585.947 2506.96C605.833 2503.94 632.306 2491.26 644.552 2499.57C699.586 2536.9 753.104 2577.34 802.265 2622.11C850.32 2665.8 892.359 2716.04 937.736 2764.02C932.077 2624.29 926.543 2489.72 921.277 2355.12C920.438 2333.31 918.153 2310.86 922.045 2289.71C923.883 2279.72 938.735 2272.06 947.714 2263.39C954.48 2272.45 967.35 2281.74 967.118 2290.6C963.673 2419.34 1028.54 2530.01 1060.57 2649.28C1087.17 2748.39 1115.57 2847.03 1141.99 2946.19M585.947 2506.96C590.089 2526.18 588.447 2549.83 599.336 2563.84C639.464 2615.57 682.146 2665.59 726.809 2713.5C822.686 2816.25 920.224 2917.43 1017.44 3018.86C1041.65 3044.1 1071.14 3052.32 1102.07 3033.17C1133.6 3013.68 1152.32 2984.9 1141.99 2946.19M585.947 2506.96C590.124 2526.2 588.447 2549.87 599.371 2563.84C639.497 2615.55 682.176 2665.59 726.836 2713.5C822.708 2816.25 920.239 2917.41 1017.5 3018.86C1041.69 3044.1 1071.14 3052.32 1102.11 3033.17C1133.58 3013.66 1152.32 2984.9 1141.99 2946.19M585.947 2506.96C605.904 2503.94 632.357 2491.26 644.584 2499.57C699.562 2536.9 753.129 2577.34 802.287 2622.11C850.339 2665.82 892.429 2716.05 937.75 2764.02C932.091 2624.29 926.558 2489.72 921.257 2355.12C920.453 2333.31 918.169 2310.86 922.06 2289.71C923.916 2279.72 938.767 2272.06 947.728 2263.39C954.493 2272.45 967.363 2281.74 967.131 2290.6C963.703 2419.36 1028.55 2530.01 1060.57 2649.28C1087.15 2748.37 1115.55 2847.01 1141.99 2946.19M727.06 438.197C763.496 478.884 801.113 519.429 831.336 564.696C893.751 658.238 901.772 756.002 839.912 854.678C796.744 923.421 716.819 950.277 629.571 925.282C512.296 891.536 430.383 809.929 357.297 719.233C324.622 678.653 294.417 632.33 277.712 583.573C253.666 513.649 315.455 446.284 384.834 463.014C335.293 522.291 335.203 553.549 385.98 607.047C456.882 681.73 525.563 759.348 622.838 802.343C710.32 840.955 764.839 810.305 769.225 714.599C773.504 624.421 761.992 537.106 698.628 464.428C689.568 454.05 690.392 434.976 686.668 419.929C700.383 425.78 718.036 428.159 727.06 438.197ZM727.06 438.197C718.037 428.159 700.383 425.798 686.632 419.929C690.41 434.941 689.568 454.05 698.628 464.392C761.991 537.09 773.485 624.388 769.26 714.657C764.802 810.293 710.284 840.943 622.84 802.348C525.567 759.388 456.887 681.734 386.004 607.051C335.21 553.569 335.318 522.275 384.84 462.997C315.498 446.249 253.711 513.633 277.684 583.611C294.425 632.279 324.665 678.603 357.304 719.237C430.388 809.989 512.3 891.597 629.572 925.289C716.819 950.267 796.778 923.428 839.909 854.684C901.786 756.006 893.747 658.259 831.298 564.699C801.129 519.43 763.549 478.885 727.06 438.197ZM1135.9 1494.76C1139.98 1492.22 1143.98 1489.7 1148.05 1487.17C1238.51 1558.71 1329.23 1629.86 1418.71 1702.54C1428.07 1710.18 1431.64 1726.74 1434.96 1739.89C1460.37 1840.5 1484.49 1941.48 1510.51 2041.94C1514.51 2057.38 1526.17 2070.76 1534.3 2085.13C1539.44 2083.32 1544.55 2081.55 1549.71 2079.76C1555.59 1975.84 1528.85 1875.16 1507.69 1770.07C1560.5 1797.21 1609.56 1820.55 1656.55 1847.44C1671.38 1855.95 1686.52 1872.05 1691.79 1887.97C1734.96 2018.99 1775.16 2151.01 1818.76 2281.89C1822.26 2292.44 1843.98 2296.97 1857.22 2304.28C1861.9 2290.87 1873.29 2275.55 1870.2 2264.26C1834.6 2135.11 1799.01 2005.79 1758.05 1878.28C1747.84 1846.51 1723.32 1815.13 1697.22 1793.36C1591.83 1705.33 1483.5 1620.68 1375.57 1535.6C1311.88 1485.38 1250.48 1430.88 1181.66 1388.79C1092.41 1334.17 1004.49 1388.48 1016.44 1493.17C1029.4 1605.74 1054.75 1717.42 1081.57 1827.78C1113.51 1959.22 1139.82 2093.75 1219.88 2207.86C1227.58 2218.79 1249.28 2233.98 1252.77 2231.44C1266.34 2221.37 1284.56 2204.61 1284.13 2190.83C1282.36 2130.47 1281.47 2068.74 1267.8 2010.4C1232.99 1861.66 1191.43 1714.54 1152.78 1566.73C1146.62 1542.86 1141.5 1518.78 1135.9 1494.76ZM1738.64 2629.41C1808.69 2642.86 1867.27 2573.1 1840.07 2504.75C1821.16 2457.08 1788.92 2412.43 1754.42 2373.6C1677.31 2286.79 1591.79 2209.46 1473.19 2181.27C1384.97 2160.41 1306.4 2190.75 1266.45 2260.99C1209.2 2361.84 1221.69 2458.59 1288.3 2548.7C1320.54 2592.32 1359.95 2630.86 1398.19 2669.64C1407.67 2679.2 1425.4 2680.76 1439.36 2685.92C1434.94 2671.15 1434.9 2652.18 1425.38 2642.27C1358.79 2572.94 1343.33 2486.69 1343.46 2396.91C1343.46 2301.63 1396.45 2268.7 1485.55 2303.09C1584.62 2341.37 1656.72 2415.36 1730.93 2486.31C1784.05 2537.19 1785.41 2568.24 1738.64 2629.41ZM1966.01 665.22C1976.89 670.583 1989.8 686.51 1989.73 697.521C1988.37 910.917 2000.7 1125.4 1951.92 1335.94C1945.09 1365.49 1931.76 1393.6 1921.44 1422.35C1915.64 1423.58 1909.76 1424.92 1903.88 1426.12C1881.99 1391.1 1858.45 1356.96 1838.47 1320.92C1755.8 1171.52 1719.71 1006.96 1684.31 842.418C1660.5 731.466 1639.1 619.924 1616.02 506.005C1625.04 505.737 1629.5 504.289 1632.57 505.719C1743.91 558.451 1855.38 611.005 1966.01 665.22ZM2368.1 2781.33C2427.88 2749.71 2438.62 2700.75 2441.36 2658.05C2452.55 2483.33 2469.62 2307.6 2461.64 2133.32C2446.83 1809.97 2418.74 1487.11 2390.64 1164.57C2376.01 996.646 2354.48 828.958 2327.1 662.682C2292.13 450.288 2250 239.038 2207.15 28.0735C2192.59 -43.2668 2168.96 -113.177 2144.27 -181.872C2132.68 -214.083 2108.07 -244.847 2066.58 -237.714C2026.22 -230.779 1999.18 -204.27 1992.89 -162.531C1986.84 -122.598 1979.38 -82.1097 1980.03 -41.9975C1982.58 116.27 1988.76 274.448 1992.01 432.68C1993.03 481.963 1988.94 531.299 1986.66 596.132C1856.01 518.035 1735.56 446.409 1615.8 373.585C1606.36 367.918 1597.55 354.584 1595.9 343.716C1574.94 203.162 1553.39 62.6441 1535.78 -78.3384C1519.23 -210.204 1507.26 -342.624 1493.16 -474.776L1329.5 -779.515C1347.83 -625.948 1367.48 -472.489 1386.34 -318.922C1401.85 -191.757 1416.59 -64.4312 1432.4 62.7515C1440.56 128.318 1450.29 193.688 1460.73 269.426C1401.15 224.595 1348.35 188.397 1299.54 147.445C1190.81 56.227 1073.95 -21.4231 941.536 -73.8513C928.86 -78.8564 911.324 -71.5813 896.066 -70.0083C902.825 -54.8679 906.411 -36.8498 917.151 -25.4096C930.724 -10.9485 950.841 -2.8326 966.907 9.62648C1131.34 137.524 1295.83 265.457 1459.35 394.535C1473.89 406.065 1487.86 425.137 1491.25 442.745C1523.2 608.073 1549.98 774.456 1583.89 939.302C1619.53 1112.55 1668.86 1282.15 1766.22 1432.75C1789.44 1468.72 1818.98 1503.84 1853.34 1528.76C1913.01 1572.07 1975.26 1557.66 2014.47 1494.54C2036.44 1459.17 2058.26 1419.81 2064.84 1379.7C2084.87 1258.43 2107.1 1136.18 2110.61 1013.82C2117.55 774.492 2112.39 534.856 2112.08 295.273C2112.07 275.521 2111.04 255.805 2110.49 236.07C2250.29 832.372 2331.51 1436.29 2371.55 2048.16C2237.14 1930.24 2111.44 1814.23 1979.56 1705.76C1834.4 1586.42 1690.32 1463.64 1533.31 1361.39C1371.4 1255.86 1194.6 1173.06 1023.96 1080.86C1000.79 1068.34 973.469 1060.46 959.645 1091.81C945.552 1123.86 973.021 1135.47 995.809 1146.57C1039.34 1167.91 1087.45 1182.91 1126.02 1210.97C1339.9 1366.79 1552.96 1523.75 1763.33 1684.24C1926.53 1808.74 2084.11 1940.55 2247.01 2065.45C2280.61 2091.13 2326.63 2100.59 2379.63 2122.93C2382.81 2327.46 2409.47 2548.81 2368.1 2781.33ZM1738.66 2629.37C1785.39 2568.21 1784.06 2537.12 1730.89 2486.29C1656.71 2415.34 1584.61 2341.31 1485.55 2303.07C1396.48 2268.69 1343.49 2301.63 1343.4 2396.87C1343.33 2486.74 1358.79 2572.96 1425.38 2642.31C1434.9 2652.18 1434.93 2671.21 1439.39 2685.92C1425.4 2680.73 1407.68 2679.2 1398.18 2669.64C1359.91 2630.85 1320.53 2592.3 1288.33 2548.7C1221.69 2458.58 1209.2 2361.85 1266.45 2260.98C1306.35 2190.72 1384.96 2160.43 1473.18 2181.26C1591.79 2209.39 1677.31 2286.75 1754.42 2373.59C1788.86 2412.46 1821.15 2457.12 1840.1 2504.73C1867.22 2573.06 1808.65 2642.88 1738.66 2629.37ZM933.214 1624.02C929.037 1626.36 924.896 1628.68 920.737 1631.04C833.702 1555.61 746.382 1480.59 660.382 1404.08C651.368 1396.07 648.584 1379.39 645.871 1366.13C625.094 1264.73 605.619 1163.04 584.236 1061.75C580.951 1046.17 569.92 1032.33 562.459 1017.63C557.229 1019.18 552.053 1020.73 546.805 1022.28C536.184 1125.52 558.318 1227.07 574.615 1332.7C523.1 1303.28 475.228 1277.77 429.515 1248.83C415.11 1239.66 400.741 1222.93 396.208 1206.84C359.08 1074.34 325.005 940.989 287.45 808.599C284.415 797.93 262.96 792.436 250.073 784.533C244.789 797.681 232.705 812.398 235.293 823.798C264.923 954.101 294.554 1084.56 329.611 1213.46C338.357 1245.59 361.419 1277.95 386.48 1300.84C487.705 1393.35 591.964 1482.63 695.831 1572.34C757.127 1625.29 815.924 1682.38 882.699 1727.46C969.324 1785.96 1059.57 1735.85 1052.43 1631.04C1044.65 1518.29 1024.46 1405.88 1002.7 1294.7C976.82 1162.29 956.704 1027.08 881.967 909.751C874.792 898.494 853.836 882.367 850.249 884.757C836.237 894.159 817.263 910.036 817.084 923.791C816.067 984 814.157 1045.53 825.116 1104.28C853.069 1254.06 887.858 1402.54 919.684 1551.54C924.735 1575.59 928.734 1599.85 933.214 1624.02ZM585.337 1840.86C571.469 1851.4 544.525 1861.84 542.313 1876.11C539.111 1896.32 547.673 1926.45 562.53 1940.1C634.045 2005.99 706.855 2070.93 784.162 2129.79C830.747 2165.25 885.499 2190.75 938.47 2216.87C950.089 2222.55 978.185 2216.64 983.94 2207.15C991.513 2194.69 987.16 2172.75 983.005 2156.13C980.253 2144.87 970.504 2134.04 961.241 2126.01C870.066 2046.83 779.503 1966.85 685.901 1890.54C660.072 1869.4 624.782 1859.81 585.337 1840.86ZM64.9878 2417.64C54.3855 2411.8 42.2633 2395.29 42.8355 2384.32C53.9742 2171.38 51.489 1956.72 109.757 1748.8C117.928 1719.61 132.481 1692.18 144.067 1663.94C149.914 1662.96 155.814 1661.92 161.732 1660.97C181.917 1696.95 203.819 1732.08 222.074 1768.95C297.577 1921.84 325.987 2087.77 353.718 2253.61C372.348 2365.45 388.564 2477.78 406.3 2592.54C397.325 2592.37 392.819 2593.64 389.816 2592.05C281.343 2534.32 172.727 2476.81 64.9878 2417.64ZM-238.6 287.036C-299.585 315.864 -312.53 364.233 -317.214 406.761C-336.363 580.642 -361.429 755.274 -361.447 929.601C-361.501 1253.04 -348.324 1576.6 -335.093 1899.83C-328.192 2068.09 -314.461 2236.49 -294.794 2403.7C-269.692 2617.29 -237.402 2830.07 -204.361 3042.63C-193.133 3114.48 -172.787 3185.36 -151.35 3255.03C-141.284 3287.72 -118.184 3319.57 -76.5076 3314.33C-36.0114 3309.24 -7.85184 3284.02 0.336801 3242.66C8.18574 3203.04 17.465 3162.99 18.6629 3122.91C23.383 2964.82 24.4737 2806.64 28.4965 2648.57C29.7302 2599.32 36.0593 2550.26 41.28 2485.63C167.864 2569.57 284.543 2646.55 400.525 2724.71C409.679 2730.8 417.832 2744.52 418.959 2755.43C433.423 2896.68 448.423 3037.93 459.526 3179.46C469.968 3311.85 475.832 3444.56 483.806 3577.15L632.882 3888.77C621.654 3734.67 609.103 3580.59 597.374 3426.45C587.738 3298.79 578.905 3171.03 568.964 3043.38C563.833 2977.56 557.146 2911.86 550.191 2835.79C607.512 2883.25 658.449 2921.79 705.185 2964.91C809.296 3060.92 922.167 3143.76 1051.67 3202.13C1064.04 3207.7 1081.84 3201.23 1097.13 3200.38C1091.09 3184.95 1088.35 3166.78 1078.18 3154.88C1065.31 3139.83 1045.64 3130.81 1030.21 3117.64C872.248 2982.47 714.268 2847.29 557.307 2710.97C543.361 2698.79 530.31 2679.11 527.735 2661.39C503.491 2494.9 484.432 2327.6 458.203 2161.5C430.616 1986.94 389.261 1815.42 299.169 1660.65C277.696 1623.68 249.858 1587.28 216.781 1560.82C159.318 1514.9 96.6517 1526.42 54.6894 1587.62C31.2141 1621.95 7.64944 1660.24 -0.735874 1699.98C-26.2315 1820.12 -53.9978 1941.11 -63.0804 2063.1C-80.9595 2301.68 -86.7703 2541.11 -97.462 2780.28C-98.3381 2800 -98.2307 2819.71 -98.5705 2839.45C-210.512 2237.84 -263.756 1631.36 -275.61 1018.77C-147.13 1142.62 -27.2149 1264.13 99.1548 1378.42C238.29 1504.17 376.21 1633.31 527.896 1742.51C684.374 1855.25 856.693 1945.93 1022.43 2045.78C1044.94 2059.32 1071.81 2068.43 1086.99 2037.76C1102.51 2006.41 1075.66 1993.59 1053.49 1981.46C1011.1 1958.17 963.861 1941 926.744 1911.23C720.83 1745.96 515.774 1579.54 313.561 1409.77C156.726 1278.04 5.79003 1139.28 -150.742 1007.19C-183.031 980.006 -228.462 968.468 -280.258 943.747C-274.018 739.395 -290.431 517.252 -238.6 287.036ZM933.268 1624C928.788 1599.84 924.808 1575.56 919.685 1551.53C887.859 1402.47 853.089 1254.04 825.118 1104.29C814.159 1045.56 816.105 983.935 817.122 923.706C817.336 910.004 836.239 894.18 850.251 884.76C853.838 882.334 874.794 898.479 881.969 909.755C956.705 1027.06 976.803 1162.3 1002.7 1294.72C1024.41 1405.9 1044.7 1518.27 1052.43 1631.03C1059.57 1735.87 969.324 1785.95 882.701 1727.45C815.926 1682.37 757.13 1625.26 695.835 1572.33C592.005 1482.63 487.746 1393.39 386.486 1300.78C361.444 1277.93 338.382 1245.58 329.618 1213.4C294.562 1084.54 264.931 954.07 235.301 823.763C232.678 812.363 244.797 797.681 250.081 784.533C262.968 792.383 284.423 797.895 287.458 808.528C324.959 940.958 359.087 1074.31 396.214 1206.82C400.712 1222.85 415.099 1239.64 429.521 1248.81C475.234 1277.75 523.106 1303.23 574.619 1332.68C558.323 1227.03 536.208 1125.5 546.792 1022.26C552.058 1020.7 557.234 1019.15 562.464 1017.6C569.925 1032.28 580.956 1046.18 584.24 1061.72C605.642 1162.96 625.098 1264.71 645.874 1366.11C648.587 1379.37 651.39 1396.05 660.404 1404.06C746.385 1480.58 833.74 1555.6 920.738 1631.03C924.968 1628.65 929.092 1626.33 933.268 1624ZM585.303 1840.86C624.749 1859.81 660.04 1869.37 685.96 1890.54C779.459 1966.84 870.007 2046.82 961.257 2125.99C970.485 2134.02 980.27 2144.91 983.022 2156.11C987.159 2172.77 991.53 2194.67 983.903 2207.19C978.201 2216.64 950.087 2222.55 938.485 2216.87C885.512 2190.77 830.758 2165.29 784.171 2129.79C706.861 2070.95 634.031 2006 562.531 1940.11C547.673 1926.41 539.111 1896.37 542.313 1876.13C544.489 1861.84 571.47 1851.37 585.303 1840.86Z" stroke="#5F71ED" stroke-miterlimit="10"/>
<path d="M1190.29 295.536C1191.35 294.608 1191.46 292.992 1190.53 291.928C1189.61 290.863 1187.99 290.751 1186.93 291.679C1185.86 292.606 1185.75 294.22 1186.68 295.285C1187.61 296.35 1189.22 296.463 1190.29 295.536Z" fill="#5F71ED"/>
<path d="M1160.64 269.234C1163.19 267.016 1163.45 263.155 1161.23 260.609C1159.02 258.063 1155.16 257.796 1152.61 260.014C1150.06 262.231 1149.8 266.092 1152.01 268.638C1154.23 271.184 1158.09 271.451 1160.64 269.234Z" fill="#5F71ED"/>
<path d="M605.999 55C609.311 55 612 52.3109 612 48.9977C612 45.6844 609.311 43 605.999 43C602.686 43 600 45.6844 600 48.9977C600 52.3109 602.686 55 605.999 55Z" fill="#5F71ED"/>
<path d="M433.001 342C436.314 342 439 339.313 439 335.998C439 332.684 436.314 330 433.001 330C429.686 330 427 332.684 427 335.998C427 339.313 429.689 342 433.001 342Z" fill="#5F71ED"/>
<path d="M318 183C321.313 183 324 180.312 324 177C324 173.688 321.313 171 318 171C314.684 171 312 173.688 312 177C312 180.312 314.684 183 318 183Z" fill="#5F71ED"/>
<path d="M1289.07 605.152C1292.43 605.152 1295.15 602.429 1295.15 599.074C1295.15 595.718 1292.43 593 1289.07 593C1285.72 593 1283 595.718 1283 599.074C1283 602.429 1285.72 605.152 1289.07 605.152Z" fill="#5F71ED"/>
<path d="M769 739C777.284 739 784 732.284 784 723.995C784 715.716 777.284 709 769 709C760.714 709 754 715.716 754 723.995C753.998 732.284 760.714 739 769 739Z" fill="#5F71ED"/>
<path d="M455.499 389C463.506 389 470 382.732 470 375.001C470 367.27 463.508 361 455.499 361C447.494 361 441 367.27 441 375.001C441 382.732 447.492 389 455.499 389Z" fill="#5F71ED"/>
</g>
<defs>
<clipPath id="clip0">
<rect width="1440" height="768" fill="white"/>
</clipPath>
</defs>
</svg>
