<svg version="1.2" xmlns="http://www.w3.org/2000/svg" viewBox="0 0 752 154" width="752" height="154">
	<title>ieee-svg</title>
	<style>
		tspan { white-space:pre } 
		.s0 { fill: #4bcb5e } 
		.t1 { font-size: 34px;fill: #4bcb5e;font-weight: 400;font-family: "Everett-Regular", "Everett" } 
	</style>
	<path id="Layer" fill-rule="evenodd" class="s0" d="m676.4 49.6c4.7 0.5 10.1 1.4 13 2.2 1 0.3 1 0.5 0 2.1-0.4 0.9-1.3 2.5-1.9 3.7-0.9 1.6-1.3 2.2-1.5 2.2-0.2 0.1-1.4-0.1-2.6-0.5-3.9-0.9-7.9-1.5-13.1-1.9-3.2-0.3-12.9-0.2-16.2 0.1-7.7 0.7-13.7 2-19.6 4.3-1.6 0.6-5.1 2.4-6 3-0.4 0.3-0.8 0.5-0.9 0.5-0.1 0-0.5 0.4-1 0.8-0.5 0.4-1.2 0.9-1.6 1.2-0.8 0.6-2.1 1.9-3.3 3.4-1.7 1.9-3.3 5.3-4 8-1.5 6.1-0.6 12.3 2.7 17.2 1 1.4 3.2 4 3.8 4.4 0.2 0.1 0.5 0.4 0.6 0.6 0.2 0.2 0.5 0.5 0.8 0.6 0.3 0.2 0.6 0.4 0.8 0.6 2.3 1.8 7.8 4.4 12.2 5.7 6.9 2 14 2.9 23.1 2.9 8.9 0 16.5-0.8 23.3-2.4 1.3-0.3 1.6-0.4 1.7-0.2 0.3 0.3 3.1 6.9 3.1 7.3 0 0.2-0.1 0.3-0.7 0.5-4.3 1.2-12.2 2.3-21.1 2.8-3.6 0.3-14.2 0.3-17.5 0-9.4-0.6-16.3-1.8-23.6-4.2-7.9-2.5-14.3-6.2-18.9-10.8-4-4-6.7-9-7.6-14.3-1.2-6.7 0.2-13.6 3.7-18.8 0.5-0.7 1.1-1.5 1.3-1.8 0.8-1.5 4.1-4.8 6.8-6.8 9.9-7.5 25.2-12 44.2-12.9 4.9-0.2 14.4 0 20 0.5zm-20.4 0.4c-5.5 0.3-12.1 1-14.5 1.6-0.4 0.1-0.9 0.2-1.2 0.2-0.2 0-1 0.2-1.7 0.3-0.8 0.2-1.6 0.4-2 0.5-0.7 0-2 0.4-4.3 1.1-0.8 0.2-1.9 0.5-2.3 0.6-0.9 0.3-4.2 1.5-5.9 2.2-1.1 0.5-1.4 0.8-1.2 1.1 0.3 0.2 5.4 0.4 12.4 0.3 4.7 0 5.9 0 6.3 0.2 0.4 0.2 0.6 0.1 1.2-0.1 0.3-0.1 1-0.2 1.5-0.3 0.5-0.1 1.2-0.2 1.6-0.3 3.4-0.8 11.2-1.3 18.6-1.2q11.7 0.2 19.2 2.1c0.7 0.2 1.4 0.3 1.6 0.3 0.3 0 0.9-0.7 1.5-2 0.3-0.5 0.6-1.1 0.7-1.2 0.1-0.1 0.4-0.7 0.8-1.4 0.4-1 0.5-1.2 0.3-1.3-0.5-0.4-6.9-1.6-10.3-1.9-1.1-0.1-2.3-0.2-2.5-0.3-0.3 0-1.8-0.1-3.4-0.3-2.6-0.2-14.1-0.3-16.4-0.2zm-37.7 58.1c-0.5 0-0.7 0-0.9 0.2-0.5 0.6-0.2 0.9 1.7 1.9 1 0.5 2 1.1 2.4 1.2 0.3 0.1 0.8 0.3 1.1 0.5 1.4 0.8 7.7 2.8 11.1 3.5 0.3 0.1 1 0.3 1.5 0.4 2.8 0.6 8.1 1.4 11.3 1.7 4.7 0.4 6.6 0.5 12.4 0.5 9.6 0 18.4-0.7 24.7-1.9 3.5-0.6 3.6-0.7 4.2-0.9 0.7-0.2 0.8-0.5 0.6-1-0.1-0.2-0.4-0.7-0.6-1.1-1.4-3.5-1.6-3.8-2.2-3.8-0.3 0-0.9 0.1-1.4 0.2q-5.2 1.1-12.9 1.8c-3.1 0.3-12.9 0.4-16.1 0.2-3.2-0.2-8-0.8-10.2-1.2-3.7-0.7-6.6-1.3-7.4-1.6-0.7-0.2-1.1-0.3-3.4-0.3-1.4 0-5.5 0-9-0.1-3.4-0.1-6.6-0.1-6.9-0.2z"/>
	<text id="" style="transform: matrix(1,0,0,1,127.326,33.196)" >
	</text>
	<text id="Technically Co-sponsored by:" style="transform: matrix(1,0,0,1,144.161,36.03)" >
		<tspan x="0" y="0" class="t1">T</tspan><tspan  y="0" class="t1">e</tspan><tspan  y="0" class="t1">c</tspan><tspan  y="0" class="t1">h</tspan><tspan  y="0" class="t1">n</tspan><tspan  y="0" class="t1">i</tspan><tspan  y="0" class="t1">c</tspan><tspan  y="0" class="t1">a</tspan><tspan  y="0" class="t1">l</tspan><tspan  y="0" class="t1">l</tspan><tspan  y="0" class="t1">y</tspan><tspan  y="0" class="t1"> </tspan><tspan  y="0" class="t1">C</tspan><tspan  y="0" class="t1">o</tspan><tspan  y="0" class="t1">-</tspan><tspan  y="0" class="t1">s</tspan><tspan  y="0" class="t1">p</tspan><tspan  y="0" class="t1">o</tspan><tspan  y="0" class="t1">n</tspan><tspan  y="0" class="t1">s</tspan><tspan  y="0" class="t1">o</tspan><tspan  y="0" class="t1">r</tspan><tspan  y="0" class="t1">e</tspan><tspan  y="0" class="t1">d</tspan><tspan  y="0" class="t1"> </tspan><tspan  y="0" class="t1">b</tspan><tspan  y="0" class="t1">y</tspan><tspan  y="0" class="t1">:
</tspan>
	</text>
	<text id="" style="transform: matrix(1,0,0,1,492,-94)" >
	</text>
	<text id="" style="transform: matrix(1,0,0,1,545,-90)" >
	</text>
	<text id="" style="transform: matrix(1,0,0,1,572,-160)" >
	</text>
	<path id="Layer" fill-rule="evenodd" class="s0" d="m669 69.6c1.4 0.2 3.8 1 4.8 1.6 1.6 1 2.8 2.8 3.5 4.7 0.2 0.7 0.3 1.3 0.3 2.3 0 3.3-1.6 5.8-4.8 7.3-0.4 0.2-0.8 0.4-0.8 0.5-0.1 0.2 0.9 2.5 1.9 4.6 1.7 3.1 3.9 8.1 3.9 8.3-0.1 0.2-8.1 0.3-8.4 0-0.2-0.2-1.8-3.5-4.1-8.9-0.5-1.1-1-2.2-1.2-2.4-0.3-0.3-0.4-0.3-2.9-0.3-2.2 0-2.5 0-2.7 0.2-0.1 0.2-0.2 1.3-0.2 5.7 0 3.9 0 5.5-0.1 5.6-0.2 0.2-7.3 0.3-7.5 0.1-0.2-0.1-0.3-29.1-0.1-29.3 0.1-0.2 16.8-0.2 18.4 0zm-10.4 5.2c-0.3 0.2-0.3 0.4-0.3 3.8l-0.1 3.5 1.1 0.1c0.6 0.1 2.3 0.1 3.9 0 3.4-0.1 4-0.2 5-1.1 0.9-0.9 1.3-1.7 1.2-3-0.1-0.8-0.1-1.1-0.6-1.6-0.5-0.9-1.6-1.5-2.6-1.7-1.3-0.3-7.3-0.2-7.6 0z"/>
	<path id="Layer" class="s0" d="m682.9 69.5c-0.1 0.1-0.1 6.6-0.1 14.6 0 13.1 0 14.5 0.2 14.7 0.3 0.4 6.9 0.4 7.3 0l0.3-0.2v-5.3c0-5.1 0-5.3 0.3-5.6 0.3-0.2 0.5-0.2 6.3-0.2 5 0 6-0.1 6.1-0.2 0.1-0.2 0.2-1 0.2-2.7 0-2.2 0-2.4-0.3-2.6-0.2-0.1-1.4-0.1-6.2-0.1-5.6 0-6 0-6.2-0.3-0.2-0.2-0.2-6-0.1-6.3 0.1-0.1 1.9-0.1 8-0.2 4.4 0 7.9 0 8-0.1 0-0.1 0.1-1.3 0.1-2.7 0-2.2 0-2.6-0.2-2.7-0.2-0.2-23.6-0.2-23.7-0.1z"/>
	<path id="Layer" class="s0" d="m709.7 69.5c0 0.1 0 6.7 0 14.7 0 14.3 0 14.6 0.2 14.7 0.2 0.1 1.6 0.2 3.7 0.2 3.2 0 3.4-0.1 3.6-0.3 0.3-0.3 0.3-0.5 0.3-14.7 0-11 0-14.4-0.2-14.5-0.1-0.1-1.1-0.2-3.8-0.2-2 0-3.7 0.1-3.8 0.1z"/>
	<path id="Layer" fill-rule="evenodd" class="s0" d="m731.6 69.5c7.6 0 8.2 0.1 10.4 0.7 3.1 1 6 3.2 7.7 6 1.4 2.3 1.9 3.7 2.1 6.6 0.3 2.2 0.1 3.9-0.5 5.8-0.9 2.6-1.5 3.8-3.2 5.7-1.7 1.9-3.3 2.9-5.8 3.7-2.6 0.9-3.3 0.9-10.8 1-6.8 0.1-6.8 0.1-7.1-0.2l-0.3-0.3v-14.4c0-11.3 0.1-14.4 0.2-14.5 0.1-0.2 1.6-0.2 7.3-0.1zm3 5.3c-1.9-0.1-2.1-0.1-2.3 0.2-0.3 0.3-0.3 0.3-0.3 9.2 0 7.8 0 9 0.2 9.1 0.1 0.2 0.8 0.2 2.6 0.1 3.4-0.1 4.4-0.4 6.3-2.1 1.3-1.2 2.3-3.4 2.6-5.9 0.5-3.1-0.8-6.9-2.9-8.8-1-0.8-1.8-1.2-3-1.5-0.6-0.1-2-0.3-3.2-0.3z"/>
	<path id="Layer" class="s0" d="m669 129.6c-1.3 0.4-2.6 1.8-3 3.2-0.5 1.4-0.3 3.4 0.3 4.7 0.6 1.3 1.5 1.9 3.4 2.3 1.7 0.4 3.8-0.1 4.8-1.2 0.6-0.6 1-1.3 1-1.8 0-0.3-0.1-0.4-0.8-0.6-0.4-0.2-1-0.3-1.3-0.4-0.5 0-0.5 0-0.8 0.6q-0.6 1.2-1.8 1.2c-1.3 0-2-0.9-2-2.8q0-2.5 1.5-3c0.7-0.2 1.2 0 2 0.7 0.4 0.3 0.8 0.6 0.9 0.6 0.5 0 2-0.5 2.1-0.7 0.1-0.3-0.5-1.3-1.2-2-1.1-0.9-3.5-1.3-5.1-0.8z"/>
	<path id="Layer" class="s0" d="m624.8 129.8c-0.3 0.3-0.2 9.5 0.1 9.7 0.1 0.1 0.6 0.2 1.3 0.2 1.7 0.1 1.6 0.4 1.6-4.7 0-4.3-0.1-5-0.5-5.2-0.3-0.2-2.4-0.2-2.5 0z"/>
	<path id="Layer" class="s0" d="m630.3 129.8c-0.2 0.2-0.2 9.6 0 9.8 0.3 0.2 7.8 0.2 8.2 0 0.2-0.2 0.2-0.4 0.2-1.1 0-0.4 0-0.9-0.1-0.9 0-0.1-1.1-0.1-2.4-0.1-2.8-0.1-2.9-0.1-3-0.6-0.1-0.5 0.1-1.2 0.3-1.3 0.1-0.1 1.1-0.2 2.4-0.2l2.2-0.1v-0.8c0-0.5 0-0.9-0.1-1-0.1 0-1-0.1-2.4-0.2h-2.2l-0.1-0.5c-0.1-0.3-0.1-0.5 0.1-0.8 0.2-0.3 0.2-0.3 2.6-0.3l2.5-0.1v-0.9-1h-4c-3-0.1-4.1 0-4.2 0.1z"/>
	<path id="Layer" class="s0" d="m640.6 129.8c-0.2 0.2-0.2 9.6 0 9.8 0.2 0.1 1.3 0.1 4.2 0.1 4.6 0 4.4 0.1 4.4-1.2 0-1.1-0.1-1.1-3-1-2.6 0-2.6 0-2.6-1.1 0.1-1 0.1-1 2.5-1 2.6 0 2.6 0 2.4-1.1-0.1-0.9-0.3-1-1.8-0.9-0.6 0.1-1.5 0.1-2.1 0l-1-0.1v-0.6c0-0.9 0.2-1 2.9-1 2.5 0 2.5 0 2.5-1 0-1.1 0.2-1.1-4.2-1.1-2.9 0-4 0.1-4.2 0.2z"/>
	<path id="Layer" class="s0" d="m650.9 129.7c0 0 0 2.2 0 4.9q-0.1 4.8 0.1 5c0.1 0.1 1.1 0.1 4.1 0.1 4.6 0 4.4 0.1 4.4-1.1 0-1.1-0.1-1.2-2.9-1.2-1.6 0-2.3 0-2.5-0.1-0.1-0.1-0.1-0.5-0.1-0.8 0-1.1 0.2-1.1 2.7-1.1 2.3 0 2.2 0 2.2-1.1 0-0.6 0-0.7-0.3-0.8-0.2-0.1-1.3-0.2-2.4-0.2-2.2 0-2.2 0-2.2-0.8 0-0.7 0.3-0.8 2.8-0.8 1.5 0 2.3-0.1 2.4-0.2 0.2-0.1 0.2-1.3 0.1-1.6-0.1-0.2-0.6-0.3-4.2-0.3-2.3 0-4.2 0.1-4.2 0.1z"/>
	<path id="Layer" class="s0" d="m715.6 129.8c-0.2 0.2-0.2 1.2 0 1.5 0.1 0.2 2 0.3 2.4 0.1 0.2-0.1 0.2-0.3 0.2-0.9l-0.1-0.8h-1.1c-0.8-0.1-1.3 0-1.4 0.1z"/>
	<path id="Layer" class="s0" d="m720.4 129.8c-0.1 0.1-0.1 1.3-0.1 4.8v4.7l0.3 0.2c0.3 0.3 1.9 0.3 2.2 0.1 0.2-0.2 0.2-0.6 0.2-5v-4.9h-1.2c-0.8-0.1-1.2 0-1.4 0.1z"/>
	<path id="Layer" fill-rule="evenodd" class="s0" d="m682.9 132.6c1.5 0.6 2.2 1.8 2.2 3.3 0 1.3-0.3 2.1-1.1 2.9-0.8 0.8-1.8 1.2-3.2 1-0.5 0-1.2-0.1-1.5-0.2-1.1-0.3-2.2-1.3-2.4-2.3-0.3-0.8-0.2-2.2 0.1-2.8 0.3-0.8 1.5-1.8 2.4-2 0.9-0.3 2.7-0.3 3.5 0.1zm-2.8 1.9c-0.4 0.3-0.6 0.8-0.6 1.6 0 1.2 0.6 1.9 1.5 1.9 0.7 0 1.2-0.6 1.3-1.6q0.2-1.5-0.7-2c-0.5-0.3-1-0.3-1.5 0.1z"/>
	<path id="Layer" class="s0" d="m700.4 132.4c-0.4 0.2-0.7 0.3-0.8 0.5-0.3 0.3-0.7 0.2-0.9-0.2-0.2-0.3-0.3-0.3-1.2-0.3q-0.9 0-1.1 0.2c-0.2 0.1-0.2 0.8-0.2 3.5 0 3.1 0 3.3 0.3 3.5 0.3 0.2 1.9 0.2 2.3 0 0.1-0.1 0.2-0.6 0.2-2.3l0.1-2.2 0.4-0.4c0.3-0.2 0.5-0.3 0.8-0.2 0.3 0 0.5 0.1 0.6 0.2 0.2 0.2 0.4 1.4 0.3 3.1 0 0.9 0 1.7 0.1 1.8 0.1 0.2 2.1 0.2 2.5 0 0.2-0.1 0.2-0.3 0.2-3-0.1-3.1-0.2-3.5-1.1-4-0.6-0.3-1.7-0.4-2.5-0.2z"/>
	<path id="Layer" class="s0" d="m708.3 132.4c-1 0.3-1.4 0.6-1.9 1.1-0.7 0.8-0.9 1.3-1 2.2-0.1 1.3 0.2 2.3 1.1 3.1 0.8 0.9 1.7 1.1 3.6 1.1 1.6-0.1 2.6-0.5 3.3-1.5 0.8-1 0.7-1.3-0.8-1.4-1-0.1-1.1-0.1-1.5 0.3-1.2 0.9-1.6 0.9-2.4 0.2-0.4-0.4-0.4-0.5-0.4-1.3 0-1 0.2-1.5 0.8-1.8 0.5-0.3 1.2-0.3 1.4 0 0.4 0.5 0.9 0.6 2 0.5 1.1-0.1 1.3-0.2 1-0.9-0.2-0.5-0.8-1-1.6-1.4-0.8-0.3-2.6-0.4-3.6-0.2z"/>
	<path id="Layer" class="s0" d="m686.8 132.5c-0.1 0-0.2 0.7-0.2 2.9 0 2.8 0.1 3 0.4 3.4 0.5 0.8 0.9 1 2.2 1 1 0 1.1 0 1.6-0.4q1-0.6 1.1-0.1c0.1 0.3 0.2 0.3 1.2 0.3h1.1l0.1-1.5c0.1-1.9-0.1-5.1-0.3-5.4-0.1-0.2-0.6-0.3-1.4-0.2-0.9 0-0.9 0.1-1 2.4-0.1 1.9-0.1 2.1-0.4 2.4-0.3 0.4-1.2 0.4-1.5 0.1-0.2-0.2-0.2-0.6-0.3-2.5 0-1.8-0.1-2.2-0.2-2.4-0.3-0.1-2-0.2-2.4 0z"/>
	<path id="Layer" class="s0" d="m715.6 132.7q-0.2 0.2-0.1 3.4c0 3 0 3.3 0.3 3.5 0.3 0.2 2 0.2 2.2 0 0.2-0.1 0.2-1.1 0.2-3.6 0-3 0-3.5-0.2-3.5-0.1-0.1-0.7-0.1-1.3-0.1-0.8 0-1 0-1.1 0.3z"/>
	<path id="Layer" fill-rule="evenodd" class="s0" d="m676.9 143.8c0.9 0.3 1.6 1.1 1.8 2.3 0.2 0.9-0.1 1.6-1.1 2.5l-0.9 0.8 0.6 0.5c0.3 0.4 0.8 1.2 1.3 2.1 0.7 1.3 0.8 1.6 0.6 1.7-0.3 0.2-2.8 0.1-3.1-0.1-0.2-0.1-0.7-0.9-1.2-1.8-0.9-1.7-1.2-2.1-1.7-2.1-0.5 0-0.6 0.4-0.6 2.3 0 0.9-0.1 1.7-0.1 1.7-0.1 0-0.7 0-1.5 0l-1.3 0.1-0.1-0.4c-0.2-0.5-0.2-9.3-0.1-9.5 0.1-0.1 0.2-0.2 0.3-0.2 0.4-0.2 6.5 0 7.1 0.1zm-3.1 1.8c-0.7 0-0.8 0.1-1 0.4-0.3 0.3-0.2 1.3 0.1 1.6 0.3 0.4 2.1 0.2 2.4-0.3 0.2-0.3 0.2-1 0.1-1.2-0.1-0.1-0.3-0.3-0.5-0.3-0.2-0.1-0.7-0.2-1.1-0.2z"/>
	<path id="Layer" class="s0" d="m680.8 143.9c-0.2 0.2-0.2 0.4-0.2 4.8v4.6l0.4 0.3c0.2 0.2 0.5 0.2 1.3 0.2 1.5 0 1.4 0 1.4-2.1q0-1.8 0.2-2 0.2-0.1 1.8-0.1c0.9 0 1.7-0.1 1.8-0.1 0.2-0.1 0.2-0.3 0.2-0.9 0-0.6 0-0.8-0.2-0.9-0.2-0.1-1-0.2-1.9-0.2-1.7 0-1.9 0-1.9-0.9 0-0.7 0.1-0.8 2.5-0.8l2.2-0.1v-0.9c0-0.8 0-1-0.2-1.1-0.1 0-1.8-0.1-3.7-0.1-3.2 0-3.4 0-3.7 0.3z"/>
	<path id="Layer" class="s0" d="m690.6 143.7c-0.2 0.1-0.2 0.5-0.2 4.8 0 5.4-0.1 5.2 1.4 5.3 1.7 0.1 1.6 0.5 1.6-4.9 0-2.6-0.1-4.8-0.1-4.9-0.3-0.4-2.2-0.6-2.7-0.3z"/>
	<path id="Layer" fill-rule="evenodd" class="s0" d="m699.1 143.6c3.3 0.1 4 0.3 4.9 1.3 0.9 1 1.2 2 1.2 4.1 0 1.5-0.1 1.7-0.4 2.4-0.5 1-1.4 1.8-2.4 2.1-0.9 0.2-5.9 0.4-6.3 0.2-0.2-0.2-0.2-0.4-0.2-5 0-4.5 0-4.9 0.2-5q0.2-0.1 3-0.1zm0 2.5c-0.2 0.2-0.3 4.7-0.1 5.1 0.2 0.2 0.3 0.3 1 0.3 1.5 0 2.1-0.7 2.1-2.8 0-1.4-0.2-2-1-2.5-0.5-0.3-1.7-0.4-2-0.1z"/>
	<path id="Layer" fill-rule="evenodd" class="s0" d="m649.2 146.3c3 0 4.6 1.8 4.1 4.7-0.2 0.8-0.3 1-0.9 1.7-0.9 0.9-1.5 1.2-3.2 1.2-1.6 0-2.4-0.3-3.2-1.1-1-1-1.4-3.1-0.7-4.3 0.4-0.9 1.3-1.7 2.2-2 0.3-0.1 1.1-0.2 1.7-0.2zm-0.9 2.3c-0.4 0.4-0.6 1-0.5 2 0.2 1.9 2.5 1.9 2.8 0 0.1-0.8-0.1-1.6-0.5-2.1-0.5-0.4-1.3-0.4-1.8 0.1z"/>
	<path id="Layer" class="s0" d="m659 146.4c-0.1 0.1-0.5 0.3-0.7 0.4-0.4 0.2-0.4 0.2-0.8-0.1-0.3-0.2-0.6-0.3-1.4-0.3-0.9 0-1 0.1-1.2 0.3 0 0.2-0.1 1.5-0.1 3.4 0 1.9 0.1 3.3 0.1 3.5 0.2 0.2 0.3 0.2 1.3 0.2q1.2 0 1.3-0.2c0.1 0 0.2-1.1 0.2-2.2 0.1-2.2 0.2-2.7 0.9-2.8 0.3-0.1 0.9 0.1 1.1 0.4 0 0 0.1 1 0.1 2.2 0 1.2 0 2.2 0.1 2.4 0.1 0.2 0.3 0.2 1.4 0.2 1.1 0 1.2 0 1.4-0.2 0.1-0.4 0.1-4.7 0-5.4q-0.2-1-1-1.5c-0.5-0.4-2-0.5-2.7-0.3z"/>
	<path id="Layer" fill-rule="evenodd" class="s0" d="m527.4 142c0-0.1 0.3-0.6 0.7-1.2 0.4-0.7 0.9-1.4 1-1.7l0.4-0.5-0.2-0.9c-0.2-1.9-0.6-4.9-0.7-5.8-0.1-0.6-0.2-1.1-0.2-1.1 0.1 0 0.2-0.1 0.5-0.1 1.6-0.1 2-0.1 2.1-0.1 0 0.1 0 0.6 0.1 1.3 0.1 1.6 0.2 3.6 0.2 3.6 0 0 0.4-0.6 1.4-2.6 0.6-1.2 1.1-2.1 1.1-2.2 0 0 0.3 0 1.1 0 0.9-0.1 1-0.1 1 0q0 0.1-0.2 0.4c-0.1 0.3-0.5 0.8-0.8 1.4-0.3 0.5-0.8 1.4-1.1 1.9-0.7 1.3-2 3.4-2.3 4.1-0.2 0.3-0.6 1.1-1 1.9-0.4 0.8-0.8 1.5-0.8 1.5-0.1 0.1-0.2 0.1-1.2 0.1-0.8 0-1.1 0-1.1 0zm-155.5-3.4c-0.4-0.1-0.9-0.2-1.3-0.4-0.2 0-0.5-0.2-0.6-0.3-0.2-0.1-0.5-0.3-0.7-0.5-0.1-0.1-0.3-0.4-0.4-0.5-0.1-0.2-0.2-0.4-0.3-0.6-0.1-0.1-0.2-0.5-0.2-0.7-0.1-0.2-0.2-0.6-0.2-0.9 0-0.4 0-0.7 0-1.1 0-0.3 0.1-0.7 0.1-0.9 0.1-0.2 0.2-0.6 0.2-0.8 0.1-0.2 0.3-0.6 0.4-0.8 0.1-0.2 0.3-0.6 0.4-0.8 0.1-0.2 0.4-0.5 0.6-0.7 0.2-0.2 0.5-0.5 0.7-0.6 0.1-0.1 0.5-0.4 0.8-0.5 0.8-0.4 1.6-0.6 2.6-0.6 0.5 0 0.8 0 1.2 0.1 0.2 0 0.6 0.1 0.8 0.2 0.3 0.1 0.9 0.4 1 0.5 0 0 0 0.2-0.3 1-0.2 0.8-0.2 0.9-0.3 0.9 0 0-0.2 0-0.3-0.1-0.1-0.1-0.3-0.2-0.4-0.3-0.2-0.1-0.4-0.2-0.6-0.2-0.4-0.1-0.9-0.1-1.2-0.1-0.2 0-0.5 0.1-0.7 0.2-0.2 0-0.4 0.1-0.5 0.2-0.2 0.1-0.4 0.3-0.6 0.5-0.2 0.1-0.4 0.4-0.5 0.6-0.1 0.2-0.3 0.5-0.4 0.7-0.1 0.2-0.2 0.6-0.3 0.8 0 0.2-0.1 0.5-0.1 0.7 0 0.3 0 0.5 0 0.8 0 0.2 0.1 0.5 0.1 0.7 0.1 0.1 0.2 0.4 0.3 0.5 0.2 0.3 0.4 0.6 0.7 0.7 0.1 0.1 0.3 0.2 0.5 0.2 0.2 0.1 0.3 0.1 0.9 0.1 0.5 0 0.6 0 0.9-0.1 0.2 0 0.4-0.1 0.6-0.2 0.1 0 0.4-0.2 0.5-0.3 0.1 0 0.3-0.1 0.3-0.1q0.1 0 0.1 0c0 0.1-0.1 0.5-0.3 1.1-0.1 0.6-0.3 1-0.3 1.1-0.1 0.1-0.7 0.3-1 0.3-0.5 0.1-1.1 0.2-1.5 0.2-0.2 0-0.5 0-0.7 0zm117.1 0c-0.5-0.1-1.1-0.2-1.5-0.4-0.4-0.1-0.9-0.4-0.9-0.5 0 0 0.1-0.5 0.2-1 0.2-0.7 0.3-0.9 0.3-0.9 0 0 0.2 0.1 0.3 0.2 0.4 0.3 0.9 0.6 1.4 0.7 0.4 0.1 1 0.1 1.4 0 0.1 0 0.3-0.1 0.4-0.1 0.1-0.1 0.3-0.2 0.4-0.3 0.1-0.1 0.2-0.3 0.3-0.4 0.1-0.2 0.1-0.6 0-0.9-0.1-0.1-0.2-0.2-0.2-0.3-0.1-0.1-0.3-0.2-0.4-0.3-0.1 0-0.4-0.2-0.8-0.4-0.3-0.2-0.8-0.5-0.9-0.6-0.2-0.1-0.4-0.3-0.6-0.5-0.1-0.1-0.3-0.3-0.4-0.5 0-0.1-0.1-0.4-0.2-0.5 0-0.2 0-0.4 0-0.7 0-0.3 0-0.5 0-0.8 0.1-0.2 0.2-0.5 0.3-0.7 0.1-0.2 0.3-0.4 0.4-0.6 0.1-0.1 0.3-0.3 0.4-0.4 0.1-0.1 0.3-0.2 0.4-0.3 0.2 0 0.4-0.2 0.6-0.2 0.2-0.1 0.5-0.2 0.7-0.2 0.2-0.1 0.5-0.1 1.1-0.1 0.8 0 1.2 0.1 1.8 0.3 0.4 0.1 1.1 0.4 1.2 0.5 0 0.1 0 0.2-0.3 1-0.2 0.6-0.2 0.9-0.3 0.9 0 0-0.2-0.1-0.3-0.2-0.2-0.1-0.4-0.3-0.6-0.4-0.2-0.1-0.5-0.2-0.7-0.3-0.2 0-0.4 0-0.7 0-0.5 0-0.8 0.1-1.1 0.3-0.1 0.1-0.2 0.3-0.2 0.4-0.1 0.1-0.1 0.2-0.1 0.3-0.1 0.2 0 0.3 0 0.4 0 0.2 0.1 0.3 0.3 0.5 0.2 0.1 0.4 0.3 0.6 0.4 0.2 0.1 0.5 0.3 0.8 0.5 0.2 0.1 0.6 0.3 0.8 0.5 0.2 0.1 0.4 0.3 0.5 0.5 0.1 0.1 0.3 0.3 0.3 0.4 0.2 0.4 0.3 0.7 0.3 1.3 0 0.3 0 0.5-0.1 0.7 0 0.2-0.1 0.5-0.2 0.6-0.1 0.2-0.2 0.4-0.3 0.5-0.1 0.1-0.3 0.4-0.4 0.5-0.1 0.1-0.4 0.3-0.6 0.4-0.1 0.1-0.4 0.3-0.6 0.3-0.2 0.1-0.5 0.2-0.8 0.3-0.3 0-0.6 0.1-1.1 0.1-0.3 0-0.7 0-0.9 0zm-109.4-0.1c-0.2 0-0.5 0-0.6-0.1-0.2 0-0.5-0.1-0.6-0.2-0.2-0.1-0.4-0.2-0.5-0.3-0.2-0.1-0.3-0.3-0.4-0.4-0.1-0.1-0.3-0.3-0.3-0.5-0.1-0.1-0.2-0.4-0.3-0.6 0-0.3-0.1-0.5-0.1-1 0-0.7 0.1-1.1 0.3-1.8 0.1-0.2 0.2-0.5 0.3-0.8 0.1-0.2 0.3-0.5 0.5-0.7 0.1-0.2 0.3-0.4 0.4-0.5 0.2-0.1 0.4-0.3 0.6-0.4 0.1-0.1 0.4-0.3 0.6-0.4 0.2 0 0.5-0.1 0.7-0.2 0.3 0 0.4 0 1.1-0.1 0.6 0 0.8 0.1 1.1 0.1 0.2 0.1 0.5 0.2 0.6 0.2 0.1 0.1 0.4 0.2 0.5 0.3 0.2 0.1 0.4 0.3 0.5 0.4 0.1 0.2 0.3 0.4 0.4 0.6 0.1 0.2 0.2 0.5 0.2 0.7 0.1 0.4 0.1 1.2 0 1.7 0 0.5-0.2 1.2-0.4 1.6-0.1 0.2-0.2 0.5-0.4 0.7-0.1 0.2-0.3 0.4-0.4 0.6-0.2 0.1-0.4 0.3-0.5 0.4-0.2 0.1-0.5 0.3-0.6 0.4-0.2 0-0.5 0.2-0.7 0.2-0.4 0.1-1 0.2-1.4 0.2-0.2 0-0.4-0.1-0.6-0.1zm1.1-1.5c0.2-0.1 0.5-0.3 0.7-0.5 0.1-0.2 0.2-0.4 0.3-0.5 0.3-0.6 0.6-1.6 0.6-2.4 0-0.4 0-0.5 0-0.7-0.1-0.2-0.2-0.4-0.2-0.4-0.1-0.1-0.2-0.2-0.3-0.3-0.1 0-0.2-0.1-0.3-0.1-0.1 0-0.3 0-0.4 0-0.1 0-0.3 0-0.5 0.1-0.1 0.1-0.3 0.2-0.4 0.3-0.1 0.1-0.2 0.3-0.3 0.4-0.1 0.2-0.3 0.7-0.4 1.2-0.1 0.2-0.2 0.6-0.2 0.8 0 0.2-0.1 0.6-0.1 0.8 0 0.3 0.1 0.5 0.1 0.6q0.1 0.4 0.4 0.6c0.2 0.1 0.6 0.2 0.7 0.1 0.1 0 0.2 0 0.3 0zm55.4 1.5q-0.5 0-1-0.2c-0.1-0.1-0.4-0.2-0.5-0.3-0.2-0.1-0.4-0.3-0.5-0.5-0.2-0.1-0.3-0.4-0.4-0.6-0.1-0.1-0.3-0.4-0.3-0.6-0.1-0.4-0.2-1.1-0.1-1.5q0-0.7 0.2-1.3c0.1-0.1 0.2-0.4 0.3-0.6 0.1-0.2 0.3-0.5 0.4-0.7 0.1-0.2 0.4-0.4 0.5-0.6 0.2-0.1 0.4-0.3 0.6-0.4 0.2-0.1 0.5-0.3 0.7-0.4 0.1 0 0.4-0.1 0.6-0.2 0.3 0 0.5 0 1.1 0 0.6 0 0.8 0 1.2 0 0.4 0.1 0.9 0.3 1 0.5q0.1 0.1 0.1 0.1c0 0.1-0.1 0.4-0.2 0.9-0.2 0.6-0.3 0.8-0.3 0.8q-0.1 0-0.3-0.2c-0.1-0.1-0.5-0.4-0.7-0.4-0.5-0.1-0.9-0.1-1.4 0.1-0.1 0.1-0.4 0.2-0.5 0.3-0.1 0.1-0.3 0.4-0.4 0.5-0.1 0.2-0.2 0.5-0.3 0.7-0.1 0.4-0.1 0.5-0.1 1 0 0.5 0 0.6 0 0.8 0.1 0.2 0.2 0.4 0.3 0.5 0 0.1 0.2 0.3 0.3 0.3 0.1 0.1 0.3 0.2 0.5 0.3 0.2 0 0.7 0.1 1 0 0.3-0.1 0.6-0.2 0.8-0.4 0.2-0.1 0.2-0.1 0.3-0.1 0 0.1 0 0.1-0.2 0.9l-0.2 0.9-0.2 0.1c-0.1 0.1-0.3 0.2-0.5 0.2-0.3 0.1-1 0.2-1.3 0.2-0.1 0-0.4-0.1-0.5-0.1zm24.9 0c-0.2 0-0.5 0-0.7-0.1-0.2 0-0.5-0.1-0.6-0.2-0.3-0.2-0.5-0.3-0.7-0.5-0.2-0.3-0.3-0.4-0.5-0.7-0.1-0.1-0.2-0.4-0.2-0.6-0.1-0.3-0.1-0.5-0.1-1 0-0.6 0-0.8 0.1-1.2 0.1-0.5 0.3-1 0.5-1.3 0.2-0.5 0.5-0.9 0.9-1.3 0.1-0.1 0.4-0.4 0.6-0.5 0.1-0.1 0.4-0.2 0.6-0.3 0.1 0 0.4-0.1 0.6-0.2 0.2 0 0.6 0 0.9-0.1q0.8 0 1.5 0.2c0.3 0.1 0.9 0.4 1.2 0.6 0.1 0.1 0.3 0.2 0.4 0.3 0.1 0.2 0.2 0.4 0.3 0.5 0 0.2 0.1 0.4 0.2 0.6 0 0.2 0 0.5 0.1 1 0 0.5-0.1 0.8-0.1 1.1-0.1 0.3-0.2 0.6-0.2 0.8-0.1 0.2-0.2 0.4-0.3 0.6-0.1 0.2-0.2 0.5-0.3 0.6-0.2 0.2-0.4 0.5-0.6 0.7-0.1 0.1-0.4 0.3-0.6 0.5-0.2 0.1-0.5 0.2-0.7 0.3-0.1 0.1-0.5 0.1-0.6 0.2-0.5 0-1.3 0.1-1.7 0zm1.2-1.6c0.2-0.1 0.3-0.2 0.5-0.4 0.2-0.1 0.3-0.3 0.4-0.6 0.3-0.6 0.5-1.3 0.6-2.1 0-0.3 0-0.5 0-0.7-0.1-0.2-0.1-0.4-0.2-0.5 0 0-0.1-0.2-0.1-0.2-0.1-0.1-0.3-0.2-0.3-0.3-0.2 0-0.6-0.1-0.9 0-0.1 0-0.2 0.1-0.3 0.2-0.1 0-0.3 0.2-0.4 0.3-0.1 0.1-0.2 0.3-0.3 0.5-0.1 0.2-0.2 0.5-0.3 0.7-0.2 0.7-0.3 1.7-0.3 2.1 0 0.2 0 0.3 0.1 0.4 0 0.1 0.1 0.3 0.2 0.4 0 0.1 0.2 0.2 0.3 0.2 0.1 0.1 0.4 0.2 0.6 0.1 0.1 0 0.3 0 0.4-0.1zm14.9 1.6c-0.4 0-0.9-0.1-1.2-0.3-0.1 0-0.3-0.1-0.5-0.2-0.2-0.1-0.2-0.2-0.2-0.3 0 0 0.1-0.4 0.2-0.8 0.1-0.4 0.2-0.7 0.3-0.7 0-0.1 0.1 0 0.3 0.2 0.2 0.1 0.4 0.3 0.6 0.4 0.1 0.1 0.4 0.2 0.6 0.2 0.2 0.1 0.4 0.1 0.7 0.1 0.3-0.1 0.4-0.1 0.6-0.2 0.1 0 0.3-0.1 0.3-0.2 0.1-0.1 0.1-0.2 0.2-0.3 0-0.2 0-0.2-0.1-0.4 0-0.1-0.1-0.2-0.2-0.3-0.1-0.1-0.4-0.3-0.7-0.5-0.3-0.1-0.7-0.3-0.9-0.4-0.2-0.1-0.4-0.3-0.5-0.4 0-0.1-0.2-0.3-0.2-0.4q-0.2-0.3-0.2-0.6c0-0.3 0-0.4 0-0.7q0.1-0.4 0.3-0.7c0.1-0.3 0.2-0.4 0.4-0.6 0.2-0.2 0.4-0.4 0.6-0.5 0.1-0.1 0.4-0.2 0.6-0.2 0.2-0.1 0.6-0.2 0.9-0.2 0.4 0 0.6 0 1 0 0.2 0 0.6 0.1 0.9 0.2 0.2 0 0.5 0.1 0.7 0.2 0.3 0.1 0.4 0.2 0.4 0.3 0 0-0.1 0.3-0.2 0.6-0.1 0.3-0.2 0.6-0.2 0.7 0 0.2 0 0.3-0.1 0.3 0 0-0.2-0.1-0.3-0.3-0.1-0.1-0.3-0.2-0.5-0.3-0.1-0.1-0.3-0.2-0.5-0.2-0.1 0-0.4-0.1-0.5-0.1-0.2 0-0.4 0.1-0.5 0.1-0.1 0-0.3 0.1-0.4 0.2 0 0-0.1 0.2-0.2 0.3 0 0.1-0.1 0.2 0 0.3 0 0.1 0.1 0.2 0.2 0.3 0.1 0.2 0.4 0.3 0.8 0.5 0.3 0.2 0.7 0.4 0.9 0.5 0.1 0.1 0.3 0.3 0.4 0.4 0.2 0.1 0.3 0.3 0.4 0.5 0 0.1 0.1 0.3 0.1 0.5q0.1 0.7-0.2 1.5-0.2 0.3-0.4 0.6c-0.4 0.4-0.8 0.6-1.4 0.8-0.4 0.1-1 0.2-1.5 0.2-0.3 0-0.7-0.1-0.8-0.1zm20.6 0c-0.2 0-0.4 0-0.6-0.1-0.2 0-0.5-0.2-0.7-0.2-0.3-0.2-0.4-0.3-0.6-0.5-0.3-0.3-0.4-0.4-0.5-0.7-0.1-0.2-0.2-0.4-0.3-0.6 0-0.2 0-0.4 0-1 0-0.5 0-0.8 0-1.1 0.1-0.2 0.2-0.5 0.2-0.7 0.1-0.2 0.2-0.5 0.3-0.8 0.1-0.2 0.3-0.5 0.5-0.6 0.1-0.2 0.3-0.5 0.4-0.6 0.2-0.1 0.4-0.3 0.5-0.4 0.2-0.1 0.4-0.2 0.6-0.3 0.1-0.1 0.4-0.2 0.6-0.2 0.1-0.1 0.4-0.1 0.6-0.1 0.5-0.1 1.3-0.1 1.8 0 0.1 0.1 0.4 0.2 0.6 0.2 0.1 0.1 0.4 0.2 0.5 0.3 0.2 0.1 0.4 0.3 0.5 0.4 0.1 0.1 0.3 0.3 0.3 0.5 0.1 0.1 0.2 0.3 0.3 0.5 0 0.1 0.1 0.4 0.1 0.5 0.1 0.5 0 1.4-0.1 1.9-0.1 0.3-0.1 0.6-0.2 0.7-0.1 0.4-0.4 0.9-0.6 1.2-0.1 0.2-0.3 0.4-0.4 0.6-0.2 0.1-0.4 0.3-0.6 0.5-0.4 0.2-0.9 0.4-1.3 0.5-0.3 0.1-1 0.2-1.3 0.2-0.1 0-0.4-0.1-0.6-0.1zm1.1-1.5c0.1 0 0.2-0.1 0.3-0.2 0.2-0.1 0.6-0.5 0.7-0.8 0.2-0.3 0.4-0.9 0.5-1.4 0-0.2 0.1-0.6 0.1-0.8 0-0.3 0-0.5 0-0.7 0-0.2-0.1-0.3-0.1-0.4q-0.1-0.4-0.4-0.5c-0.2-0.1-0.3-0.1-0.5-0.1-0.2 0-0.4 0-0.5 0-0.1 0.1-0.3 0.2-0.3 0.2-0.1 0.1-0.3 0.2-0.4 0.3-0.3 0.4-0.5 1-0.7 1.8 0 0.3-0.1 0.7-0.1 0.9-0.1 0.2-0.1 0.5-0.1 0.6 0.1 0.2 0.1 0.3 0.1 0.4 0.1 0.1 0.1 0.3 0.2 0.3 0.1 0.1 0.2 0.2 0.3 0.3 0.2 0.1 0.5 0.2 0.7 0.1 0 0 0.1 0 0.2 0zm7.8 1.5c-0.2 0-0.4 0-0.6-0.1-0.1 0-0.4-0.1-0.6-0.2-0.3-0.2-0.4-0.3-0.7-0.6-0.3-0.2-0.4-0.4-0.5-0.6-0.1-0.2-0.2-0.4-0.2-0.5-0.2-0.6-0.3-1.4-0.2-2.1q0.1-0.6 0.4-1.2c0-0.2 0.2-0.5 0.3-0.7 0.1-0.2 0.4-0.5 0.6-0.7q0.4-0.4 0.7-0.6c0.2-0.1 0.5-0.3 0.7-0.4 0.1 0 0.4-0.1 0.6-0.2 0.3 0 0.5 0 1.1 0 0.6 0 0.8 0 1.1 0q0.5 0.1 0.8 0.3c0.3 0.2 0.4 0.2 0.4 0.3 0 0-0.1 0.4-0.2 0.9-0.2 0.4-0.3 0.8-0.3 0.8-0.1 0-0.2 0-0.3-0.2-0.2-0.2-0.3-0.3-0.5-0.3-0.1-0.1-0.4-0.1-0.5-0.2-0.3 0-0.6 0-0.9 0.1-0.1 0.1-0.3 0.2-0.4 0.2-0.1 0.1-0.3 0.3-0.4 0.4q-0.3 0.3-0.4 0.6c-0.1 0.2-0.2 0.5-0.3 0.7-0.1 0.4-0.1 0.8 0 1.2 0 0.1 0.1 0.4 0.1 0.5 0.1 0.2 0.2 0.4 0.3 0.5 0.1 0.1 0.3 0.2 0.4 0.3 0.2 0 0.4 0.1 0.5 0.1 0.3 0.1 0.7 0 1.1-0.1 0.1-0.1 0.3-0.2 0.5-0.3 0.1-0.1 0.2-0.1 0.3-0.1q0 0 0 0.1c0 0.1-0.4 1.6-0.4 1.7-0.1 0.1-0.5 0.3-0.9 0.4-0.5 0-1.2 0.1-1.6 0zm11.2 0c-0.4 0-0.7-0.1-1-0.2-0.1 0-0.3-0.1-0.5-0.2q-0.3-0.2-0.6-0.4c-0.1-0.2-0.3-0.4-0.4-0.5-0.1-0.1-0.2-0.4-0.2-0.5-0.1-0.1-0.1-0.4-0.2-0.6 0-0.2 0-0.5 0-0.8 0-0.2 0-0.5 0-0.8 0.1-0.2 0.1-0.6 0.2-0.8 0.1-0.4 0.4-1 0.6-1.4 0.1-0.1 0.3-0.4 0.5-0.5 0.2-0.2 0.4-0.4 0.5-0.5 0.3-0.2 0.8-0.5 1.1-0.6 0.2 0 0.4-0.1 0.7-0.1 0.2-0.1 0.5-0.1 0.9-0.1 0.3 0.1 0.7 0.1 0.9 0.1 0.2 0.1 0.5 0.2 0.6 0.3q0.7 0.3 1 0.9c0 0.2 0.1 0.5 0.2 0.7 0 0.2 0 0.4 0 0.9 0 0.4 0 0.8-0.1 1 0 0.3-0.1 0.5-0.1 0.5 0 0.1-0.8 0.1-2.3 0.1q-2.3 0-2.4 0.1c0 0 0 0.2 0 0.4 0 0.3 0 0.4 0.1 0.6 0 0.1 0.2 0.3 0.3 0.4 0.3 0.3 0.7 0.4 1.4 0.4 0.3 0 0.5-0.1 0.8-0.1 0.1-0.1 0.5-0.2 0.6-0.2 0.2-0.1 0.5-0.2 0.7-0.3 0.1-0.2 0.3-0.2 0.3-0.2q0.1 0 0.1 0.1c0 0-0.1 0.2-0.2 0.5 0 0.3-0.1 0.6-0.2 0.8 0 0.2-0.1 0.4-0.1 0.5-0.1 0.1-0.7 0.4-1.3 0.5-0.5 0-1.5 0.1-1.9 0zm1.7-4.9h0.5l0.1-0.2c0-0.1 0-0.3 0-0.4q0-0.3 0-0.5c-0.1-0.1-0.2-0.2-0.3-0.3-0.2-0.2-0.5-0.3-0.8-0.2-0.1 0-0.3 0-0.4 0.1q-0.8 0.4-1.1 1.4l-0.1 0.1h0.8c0.4 0 1 0 1.3 0zm-106.6 4.9q-0.4-0.1-0.7-0.4c-0.1 0-0.2-0.2-0.3-0.3-0.1-0.2-0.2-0.4-0.3-0.5 0-0.2 0-0.4 0-0.8 0-0.6 0-0.9 0.5-2.9 0.2-0.6 0.4-1.5 0.5-2 0-0.4 0.1-0.8 0.2-0.8 0 0 0.5-0.1 1.1-0.1 0.9 0 1.2 0 1.2 0q0.1 0 0 0.2c0 0.1-0.2 1-0.4 2-0.3 1-0.5 2.1-0.6 2.3 0 0.3 0 0.6 0 0.7 0 0.2 0 0.3 0.1 0.4 0 0.2 0.3 0.4 0.6 0.4 0 0 0.2 0 0.3 0 0.3 0 0.8-0.3 0.9-0.4 0.1-0.1 0.2-0.2 0.5-1.5 0.1-0.7 0.4-1.9 0.5-2.6 0.1-0.8 0.3-1.4 0.3-1.4 0 0 0.3-0.1 1.2-0.1 1 0 1.2-0.1 1.2 0 0.1 0 0 0.4-0.3 1.7-0.5 2.2-0.8 3.2-1.1 4.7-0.1 0.7-0.2 1.2-0.2 1.2-0.1 0.1-0.6 0.1-1.2 0.1q-1.2 0-1.2 0c0 0 0-0.2 0.1-0.4 0-0.2 0-0.3 0-0.3 0 0-0.1 0-0.2 0.1-0.2 0.1-0.4 0.3-0.5 0.3-0.2 0.1-0.4 0.2-0.6 0.3-0.3 0.1-0.4 0.1-0.8 0.1q-0.6 0-0.8 0zm28.9 0c-0.4-0.1-0.7-0.3-1-0.6-0.1-0.1-0.3-0.4-0.4-0.5-0.1-0.2-0.2-0.5-0.2-0.6-0.1-0.2-0.1-0.5-0.1-0.9 0-0.4 0-0.7 0-1 0.1-0.2 0.1-0.6 0.2-0.8 0.1-0.2 0.2-0.6 0.3-0.8 0.1-0.2 0.3-0.5 0.4-0.6 0.1-0.2 0.3-0.5 0.5-0.7 0.2-0.1 0.5-0.4 0.6-0.5 0.2-0.1 0.4-0.2 0.7-0.3 0.2-0.1 0.5-0.2 0.8-0.3 0.2-0.1 0.6-0.1 0.9-0.2 0.2 0 1.1 0 2.1 0 1.4 0 1.7 0 1.8 0 0 0.1-0.2 0.8-0.4 1.6-0.6 2.8-1 4.2-1.1 5.5-0.1 0.2-0.1 0.5-0.2 0.5 0 0.1-0.2 0.1-1.1 0.1q-1.1 0-1.1 0c-0.1 0-0.1-0.2 0-0.3 0-0.1 0-0.3 0-0.3q0 0-0.2 0.1c-0.2 0.1-0.3 0.2-0.4 0.3-0.1 0-0.4 0.1-0.6 0.2-0.2 0.1-0.4 0.1-0.8 0.1q-0.4 0-0.7 0zm2.5-1.8c0.1 0 0.3-0.1 0.3-0.2 0.1-0.1 0.2-0.2 0.6-2.1 0.3-1.1 0.5-2.1 0.5-2.1 0 0-0.2 0-0.5 0-0.2 0-0.5 0-0.6 0-0.1 0.1-0.3 0.1-0.5 0.2-0.1 0.1-0.3 0.2-0.5 0.4-0.1 0.1-0.3 0.3-0.4 0.5-0.1 0.2-0.3 0.4-0.3 0.6-0.2 0.5-0.3 1-0.3 1.4q0 0.6 0.1 0.9c0.1 0.1 0.1 0.2 0.2 0.3q0.2 0.2 0.5 0.3c0 0 0.2 0 0.3 0 0.3 0 0.4-0.1 0.6-0.2zm6.2 1.8c-0.6-0.1-1-0.3-1.2-0.7-0.1-0.1-0.2-0.3-0.2-0.4-0.1-0.2-0.1-0.4-0.1-0.6 0-0.1 0-0.5 0.1-0.7 0-0.3 0.2-1.2 0.4-2.1 0.2-0.9 0.4-1.6 0.4-1.6 0-0.1-0.1-0.1-0.5-0.1-0.4 0-0.5 0-0.5 0 0-0.1 0-0.3 0.1-0.8 0.2-0.4 0.3-0.7 0.3-0.8 0 0 0.2 0 0.5 0h0.5l0.1-0.4c0-0.2 0.1-0.6 0.2-0.9 0.1-0.3 0.2-0.6 0.2-0.6 0-0.1 0.3-0.2 0.7-0.2 0.3-0.1 0.9-0.3 1.2-0.3 0.3-0.1 0.5-0.2 0.5-0.2q0.1 0.1 0 0.2c0 0.1-0.1 0.7-0.3 1.3-0.1 0.6-0.2 1.1-0.2 1.1 0 0 0.1 0 0.7 0 0.6 0 0.8 0 0.8 0 0 0.1-0.1 0.2-0.1 0.4-0.1 0.2-0.2 0.5-0.3 0.8 0 0.2-0.1 0.4-0.1 0.4-0.1 0-0.4 0-0.8 0h-0.6l-0.3 1.4c-0.5 1.9-0.6 2.1-0.6 2.5 0 0.2 0 0.3 0.1 0.4 0 0 0.1 0.1 0.2 0.2 0.1 0 0.2 0 0.3 0.1q0.2 0 0.6-0.1c0.2-0.1 0.4-0.1 0.4-0.1 0 0-0.1 0.4-0.2 0.8-0.2 0.7-0.3 0.8-0.3 0.9-0.1 0-0.3 0-0.6 0.1-0.4 0-1 0-1.4 0zm74.2 0c-0.3 0-0.6-0.1-0.7-0.2-0.2 0-0.3-0.2-0.4-0.3-0.1-0.1-0.3-0.2-0.3-0.3-0.1-0.1-0.1-0.3-0.2-0.5q0-0.5 0.1-1.2c0-0.2 0.2-1.1 0.4-2 0.3-0.8 0.4-1.6 0.4-1.6 0-0.1 0-0.1-0.5-0.1-0.5 0-0.5 0-0.5-0.1 0-0.1 0.4-1.4 0.4-1.5 0.1 0 0.3 0 0.6 0h0.4l0.1-0.2c0 0 0.1-0.5 0.2-0.9 0.1-0.5 0.2-0.8 0.2-0.8 0-0.1 0.4-0.2 0.8-0.3 0.4-0.1 0.9-0.2 1.2-0.3 0.2 0 0.4-0.1 0.5-0.1q0 0 0 0.2c0 0-0.2 0.6-0.3 1.2-0.2 0.7-0.3 1.2-0.3 1.2 0 0 0.3 0 0.7 0 0.6 0 0.8 0 0.8 0 0 0.1-0.1 0.3-0.1 0.5-0.1 0.3-0.2 0.6-0.3 0.7 0 0.2-0.1 0.4-0.1 0.4 0 0-0.3 0-0.7 0-0.6 0-0.7 0-0.7 0.1 0 0-0.2 0.8-0.4 1.7-0.2 0.8-0.4 1.7-0.4 1.9-0.1 0.1-0.1 0.3-0.1 0.4 0.1 0.1 0.1 0.2 0.2 0.3 0.1 0.1 0.3 0.2 0.6 0.2 0 0 0.2-0.1 0.4-0.1 0.2-0.1 0.4-0.1 0.4-0.1 0 0.1-0.4 1.5-0.5 1.6-0.1 0.1-0.8 0.2-1.3 0.2-0.3 0-0.5 0-0.6 0zm-186.5-0.1c0 0 0.2-0.9 0.4-1.9 0.8-3.3 1.3-5.3 1.7-7.4 0.1-0.5 0.2-0.9 0.2-0.9 0.1 0 1-0.1 3.2-0.1 2.5 0 3.2 0 3.2 0 0 0.1-0.4 1.7-0.5 1.7 0 0.1-0.5 0.1-1.9 0.1h-1.8l-0.3 1.1c-0.1 0.6-0.2 1.1-0.2 1.2 0 0 0 0 1.7 0 1.7 0 1.8 0 1.8 0.1 0.1 0.1-0.4 1.6-0.4 1.6-0.1 0-0.9 0-1.8 0-0.9 0-1.7 0.1-1.7 0.1 0 0-0.6 2.4-0.6 2.5 0 0 0.9 0 2.1 0 1.1 0 2 0 2 0 0 0-0.1 0.4-0.2 0.9l-0.3 0.9-2.8 0.1c-1.5 0-3 0-3.3 0q-0.5 0-0.5 0zm8.5 0c-0.1-0.1 0-0.4 0.1-0.9 0.5-1.9 1.1-4.5 1.3-5.5 0.2-0.6 0.4-1.7 0.5-2.5 0.2-0.7 0.3-1.3 0.4-1.3 0-0.1 6.3-0.1 6.3-0.1 0 0-0.1 0.4-0.2 0.9-0.1 0.4-0.2 0.8-0.3 0.8 0 0.1-0.4 0.1-1.8 0.1h-1.9l-0.2 0.9c-0.1 0.5-0.2 1-0.3 1.2v0.2h1.8c1.5 0 1.8 0 1.8 0.1 0 0-0.4 1.6-0.5 1.6 0 0-0.8 0-1.8 0-0.9 0-1.7 0.1-1.7 0.1 0 0-0.1 0.5-0.3 1.2-0.1 0.7-0.3 1.2-0.3 1.3 0 0 0.5 0 2.1 0 1.1 0 2.1 0 2.1 0 0 0-0.5 1.7-0.6 1.8 0 0.1-0.4 0.1-1.8 0.1-1 0-2.5 0-3.3 0-1.1 0-1.4 0-1.4 0zm8.4 0c0-0.1 0.1-0.5 0.2-1 1-4 1.4-5.8 1.8-7.9 0.1-0.7 0.3-1.3 0.3-1.3 0-0.1 6.3-0.1 6.3-0.1 0.1 0 0 0.4-0.2 0.8-0.1 0.5-0.2 0.8-0.2 0.9l-0.1 0.1h-1.8c-1 0-1.8 0-1.8 0-0.1 0-0.2 0.5-0.3 1.1-0.1 0.6-0.3 1.1-0.3 1.1v0.1h1.8c1.5 0 1.8 0 1.8 0.1 0 0-0.4 1.5-0.5 1.6 0 0-0.4 0-1.7 0h-1.8l-0.1 0.8c-0.1 0.4-0.3 0.9-0.3 1.2l-0.2 0.6h2.1c2 0 2.1 0 2.1 0 0 0.1-0.5 1.8-0.5 1.8-0.1 0.1-0.5 0.1-1.9 0.1-1 0-2.4 0-3.2 0-1.3 0-1.5 0-1.5 0zm30.1 0c-0.1 0 0.1-0.5 0.3-1.4 0.6-2.6 0.9-3.9 1.1-5.2 0-0.3 0.1-0.7 0.1-0.7q0-0.2 0.1-0.2c0 0 0.4-0.1 0.7-0.1 0.4-0.1 1-0.2 1.2-0.2 0.3-0.1 0.5-0.1 0.6-0.1 0 0.1 0 0.2-0.1 0.5 0 0.2-0.1 0.4-0.1 0.4 0.1 0 0.2-0.1 0.3-0.2 0.2-0.1 0.4-0.2 0.5-0.3 0.4-0.1 0.7-0.3 1.1-0.3 0.2-0.1 0.5-0.1 0.6-0.1 0.2 0.1 0.4 0.1 0.6 0.2q0.2 0 0.4 0.3c0.1 0.1 0.3 0.2 0.3 0.4q0.1 0.1 0.2 0.1c0 0 0.2-0.1 0.3-0.2 0.6-0.4 1.2-0.6 1.7-0.7 0.1-0.1 0.4-0.1 0.5-0.1 0.2 0 0.4 0.1 0.6 0.1 0.1 0 0.3 0.1 0.5 0.2 0.1 0 0.2 0.1 0.3 0.2 0.1 0.1 0.2 0.2 0.3 0.3 0.1 0.2 0.2 0.4 0.2 0.5 0.1 0.2 0.1 0.4 0.1 0.8-0.1 0.3-0.1 0.6-0.3 1.6-0.2 0.7-0.4 1.8-0.6 2.7-0.2 1.3-0.3 1.4-0.4 1.5 0 0-0.6 0-1.2 0-0.8 0-1.1 0-1.2 0q0-0.1 0.4-1.9c0.5-2 0.7-3.1 0.7-3.3 0-0.1 0-0.3 0-0.4 0 0-0.1-0.2-0.2-0.2-0.1-0.1-0.2-0.2-0.3-0.2 0 0-0.2 0-0.2 0-0.1 0-0.3 0-0.4 0-0.3 0.1-0.7 0.4-0.8 0.5 0 0 0 0.1 0 0.3-0.1 0.3-0.2 1.1-0.4 2-0.1 0.4-0.3 1.2-0.4 1.9-0.2 0.7-0.3 1.2-0.3 1.2 0 0.1-0.6 0.1-1.2 0.1-0.8 0-1.2 0-1.2 0q-0.1-0.1 0-0.2c0-0.1 0.2-0.8 0.3-1.6 0.5-1.9 0.7-3.1 0.7-3.4 0-0.2 0-0.3-0.1-0.5 0-0.1-0.1-0.2-0.2-0.3-0.2 0-0.3 0-0.5 0q-0.2 0-0.5 0.1c-0.1 0.1-0.3 0.2-0.4 0.2-0.1 0.2-0.1 0.2-0.4 1.5-0.1 0.7-0.4 1.9-0.5 2.7-0.2 0.8-0.4 1.4-0.4 1.4 0 0.1-0.1 0.1-0.2 0.1-0.2 0-0.7 0-1.2 0-0.7 0-1 0-1 0zm12.9 0c0-0.1 0.2-0.8 0.4-1.6 0.2-0.8 0.4-1.7 0.5-2.1q0.3-1.5 0.5-2.9c0.1-0.4 0.2-0.8 0.2-0.9 0 0 0.3 0 0.6-0.1 0.6-0.1 1.5-0.2 1.8-0.3q0.1 0 0.1 0.1c0 0 0 0.2 0 0.4-0.1 0.2-0.1 0.4-0.1 0.4 0 0 0.1-0.1 0.3-0.2 0.1-0.1 0.4-0.2 0.5-0.3 0.3-0.1 0.7-0.3 1.1-0.3 0.1-0.1 0.4-0.1 0.6-0.1 0.2 0.1 0.4 0.1 0.5 0.1 0.2 0.1 0.3 0.2 0.4 0.3 0.1 0.1 0.3 0.3 0.3 0.4l0.2 0.2 0.4-0.2c0.2-0.2 0.5-0.4 0.7-0.4 0.2-0.1 0.4-0.2 0.6-0.3 0.4-0.1 1-0.1 1.3 0 0.2 0 0.4 0.1 0.6 0.2 0.2 0 0.4 0.2 0.4 0.2 0.1 0.1 0.3 0.3 0.3 0.4 0.1 0.1 0.1 0.3 0.2 0.4 0 0.1 0 0.4 0 0.6 0 0.2 0 0.5 0 0.7-0.1 0.1-0.2 0.7-0.3 1.3-0.1 0.5-0.4 1.6-0.5 2.4-0.3 1.4-0.3 1.5-0.4 1.6 0 0-0.6 0-1.2 0-0.9 0-1.2 0-1.2 0 0-0.1 0.1-0.7 0.4-1.9 0.2-1.1 0.5-2.2 0.6-2.6 0-0.3 0.1-0.7 0.1-0.8 0-0.1 0-0.2-0.1-0.3 0-0.1-0.1-0.2-0.2-0.3 0 0-0.1-0.1-0.2-0.1-0.1 0-0.2 0-0.3 0-0.1 0-0.2 0-0.4 0-0.2 0.1-0.3 0.2-0.7 0.4 0 0-0.1 0.3-0.1 0.6-0.1 0.4-0.2 1-0.3 1.5-0.1 0.4-0.3 1.4-0.4 2.1-0.2 0.7-0.3 1.3-0.3 1.3 0 0.1-0.6 0.1-1.2 0.1q-1.2 0-1.3 0c0 0 0.1-0.4 0.2-0.9 0.4-1.5 0.7-3 0.8-3.6 0-0.3 0.1-0.6 0.1-0.8q0-0.2-0.1-0.4c-0.1-0.1-0.1-0.2-0.3-0.3-0.1 0-0.2 0-0.4 0q-0.3 0-0.5 0.1c-0.2 0.1-0.3 0.2-0.4 0.2-0.1 0.2-0.1 0.2-0.4 1.4-0.2 0.7-0.4 2-0.6 2.8-0.1 0.8-0.3 1.4-0.3 1.4 0 0.1-1 0.1-1.9 0.1-0.4 0-0.6 0-0.6 0zm21.7 0c0-0.1 0.2-0.8 0.4-1.8 0.6-2.6 0.8-3.5 1-4.8 0.1-0.5 0.1-0.8 0.2-0.9 0 0 0.3 0 0.7-0.1 0.4-0.1 0.9-0.2 1.2-0.2 0.4-0.1 0.5-0.1 0.6-0.1 0 0.1 0 0.1-0.1 0.5 0 0.3 0 0.3 0 0.3 0 0 0.2-0.1 0.3-0.2 0.2-0.1 0.4-0.2 0.6-0.3 0.2-0.1 0.5-0.2 0.6-0.2 0.3-0.1 0.5-0.1 0.8-0.1 0.4 0.1 0.6 0.1 0.8 0.1 0.3 0.2 0.6 0.4 0.8 0.7 0.1 0.1 0.2 0.3 0.2 0.5 0.1 0.3 0.1 1 0 1.6-0.1 0.3-0.2 0.9-0.3 1.4-0.1 0.5-0.3 1.5-0.5 2.2-0.1 0.7-0.2 1.3-0.3 1.3 0 0.1-0.3 0.1-1.2 0.1-0.8 0-1.2 0-1.2 0 0 0 0.1-0.5 0.2-1.1 0.3-1.5 0.7-3.1 0.8-3.7 0-0.2 0-0.5 0-0.6 0 0-0.1-0.2-0.1-0.3-0.1-0.1-0.2-0.2-0.3-0.2-0.1-0.1-0.2-0.1-0.4-0.1-0.3 0-0.4 0-0.7 0.2-0.1 0-0.3 0.1-0.4 0.2 0 0-0.2 0.9-0.8 3.7-0.2 1-0.4 1.8-0.4 1.8 0 0.1-0.6 0.1-1.2 0.1-1.1 0-1.2 0-1.3 0zm8.7 0c0 0 0.1-0.5 0.3-1.2 0.3-1.3 0.7-3 0.9-4.1 0.1-0.4 0.2-1.1 0.3-1.4 0-0.4 0.1-0.7 0.1-0.7 0.1-0.1 0.4-0.1 0.9-0.2 0.4-0.1 0.9-0.2 1.2-0.2q0.5-0.1 0.6-0.1 0 0.1-0.1 0.6c-0.3 1-0.8 3.1-1 4.4-0.2 0.6-0.3 1.5-0.4 2-0.1 0.4-0.2 0.8-0.2 0.8 0 0.1-2.5 0.1-2.6 0.1zm25 0c0 0 0.2-0.7 0.4-1.6 0.3-1.5 0.7-2.9 0.9-4 0.1-0.4 0.2-0.9 0.2-1.2 0.1-0.3 0.1-0.6 0.1-0.7 0.1 0 0.4 0 0.9-0.1 0.4-0.1 0.9-0.2 1.2-0.2 0.3-0.1 0.5-0.1 0.6-0.1q0 0 0 0.1c0 0.1-0.1 0.4-0.2 0.7-0.4 1.9-1.1 5.1-1.3 6.2-0.1 0.7-0.2 0.8-0.2 0.9-0.1 0-0.7 0-1.3 0-1 0-1.3 0-1.3 0zm13 0c0-0.1 0.2-0.9 0.5-2 0.2-1 0.5-2.3 0.6-2.9 0.1-0.5 0.3-1.3 0.3-1.7 0.1-0.5 0.1-0.8 0.2-0.9 0 0 0.3 0 0.6-0.1 0.3 0 0.9-0.1 1.2-0.2q0.7-0.1 0.7-0.1 0 0.1 0 0.4c-0.1 0.2-0.1 0.4-0.1 0.4 0 0 0.2-0.1 0.3-0.2 0.2-0.1 0.5-0.3 0.7-0.3 0.1-0.1 0.4-0.2 0.5-0.2 0.4-0.1 1.1-0.1 1.4 0 0.1 0 0.3 0.1 0.4 0.2 0.1 0 0.3 0.1 0.4 0.2 0.1 0.1 0.2 0.3 0.2 0.4 0.1 0.1 0.2 0.3 0.2 0.5 0.1 0.5 0.1 1.3-0.3 3-0.1 0.4-0.3 1.3-0.5 2-0.1 0.8-0.2 1.4-0.2 1.4-0.1 0-0.6 0.1-1.3 0.1-1.2 0-1.2 0-1.2-0.1 0 0 0.1-0.6 0.3-1.3 0.3-1.3 0.6-2.7 0.7-3.2 0-0.2 0-0.5 0-0.6 0-0.1 0-0.3 0-0.4-0.1-0.1-0.2-0.2-0.2-0.2-0.1-0.1-0.2-0.1-0.3-0.2 0 0-0.2 0-0.3 0-0.2 0-0.6 0.1-0.9 0.3l-0.2 0.1-0.2 1c-0.2 0.6-0.4 1.8-0.6 2.7-0.2 1-0.4 1.8-0.4 1.8 0 0.1-0.3 0.1-1.2 0.1-1 0-1.2 0-1.3 0zm43.7 0c0 0 0.1-0.7 0.3-1.5 0.6-2.5 1.1-4.8 1.2-5.6 0-0.2 0-0.3 0.1-0.3q0-0.1 0.8-0.2c0.4-0.1 1-0.2 1.3-0.2 0.4-0.1 0.5-0.1 0.5-0.1 0.1 0.1 0 0.2-0.1 0.7-0.2 1-0.7 3.2-1 4.4-0.1 0.6-0.3 1.4-0.4 1.9 0 0.4-0.1 0.8-0.1 0.8-0.1 0.1-0.6 0.1-1.3 0.1q-1.3 0-1.3 0zm-176.8-0.1c0-0.1 0.3-1.2 0.9-4 0.5-1.8 0.8-3.3 1.1-5l0.3-1.1 0.5-0.1c0.2 0 0.8 0 1.3 0 0.7 0 0.9 0 0.9 0 0 0.1-0.2 0.7-0.4 1.5-0.2 0.8-0.5 2-0.6 2.7-0.3 1.3-0.8 3.6-1.1 5.2-0.1 0.5-0.2 0.8-0.3 0.8 0 0.1-0.6 0.1-1.3 0.1h-1.3zm97.1-8.8c0-0.1 0.4-2 0.5-2.1q0 0 1.2-0.2 1.2-0.1 1.3-0.1 0 0-0.2 1c-0.1 0.5-0.2 1-0.3 1 0 0.1-0.2 0.1-1.1 0.3-0.6 0-1.2 0.1-1.2 0.1q-0.1 0.1-0.2 0zm25 0c0-0.1 0.4-2 0.5-2.1 0 0 0.5-0.1 1.2-0.2 0.7-0.1 1.3-0.1 1.3-0.1q0 0 0 0.1c0 0-0.1 0.5-0.2 1-0.1 0.5-0.3 0.9-0.3 1 0 0-0.5 0.1-1.1 0.2-0.6 0-1.1 0.1-1.2 0.1q-0.1 0.1-0.2 0zm56.7 0c0 0 0-0.4 0.2-1 0.1-0.6 0.2-1.1 0.2-1.1 0.1 0 0.2 0 0.2 0 0.1 0 0.6-0.1 1.2-0.2 0.9-0.1 1.1-0.1 1.1-0.1q0.1 0.1 0.1 0.1c0 0.1-0.1 0.5-0.3 1-0.1 0.5-0.2 0.9-0.2 0.9-0.1 0.1-0.4 0.1-1.2 0.3-0.6 0-1.1 0.1-1.1 0.1q-0.1 0-0.2 0zm-165.4-7.6c-1.3 0-2.6-0.2-3.8-0.5-0.9-0.1-1.7-0.3-2.5-0.6-0.7-0.2-1.2-0.4-1.9-0.7q-1.7-0.6-3.1-1.5c-0.8-0.5-1.7-1.1-2.3-1.6-0.3-0.2-0.8-0.7-1.1-0.9-0.5-0.5-1.2-1.3-1.8-1.9-0.1-0.2-0.4-0.6-0.6-0.8-0.8-1-1.4-2.1-2-3.3-0.2-0.4-0.4-1-0.6-1.4-0.1-0.3-0.3-0.9-0.4-1.3-0.3-0.6-0.5-1.6-0.7-2.3-0.2-1.1-0.4-2.6-0.5-3.9 0-0.9 0-2.6 0-3.5 0.1-1.9 0.4-3.4 0.8-5 0.3-1.3 0.9-3 1.5-4.2 0.1-0.2 0.3-0.6 0.4-0.9 0.4-0.6 1-1.6 1.5-2.2 0.3-0.3 0.8-0.9 1.2-1.3 0.4-0.4 1-1 1.3-1.2 0.3-0.2 0.8-0.6 1.1-0.8 0.7-0.5 1.5-0.9 2.1-1.3 0.8-0.4 1.9-0.8 2.8-1.1 0.5-0.2 1.2-0.4 1.6-0.5 1.7-0.4 3.3-0.7 5.4-0.8 0.9-0.1 3.7-0.1 4.5 0 1.8 0.1 3.2 0.3 4.6 0.6 0.8 0.1 1.4 0.3 2.2 0.5 0.7 0.2 1.7 0.6 2.1 0.8l0.2 0.1h-1.1c-0.6 0-1.2 0-1.5 0-0.6 0.1-1.4 0.3-1.9 0.4-1.3 0.3-2.5 0.8-3.6 1.4-0.5 0.3-1.2 0.8-1.7 1.2-0.2 0.2-0.6 0.6-0.9 0.8-0.3 0.3-0.7 0.7-0.9 1-0.2 0.3-0.6 0.7-0.8 1-0.2 0.3-0.5 0.8-0.7 1.1q-0.7 1.1-1.1 2.2c-0.5 1-0.8 2.3-1.1 3.5-0.3 1.2-0.5 2.7-0.6 4.2 0 0.9 0 2.2 0 2.9q0.1 1.6 0.5 2.8c0.1 0.6 0.4 1.4 0.6 1.9 0.3 0.7 0.8 1.5 1.2 2.1 0.3 0.4 0.8 0.9 1.2 1.2 0.4 0.4 1 0.9 1.4 1.1 0.5 0.3 1.1 0.6 1.6 0.8 0.2 0.1 0.6 0.2 0.9 0.3 0.5 0.2 1.3 0.3 1.9 0.4 0.6 0.1 2.1 0.1 2.7 0 1-0.1 1.9-0.3 2.9-0.6 1.9-0.6 3.7-1.6 5.3-2.8 0.5-0.3 0.6-0.4 0.7-0.4 0.1 0 0.3 0.1 0.4 0.1 0.1 0 0.2 0.1 0.2 0.2q0.1 0.1 0.1 0.2c0 0.2-2.6 10.1-2.9 11.2-0.1 0.2-0.1 0.5-0.2 0.5 0 0.1-0.1 0.3-0.2 0.3 0 0.1-0.2 0.2-0.3 0.2-0.2 0.2-1.4 0.6-2.1 0.9-0.4 0.1-0.9 0.3-1.2 0.4-1.8 0.5-4.3 0.9-6.9 1-0.8 0.1-3.1 0.1-3.9 0zm110.5-0.9c-0.8 0-2.1-0.1-2.7-0.2-1.9-0.2-3.9-0.6-5.7-1.1-0.7-0.2-1.7-0.6-2.4-0.8-0.7-0.3-1.7-0.8-2.5-1.3l-0.6-0.3-0.2-0.7 1.3-5.1c0.8-2.8 1.4-5.1 1.5-5.1 0 0 0.1 0 0.3-0.1l0.4-0.1 0.2 0.3c0.4 0.4 1.1 1.1 1.5 1.4 0.6 0.4 1.4 1 2 1.3 0.3 0.1 0.8 0.4 1.1 0.5 0.6 0.2 1.5 0.5 2.1 0.7 0.6 0.2 1.4 0.3 2.1 0.4 0.2 0 0.9 0.1 1.5 0.1 1 0 1.3 0 1.8-0.1 0.3 0 0.8-0.1 1-0.1 0.3-0.1 0.7-0.2 0.9-0.3 0.3-0.1 0.7-0.2 0.9-0.3 0.3-0.2 0.6-0.3 0.8-0.5 0.4-0.2 1.1-0.9 1.3-1.3 0.2-0.3 0.4-0.7 0.5-1.1 0.1-0.3 0.2-0.4 0.2-0.9 0-0.4 0-0.6-0.1-0.8 0-0.2-0.1-0.5-0.2-0.6 0-0.2-0.2-0.5-0.3-0.7-0.2-0.3-0.7-0.9-1.2-1.2q-0.6-0.5-1.5-1.1c-0.4-0.2-1.6-1-2.8-1.7-1.2-0.7-2.4-1.4-2.6-1.5-0.3-0.2-0.8-0.5-1.1-0.7-1.1-0.7-1.9-1.4-2.8-2.2-0.3-0.3-0.7-0.7-0.9-0.9-0.1-0.3-0.4-0.6-0.6-0.9-0.2-0.2-0.4-0.6-0.6-0.9-0.1-0.3-0.3-0.7-0.4-0.9-0.3-0.6-0.6-1.5-0.7-2.1-0.3-1.1-0.4-2.1-0.3-3.3 0-0.6 0-1.2 0.1-1.5 0.1-0.7 0.2-1.5 0.4-2.2 0.3-1.4 0.9-2.8 1.6-4 0.3-0.6 0.8-1.3 1.2-1.8 0.8-1.1 2-2.2 3.2-3 0.8-0.6 1.6-1 2.5-1.5 1.7-0.8 3.5-1.3 5.6-1.6 1.8-0.3 3.9-0.4 5.8-0.3 1.5 0.1 3.1 0.3 4.4 0.5 0.3 0.1 0.8 0.2 1.2 0.3 1.2 0.3 2.3 0.6 3.6 1.1 1 0.4 2.1 0.9 3.2 1.4 0.8 0.4 0.8 0.4 0.9 0.6 0.1 0.1 0.2 0.2 0.2 0.3 0 0-0.6 2.3-1.4 5.1l-1.4 5-0.4 0.2-0.3 0.1-0.5-0.6c-0.3-0.2-0.7-0.6-0.9-0.7-0.4-0.4-1.1-0.9-1.6-1.2-0.2-0.2-0.7-0.4-1-0.6-0.3-0.2-0.9-0.4-1.2-0.5-0.7-0.3-1.6-0.6-2.3-0.8-0.9-0.1-1.5-0.2-2.3-0.2-0.8-0.1-1.3 0-1.9 0.1-0.4 0.1-1.1 0.3-1.5 0.5-0.3 0.2-0.8 0.5-1.1 0.8-0.1 0.1-0.4 0.3-0.5 0.5-0.1 0.2-0.3 0.4-0.4 0.6-0.1 0.2-0.2 0.5-0.2 0.7-0.1 0.2-0.1 0.4-0.1 0.9 0 0.5 0 0.7 0.1 0.9 0 0.1 0.1 0.4 0.2 0.6 0.1 0.2 0.3 0.5 0.4 0.7 0.1 0.1 0.4 0.4 0.5 0.6 0.2 0.1 0.5 0.4 0.7 0.6 0.5 0.3 1.4 1 2.1 1.4 0.3 0.2 1.1 0.6 1.8 1 1.8 1 2.3 1.2 3 1.7 1.1 0.7 2.1 1.3 2.9 2.1 0.3 0.2 0.7 0.6 1 0.9 0.9 0.8 1.5 1.6 2.1 2.6 0.1 0.2 0.3 0.6 0.5 0.9 0.1 0.3 0.3 0.8 0.4 1.1 0.1 0.2 0.2 0.7 0.3 1 0.1 0.4 0.2 0.9 0.2 1.2 0.2 0.8 0.2 2.1 0.1 3 0 0.7-0.1 1.6-0.3 2.2-0.1 0.5-0.2 1.1-0.4 1.6-0.2 0.7-0.6 1.7-0.9 2.4-0.2 0.4-0.5 0.8-0.6 1-0.4 0.6-0.8 1.3-1.3 1.8-0.2 0.3-0.7 0.8-1 1.2-0.4 0.3-0.9 0.8-1.2 1-0.6 0.5-1.4 1-2.1 1.4-0.6 0.4-1.7 1-2.4 1.3-1.2 0.5-2.7 0.9-4.1 1.2-0.6 0.2-1.5 0.3-2.3 0.4-1.3 0.2-2 0.2-3.8 0.2-0.9 0-1.9 0-2 0zm-78.3-0.1c-0.7 0-1.6-0.1-2.3-0.2-0.7-0.1-1.7-0.4-2.4-0.6-0.6-0.3-1.6-0.7-2.1-1.1-0.2-0.1-0.5-0.3-0.8-0.5-0.2-0.1-0.5-0.4-0.7-0.6-0.2-0.2-0.5-0.6-0.7-0.8-0.2-0.2-0.5-0.6-0.6-0.8-0.6-0.9-1.1-1.9-1.4-2.9-0.1-0.5-0.3-1.2-0.3-1.7-0.1-0.7-0.2-1.2-0.2-2 0-0.7 0-1.9 0.1-2.8 0.1-0.8 0.3-1.8 0.5-2.7 0.3-0.9 0.6-2.1 0.9-2.9 0.3-0.7 0.8-1.7 1.1-2.4 0.4-0.7 1-1.6 1.5-2.1 0.1-0.3 0.5-0.7 0.7-0.9 0.2-0.2 0.6-0.6 0.8-0.8 0.3-0.2 0.7-0.6 0.9-0.8 0.3-0.2 0.7-0.5 1-0.6 0.3-0.2 0.7-0.5 1-0.6 0.3-0.2 0.7-0.4 1-0.5 0.7-0.2 1.5-0.5 2.2-0.7 0.7-0.2 1.6-0.3 2.4-0.4 0.5-0.1 1-0.1 2.3-0.1 1.7 0 2.1 0 3.2 0.2 1.6 0.2 3 0.6 4.1 1.2 0.3 0.1 0.8 0.4 1 0.6 0.3 0.2 0.7 0.4 0.9 0.6 0.4 0.4 1 0.9 1.3 1.4 0.5 0.6 0.9 1.4 1.2 2.1 0.2 0.5 0.5 1.2 0.6 1.7 0.3 1.1 0.4 2 0.4 3.2 0.1 0.8 0 2.4-0.1 3.3-0.1 1.2-0.3 2.3-0.5 3.2-0.2 0.7-0.6 1.8-0.9 2.5-0.1 0.4-0.4 1.1-0.7 1.6-0.3 0.6-0.5 1.1-0.9 1.6-0.2 0.3-0.6 0.8-0.8 1.1-0.2 0.2-0.6 0.7-0.9 1-0.3 0.3-0.8 0.7-1.1 1-0.5 0.4-1.2 0.9-1.7 1.2-0.5 0.2-1 0.5-1.5 0.7-0.6 0.3-1.6 0.6-2.3 0.8q-1.5 0.4-3.2 0.5c-0.8 0-2.2 0.1-3 0zm2.3-6.7c0.3-0.1 0.7-0.3 1-0.5 0.3-0.3 0.8-0.8 1.1-1.2 0.3-0.4 0.6-1 0.8-1.5 0.4-0.9 0.8-2.1 1-3.3 0.2-0.8 0.4-1.8 0.6-2.7 0.2-1.2 0.3-2.8 0.3-3.6 0-0.5 0-1-0.1-1.4-0.1-0.2-0.2-0.5-0.3-0.7q-0.1-0.3-0.4-0.6c-0.1-0.2-0.3-0.4-0.5-0.4-0.1-0.1-0.3-0.2-0.5-0.2-0.3-0.1-0.4-0.1-0.8-0.1-0.3 0-0.5 0-0.7 0.1-0.2 0.1-0.4 0.2-0.6 0.3-0.4 0.2-1.1 0.9-1.4 1.5-0.3 0.4-0.6 1-0.8 1.5-0.4 0.9-0.7 2-1 3.2-0.3 0.8-0.5 2.2-0.7 3.1-0.1 0.9-0.2 1.9-0.3 2.6 0 0.7 0.1 1.5 0.2 2 0.1 0.3 0.2 0.6 0.2 0.7 0.1 0.2 0.2 0.4 0.3 0.5 0.1 0.1 0.3 0.3 0.4 0.4 0.3 0.2 0.6 0.3 0.9 0.4 0.2 0 1 0 1.3-0.1zm111.7 6.7c-0.7 0-1.6-0.1-2.2-0.2-1-0.2-1.9-0.4-2.7-0.7-0.2-0.1-0.5-0.2-0.8-0.3-1-0.5-2-1.1-2.8-1.9-0.2-0.2-0.5-0.6-0.7-0.8-0.2-0.3-0.4-0.6-0.6-0.8-0.1-0.2-0.4-0.7-0.5-1-0.2-0.3-0.4-0.9-0.5-1.1-0.1-0.3-0.2-0.7-0.3-1-0.2-0.6-0.3-1.5-0.4-2.2-0.1-0.7-0.1-2.7 0-3.4q0.4-3.6 1.7-6.7c0.3-0.7 0.8-1.8 1.2-2.4 0.6-1.1 1.2-1.9 2-2.7 0.2-0.2 0.6-0.6 0.9-0.8 0.4-0.4 1-0.9 1.6-1.2 0.6-0.4 1.5-0.9 2.1-1.1q1-0.4 2.1-0.7c0.7-0.2 1.6-0.3 2.4-0.4 0.8-0.1 3-0.1 3.9-0.1 0.8 0.1 1.6 0.2 2.3 0.3 1.3 0.3 2.5 0.6 3.4 1.1 0.3 0.1 0.8 0.4 1.1 0.6 0.2 0.2 0.6 0.5 0.8 0.6 0.2 0.2 0.6 0.5 0.8 0.7 0.3 0.4 0.8 1 1 1.4 0.3 0.5 0.7 1.3 0.9 1.9q0.4 0.9 0.6 1.9c0.2 1 0.2 1.4 0.2 2.8 0 1.5 0 2.3-0.1 3.4-0.1 0.7-0.2 1.5-0.4 2.2-0.1 0.7-0.5 1.8-0.8 2.7-0.1 0.3-0.4 1-0.5 1.3-0.2 0.4-0.5 1-0.6 1.3-0.4 0.6-0.8 1.2-1.2 1.8-0.2 0.2-0.5 0.6-0.7 0.9-0.5 0.4-1.2 1.1-1.7 1.5-0.5 0.4-1.3 0.9-1.8 1.2-0.3 0.1-0.8 0.4-1.1 0.5-0.3 0.2-0.8 0.4-1.2 0.5-0.3 0.1-0.9 0.3-1.3 0.4-0.8 0.2-1.7 0.3-2.5 0.4-0.6 0.1-2.2 0.2-2.7 0.2-0.1 0-0.6-0.1-0.9-0.1zm2-6.7c0.4 0 0.8-0.2 1.1-0.4 0.5-0.3 1-1 1.4-1.6 0.1-0.2 0.3-0.6 0.5-0.9 0.4-0.9 0.8-2 1.1-3.4 0.2-0.8 0.5-2.1 0.6-2.9 0.1-0.6 0.2-1.6 0.3-2.3 0-0.3 0.1-0.9 0.1-1.3 0-0.6-0.1-0.8-0.1-1.1-0.1-0.2-0.1-0.5-0.2-0.7-0.1-0.2-0.2-0.5-0.3-0.6-0.1-0.1-0.3-0.3-0.4-0.5-0.1-0.1-0.3-0.2-0.4-0.3-0.2 0-0.4-0.1-0.5-0.2-0.2 0-0.4 0-0.6 0-0.2 0-0.5 0-0.7 0.1-0.1 0-0.4 0.1-0.6 0.2-0.1 0.1-0.4 0.2-0.6 0.4-0.1 0.1-0.4 0.3-0.5 0.5-0.4 0.5-0.9 1.2-1.2 1.9-0.2 0.5-0.5 1.3-0.7 2-0.1 0.4-0.3 1-0.4 1.4-0.4 1.5-0.7 3.1-0.8 4.5-0.1 0.4-0.1 1-0.1 1.4-0.1 0.7 0 1.4 0.1 1.9 0.1 0.2 0.2 0.5 0.3 0.7 0.1 0.2 0.2 0.5 0.3 0.6 0.1 0.1 0.3 0.3 0.4 0.3 0.2 0.2 0.6 0.3 0.8 0.4 0.3 0 0.8 0 1.1-0.1zm29.7 6.7c-0.1 0-0.4-0.1-0.7-0.1-0.2 0-0.7-0.1-1.1-0.1-1.1-0.2-2-0.5-2.9-0.8-0.3-0.2-0.8-0.4-1.1-0.6-0.6-0.3-1.3-0.7-1.8-1.1-0.2-0.2-0.6-0.5-0.8-0.7-0.3-0.3-0.6-0.7-0.8-0.9q-0.8-1.1-1.4-2.4c-0.1-0.2-0.3-0.7-0.4-1-0.3-0.9-0.6-2-0.7-3.1-0.1-1-0.1-2.3-0.1-3.4 0.1-1 0.3-2.1 0.5-3 0.3-1.1 0.7-2.3 1.1-3.2 0.4-0.7 0.8-1.5 1.2-2.1 0.2-0.3 0.6-0.8 0.8-1.2 0.3-0.3 0.8-0.8 1.2-1.2 0.3-0.4 0.9-0.9 1.2-1.1 0.5-0.4 1.2-0.9 1.8-1.3 0.2-0.1 0.6-0.3 0.9-0.4 1-0.6 2-0.9 3.1-1.2 1.1-0.3 2.2-0.5 3.4-0.6 0.8 0 3 0 3.7 0.1 0.3 0 0.8 0.1 1.1 0.1 1 0.2 2.1 0.5 2.9 0.8 0.4 0.2 1.1 0.6 1.6 0.9 0.5 0.2 0.5 0.3 0.6 0.6 0 0.1-0.3 1.1-1 3.6l-1.1 3.6h-0.2c-0.3 0-0.3 0-0.4-0.1-0.1-0.1-0.3-0.3-0.5-0.5-1-1.1-2-1.6-3.3-1.8-0.4-0.1-1.5 0-1.9 0.1-0.5 0.1-1 0.3-1.4 0.5-0.5 0.2-0.9 0.5-1.3 0.8-0.4 0.3-0.9 0.9-1.2 1.2q-0.5 0.7-0.9 1.5c-0.1 0.3-0.3 0.8-0.4 1.1-0.2 0.4-0.3 0.9-0.3 1.1-0.1 0.3-0.2 0.8-0.2 1-0.1 0.8-0.1 1.7-0.1 2.3 0.1 0.3 0.1 0.7 0.2 0.9 0 0.2 0.1 0.6 0.2 0.8 0 0.3 0.2 0.6 0.3 0.8 0.1 0.2 0.2 0.4 0.3 0.6 0.1 0.2 0.4 0.4 0.6 0.6 0.2 0.2 0.5 0.5 0.7 0.6 0.2 0.2 0.5 0.3 0.6 0.4 0.5 0.2 1 0.3 1.5 0.4 0.3 0 0.6 0.1 1.2 0 0.6 0 0.9 0 1.2-0.1 0.3 0 0.7-0.1 1-0.2 0.2-0.1 0.7-0.3 1-0.4 0.4-0.3 1-0.6 1.4-1l0.2-0.1 0.3 0.1c0.1 0.1 0.2 0.1 0.2 0.2 0 0-0.1 0.5-0.3 1q-0.6 2.2-1 4.2c-0.6 2.5-0.5 2.2-0.7 2.4-0.1 0.1-0.2 0.2-0.2 0.2-0.1 0.1-1.3 0.5-2 0.6-0.4 0.1-1 0.3-1.3 0.3-1.1 0.2-1.6 0.3-3 0.3-0.8 0-1.4 0-1.5 0zm-128.1-0.8l0.9-3.9c0.5-2.2 1.4-5.6 1.8-7.6 0.5-2 1-3.9 1.1-4.3 0.3-1.6 0.7-3.2 0.8-4.1 0.3-1.6 0.5-2.8 0.8-5l0.3-1.9 0.2-0.2 0.2-0.2 0.9-0.1c1.5-0.2 3.8-0.6 5-0.8 0.6-0.1 2-0.3 3-0.5l1.8-0.4 0.2 0.2c0.1 0.1 0.1 0.2 0.1 0.2 0 0-0.1 0.8-0.3 1.7-0.2 0.9-0.4 1.7-0.4 1.7 0 0 0.2-0.1 0.3-0.3 0.4-0.3 1-0.8 1.4-1 0.1-0.1 0.5-0.3 0.8-0.5q1.9-1.1 3.9-1.5c0.8-0.2 1.2-0.3 2.1-0.3 0.6 0 0.9 0.1 1.3 0.1 0.3 0.1 0.7 0.2 0.9 0.3 0.3 0 0.6 0.2 0.8 0.3 0.2 0.1 0.5 0.3 0.7 0.4 0.6 0.4 1.2 1.2 1.5 1.9 0.1 0.1 0.2 0.4 0.3 0.5 0 0.1 0.1 0.2 0.1 0.3 0 0 0.3-0.3 0.7-0.5 1.1-0.9 2-1.4 3-1.9 0.3-0.1 0.8-0.4 1.1-0.5q1-0.4 2-0.6c0.8-0.2 1.4-0.3 2.3-0.3 0.4 0 1 0.1 1.2 0.1 0.6 0.1 1.3 0.2 1.8 0.4 0.3 0.1 0.7 0.3 0.9 0.4 0.2 0.1 0.6 0.3 0.8 0.4 0.2 0.1 0.5 0.4 0.6 0.5 0.4 0.3 0.8 0.8 1.1 1.2 0.2 0.3 0.5 0.9 0.7 1.4 0 0.2 0.1 0.6 0.2 0.8 0.1 0.6 0.1 1.2 0.1 2.1 0 0.5 0 1-0.1 1.3-0.1 0.7-0.2 1.5-0.4 2.3-0.1 0.5-0.5 2-0.8 3.6-0.5 1.8-1 4.7-1.8 8.4l-1.1 5.7-0.2 0.1c-0.1 0.2-0.2 0.2-0.4 0.2-0.1 0-2.3 0.1-4.9 0.1-2.6 0.1-4.9 0.1-5 0.1h-0.3l-0.3-0.3 1-4.4c0.6-2.4 1.2-5.1 1.4-5.9q1.2-5 1.5-6.8c0.1-0.5 0.1-0.8 0.1-1.2 0-0.4 0-0.7-0.1-0.9q-0.2-0.6-0.5-1c-0.3-0.2-0.6-0.4-1-0.5-0.3-0.1-1.1 0-1.5 0.1-0.1 0-0.4 0.1-0.5 0.2-0.4 0.1-1.3 0.7-1.3 0.7 0 0.1-0.2 1.3-0.5 2.8-0.3 2-0.6 3.2-0.9 4.9-0.3 1.2-1 4.4-1.5 7-0.9 4.6-1 4.8-1.1 4.9-0.1 0.1-0.2 0.1-0.2 0.2-0.1 0-1.7 0-5.2 0.1l-5.2 0.1-0.1-0.1c-0.1-0.1-0.1-0.2-0.1-0.2 0-0.1 0.1-0.9 0.4-1.9 0.2-0.9 0.8-3.6 1.3-5.9 0.9-3.7 1.6-7.2 2-9.2q0.1-0.7 0.2-1.3c0-0.5 0-0.6-0.1-0.9 0-0.2-0.1-0.5-0.2-0.6 0-0.1-0.2-0.3-0.3-0.4-0.1-0.1-0.3-0.3-0.4-0.3-0.2-0.1-0.4-0.1-0.5-0.2-0.2 0-0.4 0-0.7 0-0.4 0-0.6 0-0.9 0.1-0.2 0.1-0.5 0.2-0.6 0.3-0.3 0.1-0.9 0.6-1 0.6 0 0.1-0.4 1.9-0.9 4.1-0.5 2.3-1.4 6.6-2 9.8l-1.2 5.6-0.2 0.2-0.2 0.1-4.5 0.1c-2.5 0.1-4.8 0.1-5.2 0.1h-0.8zm145.9-21.2c-0.3 0-0.7-0.2-1-0.4-0.2-0.1-0.4-0.3-0.5-0.4-0.1-0.1-0.3-0.3-0.3-0.4-0.1-0.2-0.2-0.4-0.2-0.5-0.1-0.1-0.1-0.4-0.2-0.5 0-0.3 0-0.5 0-0.7 0.1-0.2 0.1-0.5 0.2-0.7 0-0.1 0.2-0.3 0.2-0.4 0.1-0.2 0.3-0.4 0.3-0.5 0.1-0.1 0.4-0.2 0.5-0.3 0.2-0.1 0.4-0.3 0.7-0.3 0.3-0.1 0.4-0.2 0.8-0.2 0.2 0 0.5 0.1 0.6 0.1 0.1 0 0.4 0.1 0.6 0.2 0.3 0.1 0.4 0.2 0.7 0.5q0.3 0.3 0.4 0.6c0.1 0.2 0.2 0.4 0.2 0.5 0.1 0.2 0.1 0.4 0.1 0.7 0 0.2 0 0.5 0 0.7 0 0.1-0.2 0.4-0.2 0.6-0.2 0.3-0.3 0.4-0.5 0.7-0.3 0.2-0.4 0.4-0.7 0.5-0.1 0.1-0.4 0.1-0.5 0.2-0.3 0.1-0.9 0.1-1.2 0zm1-0.2c0.1 0 0.4-0.1 0.6-0.2 0.2-0.1 0.4-0.2 0.6-0.5q0.5-0.5 0.6-1.1c0.1-0.3 0.1-0.9 0.1-1.1-0.1-0.2-0.2-0.4-0.3-0.6-0.1-0.3-0.2-0.4-0.4-0.6-0.2-0.2-0.4-0.4-0.6-0.5-0.2 0-0.4-0.1-0.5-0.2-0.2 0-0.4 0-0.6 0-0.7 0-1.2 0.2-1.7 0.6-0.2 0.3-0.3 0.4-0.5 0.7-0.1 0.2-0.2 0.4-0.2 0.5 0 0.2 0 0.4 0 0.6 0 0.2 0 0.4 0 0.6 0 0.1 0.1 0.3 0.2 0.5 0.1 0.1 0.2 0.3 0.3 0.4 0.1 0.1 0.2 0.3 0.4 0.4 0.1 0.1 0.3 0.2 0.4 0.3 0.1 0 0.3 0.1 0.4 0.2 0.3 0 0.9 0.1 1.2 0zm-1.7-4.1h0.9c0.8 0 0.9 0 1.1 0.1q0.2 0.1 0.3 0.3c0.1 0.1 0.2 0.4 0.2 0.6-0.1 0.1-0.1 0.2-0.2 0.3 0 0.1-0.2 0.2-0.3 0.3l-0.2 0.1h0.1q0.1 0.1 0.2 0.3c0.1 0.1 0.2 0.3 0.2 0.6 0 0.2 0.1 0.4 0.1 0.6l0.1 0.2h-0.3c-0.3 0-0.4 0-0.4-0.1 0-0.1-0.1-0.3-0.1-0.6-0.1-0.2-0.1-0.4-0.2-0.5q0-0.2-0.2-0.3c-0.1 0-0.2 0-0.4 0h-0.2v1.5h-0.7zm1.6 1.3c0.1 0 0.2-0.1 0.2-0.2 0 0 0.1-0.1 0.1-0.2 0-0.2-0.1-0.2-0.2-0.3l-0.1-0.2h-0.9v1h0.4q0.4 0 0.5-0.1zm-167.5-9.9v-0.1-1.5c0.1-3.5 0.2-5.1 0.2-10.3 0-6.4-0.1-8.8-0.3-12.4-0.1-1.2-0.1-1.4 0-1.4l0.1-0.1h2.2c1.2-0.1 2.7-0.1 3.3-0.1l1.1-0.1 0.1 0.1c0.1 0.1 0.1-0.4-0.1 5.5 0 1.4 0 5.4 0 8.9 0 6.4 0 6.9 0.2 10v1.3l-0.1 0.1-0.1 0.1h-1.2c-1.3 0-4.1 0.1-4.8 0.1-0.5 0-0.5 0-0.6-0.1zm10.8-0.1c0 0 0-0.2 0-1.9 0.1-2.9 0.1-6.9 0.1-10.1 0-3.5 0-8.8-0.1-10.1 0-0.6-0.1-1.6-0.1-2.2l-0.1-1.3 0.1-0.1 0.1-0.1h8c7.7 0 8 0 8.1 0.1l0.1 0.1-0.1 2.1c-0.1 1.9-0.1 2.1-0.2 2.2-0.1 0.1-0.1 0.1-0.3 0.1-0.1 0-1.4 0-3 0-1.5 0-3.6-0.1-4.5-0.1l-1.7 0.1v2.9c0 2.2 0 2.9 0 2.9 0.1 0 2.1 0 4.5-0.1l4.3-0.1 0.1 0.1 0.1 0.1-0.1 2.1-0.1 2.1-0.1 0.1-0.1 0.1h-8.6l0.1 3.2c0 1.7 0 3.2 0 3.2 0 0 0.4 0 1.9 0 2.2 0 3.9 0 6.3-0.1 0.9-0.1 1.7-0.1 1.7-0.1 0.1 0 0.2 0 0.2 0.1l0.1 0.1-0.1 2.3-0.1 2.2-0.3 0.2h-8.1c-7.6 0-8 0-8.1-0.1zm19.8 0c-0.1 0-0.1-0.1 0-1.9 0.1-3.9 0.1-5.6 0.1-10.3 0-5-0.1-8.4-0.1-10.2-0.1-0.5-0.1-1.4-0.1-2l-0.1-1.1 0.1-0.2 0.1-0.1h16l0.2 0.2-0.1 2.1c-0.2 2.1-0.2 2.2-0.3 2.3h-0.1-1.1c-0.6 0-2.7 0-4.7 0l-3.5-0.1v5.9h1c0.6 0 2.4-0.1 3.9-0.1 1.6 0 3.1 0 3.4-0.1h0.5l0.1 0.1 0.1 0.2-0.2 4.1-0.1 0.1-0.2 0.1h-8.5v2.8c0 1.6 0 3.1 0.1 3.3v0.3h2.7c2.7 0 3.2 0 6-0.2h1.3l0.1 0.1q0 0.1 0 0.3c0 0.2-0.2 4.3-0.2 4.3q0 0-0.1 0.1l-0.1 0.1h-8.1c-6.7 0-8 0-8.1-0.1zm19.7 0c0 0 0-0.1 0-1.6 0.1-3.6 0.1-5.4 0.1-10.8 0-6.9 0-9.3-0.2-12.2v-0.9l0.1-0.2 0.1-0.1h8c7.5 0 8 0 8.1 0.1l0.1 0.1-0.2 2.1c-0.1 2-0.1 2.1-0.2 2.2-0.1 0.2-0.1 0.2-0.5 0.1-1 0-4.7-0.1-6.8-0.1h-2.2v5.9h0.1c0.1 0 1.7 0 3.6-0.1 1.9 0 3.9 0 4.3 0l0.9-0.1 0.1 0.1c0 0.1 0 0.2-0.1 2.2l-0.1 2.1-0.1 0.1-0.1 0.1h-4.3-4.3l0.1 2c0 1 0 2.5 0 3.2v1.2h2c1 0 2.5 0 3.2 0 0.7 0 2.1-0.1 3.1-0.1l1.7-0.1 0.1 0.1c0.1 0.1 0.1 0.1 0.1 0.4 0 0.1-0.1 1.1-0.1 2.2l-0.1 2-0.2 0.1-0.1 0.1h-8c-6.9 0-8.1 0-8.2-0.1zm-59.5-0.9c-0.1-0.1-0.2-0.3-0.4-0.4-0.1-0.2-0.6-0.7-1-1.1-0.7-0.7-1.6-1.6-2.6-2.3-1.8-1.5-3.9-2.7-6-3.7-2.3-1-4.7-1.7-7.1-2.1-1.5-0.2-2.6-0.3-4.3-0.3q-1.3 0-2.1 0.1c-1.4 0.1-2.5 0.3-3.8 0.5-0.8 0.2-1.9 0.5-2.6 0.7-0.2 0.1-0.4 0.2-0.4 0.2-0.1-0.1 0.9-0.9 1.4-1.3 0.3-0.2 0.7-0.5 1.1-0.8 1.1-0.8 2.2-1.4 3.4-2.1 1.8-0.9 3.7-1.6 5.6-2.1 0.9-0.2 1.5-0.3 2.3-0.4 2.1-0.4 4.2-0.5 6.3-0.5 0.6 0 1.4 0 1.7 0.1 0.8 0 2 0.2 2.8 0.3 1 0.1 2.2 0.3 2.8 0.5 0.7 0.2 1.4 0.4 2.1 0.6 0.3 0.1 0.8 0.4 1.2 0.5 1 0.5 2.3 1.1 3.2 1.7 0.2 0.1 0.4 0.2 0.4 0.3 0 0.1 0.1 0.2 0.1 0.3 0 0.1-0.6 2.2-1.6 5.4-0.8 2.9-1.6 5.4-1.6 5.5-0.1 0.2-0.1 0.2-0.3 0.3-0.1 0-0.2 0.1-0.4 0.1-0.1 0-0.2 0-0.2 0z"/>
	<path id="Layer" fill-rule="evenodd" class="s0" d="m39.9 139c0 0-0.3-0.1-0.6-0.2-0.3 0-0.7-0.2-0.9-0.2-0.2-0.1-0.4-0.3-0.5-0.5-0.1-0.2-0.7-1-1.2-1.8-1.3-1.9-1.8-2.6-2.5-3.4-0.1-0.2-0.4-0.6-0.7-1-0.2-0.3-0.5-0.6-0.5-0.7-0.1 0-0.3-0.3-0.6-0.6-0.6-0.9-0.9-1.2-1.4-1.8-0.2-0.3-0.5-0.7-0.7-0.9-0.1-0.2-0.6-0.8-1.1-1.3-1-1.1-2.8-3.1-3.1-3.5-0.3-0.4-2.4-2.5-4.5-4.6-2-2.1-4-3.9-4.8-4.6-0.3-0.3-0.8-0.7-1-0.9-0.2-0.2-0.6-0.6-0.9-0.9-0.3-0.2-0.8-0.6-1.1-0.9-0.3-0.2-0.7-0.6-1-0.8-0.3-0.3-0.6-0.5-0.7-0.7-0.3-0.2-2-1.6-2.5-2-0.2-0.1-0.7-0.5-1.1-0.8-0.4-0.3-1.1-0.9-1.5-1.2-0.5-0.4-0.8-0.7-0.9-0.7q0-0.1-0.1-0.1c-0.1 0-0.3-0.2-0.5-0.3-0.2-0.2-0.5-0.4-0.7-0.6-0.2-0.1-0.5-0.3-0.6-0.5-0.2-0.1-0.4-0.2-0.4-0.2-0.1 0-0.3-0.1-0.5-0.3-0.1-0.2-0.4-0.3-0.5-0.4-0.1-0.1-0.5-0.4-0.9-0.7-0.4-0.3-0.8-0.5-0.9-0.5-0.1 0-0.7-1-0.7-1.1 0-0.1-0.1-0.1-0.1-0.2-0.2 0-0.2-0.2-0.2-0.7 0-0.5 0-0.6 0.2-0.7 0 0 0.1-0.1 0.1-0.2 0-0.3 0.7-1 1.8-1.7 0.5-0.4 1.1-0.8 1.3-1 0.2-0.1 0.4-0.3 0.5-0.3 0-0.1 0.1-0.2 0.2-0.2 0 0 0.2-0.1 0.4-0.3 0.1-0.1 0.3-0.3 0.4-0.3 0 0 0.5-0.3 1-0.7 0.5-0.4 1-0.8 1.1-0.8 0.2-0.2 0.6-0.5 0.8-0.7 0.2-0.1 0.3-0.2 0.3-0.2 0 0 0.4-0.2 2-1.5 0.2-0.2 0.4-0.4 0.5-0.4 0-0.1 0.3-0.3 0.5-0.5 0.3-0.2 0.6-0.4 0.7-0.5 0.1-0.1 0.4-0.4 0.7-0.6 0.3-0.2 0.7-0.6 1-0.8 0.2-0.2 0.7-0.7 1.2-1.1 0.4-0.3 0.9-0.8 1-0.9 0.2-0.2 0.7-0.7 1.2-1.1 1.3-1.2 2.2-2.1 4.4-4.2 2.2-2.3 3.1-3.2 4.2-4.4 0.5-0.6 1-1.1 1.1-1.2 0.2-0.2 0.5-0.6 0.9-1 0.3-0.4 0.8-0.9 1.1-1.2 0.3-0.4 0.7-0.8 0.9-1.2 0.3-0.3 0.6-0.6 0.8-0.8 0.4-0.5 2.2-2.7 3.1-3.9 0.3-0.4 0.6-0.8 0.7-0.8 0-0.1 0.1-0.2 0.2-0.3 0-0.1 0.3-0.5 0.7-0.9 0.3-0.4 0.9-1.2 1.3-1.7 0.4-0.6 0.8-1.1 0.9-1.2 0.1-0.2 0.4-0.5 0.6-0.8 0.3-0.4 0.6-0.7 1-0.9 0.3-0.1 0.6-0.3 0.6-0.3 0-0.1 0.3-0.1 0.6-0.1 0.5 0 0.7 0 0.7 0.2 0 0 0 0.1 0.1 0.1 0.3 0 1 0.5 1.3 0.9 0.3 0.4 2 2.8 2.3 3.2 0.1 0.2 0.5 0.7 0.8 1.2 0.4 0.4 0.9 1 1.2 1.4 0.2 0.3 0.5 0.6 0.5 0.7 0.1 0 0.3 0.3 0.4 0.5 0.2 0.2 0.5 0.5 0.6 0.7 0.2 0.2 0.4 0.5 0.5 0.6 1 1.2 1.9 2.3 2.1 2.6 0.2 0.1 0.6 0.5 0.8 0.9 0.2 0.3 0.8 0.9 1.2 1.4 0.5 0.5 1.6 1.6 2.4 2.5 0.9 0.9 2.9 3 4.6 4.6 2.5 2.6 3.4 3.4 4.8 4.7 0.1 0 0.4 0.4 0.8 0.7 0.9 0.8 1.3 1.1 1.3 1.1 0.1 0 0.2 0.1 0.3 0.2 0.2 0.3 1 0.9 2 1.8 0.3 0.2 0.6 0.5 0.7 0.6 0.1 0 0.2 0.1 0.3 0.1 0 0 0.2 0.2 0.4 0.4 0.3 0.2 0.5 0.4 0.5 0.4 0.1 0 1.1 0.8 1.8 1.4 0.2 0.1 0.7 0.5 1.3 0.9 0.5 0.4 1 0.8 1 0.8 0.1 0.1 0.4 0.3 0.6 0.4 0.1 0 0.2 0.1 0.2 0.2 0.1 0.1 1.3 0.9 1.4 0.9q0.1 0.1 0.1 0.1c0.1 0.1 1 0.8 1.1 0.8q0.1 0 0.1 0.1 0 0 0.2 0.1c0.2 0 0.9 0.6 0.9 0.8q0 0.1 0.1 0.2c0 0 0.2 0.1 0.3 0.4 0.1 0.3 0.2 0.6 0.2 1.1 0 0.6-0.1 0.8-0.3 1.2-0.2 0.2-0.6 0.6-0.9 0.8-0.3 0.3-0.6 0.5-0.6 0.5 0 0-0.3 0.1-0.6 0.3-0.3 0.2-0.7 0.4-0.8 0.4-0.1 0.1-0.4 0.3-0.6 0.5-0.2 0.2-0.5 0.4-0.6 0.4-0.2 0.1-2.4 1.8-3 2.3-0.3 0.3-1.2 0.9-1.4 1.1 0 0-0.5 0.4-1 0.8q-3 2.4-3 2.5c-0.1 0-0.3 0.3-0.6 0.5-0.6 0.5-1 0.9-1.7 1.5-0.1 0.1-0.4 0.4-0.6 0.5-0.4 0.3-0.7 0.6-3.4 3.2-1.2 1.1-2.8 2.7-3.6 3.5-1.5 1.5-3.7 3.8-4.6 4.8-0.3 0.3-0.8 1-1.2 1.4-0.4 0.4-0.9 1-1.1 1.3-0.3 0.3-0.6 0.7-0.8 0.9-0.2 0.2-0.4 0.5-0.6 0.7-0.1 0.2-0.4 0.4-0.5 0.6-0.1 0.1-0.5 0.6-0.8 1-0.3 0.4-0.7 0.9-0.8 1-0.2 0.2-0.3 0.3-0.3 0.4 0 0-0.3 0.3-0.6 0.7-0.3 0.3-0.5 0.6-0.5 0.7 0 0-0.2 0.2-0.3 0.4-0.2 0.2-0.6 0.7-0.9 1.1-0.3 0.5-0.7 1-0.9 1.2-0.2 0.2-0.3 0.4-0.3 0.5 0 0.1-1.1 1.5-1.5 1.9-0.2 0.3-0.5 0.4-0.7 0.5-0.2 0-0.4 0.1-0.4 0.2-0.2 0.1-0.4 0.2-0.5 0zm1.1-10c0.6-0.2 1.1-0.4 2-0.9 0.4-0.2 3.5-2.5 4-2.9 0 0 0.5-0.4 1.1-0.9 0.5-0.4 1.3-1.1 1.6-1.4 0.4-0.3 0.9-0.7 1.1-0.9 0.1-0.1 0.7-0.6 1.2-1 0.4-0.4 1.1-1.1 1.5-1.5 1-0.8 5.9-5.7 7.1-7 0.5-0.6 1.1-1.2 1.4-1.5 0.6-0.7 0.9-1 1.1-1.3 0-0.1 0.4-0.5 0.7-0.9 0.8-0.9 1.5-1.6 2-2.3 0.2-0.3 0.4-0.6 0.5-0.6 0 0 0.3-0.4 0.5-0.7 0.3-0.4 0.5-0.7 0.6-0.7 0.1-0.1 0.7-1 0.7-1.1 0 0 0.1-0.2 0.2-0.4 0.1-0.1 0.5-0.7 0.7-1.3 0.3-0.5 0.5-1.1 0.6-1.2 0-0.1 0.1-0.5 0.1-0.9q0-0.7-0.2-0.9c0-0.1-0.1-0.3-0.1-0.3 0-0.2-0.3-0.9-0.7-1.4-0.1-0.2-0.4-0.6-0.7-1-0.3-0.4-0.5-0.8-0.5-0.8 0-0.1-0.2-0.3-0.4-0.5-0.2-0.2-0.5-0.6-0.7-0.9-0.2-0.3-0.4-0.5-0.4-0.6-0.1 0-0.2-0.2-0.4-0.4-0.1-0.2-0.4-0.6-0.6-0.9-0.3-0.2-0.4-0.4-0.4-0.5 0 0-0.1-0.1-0.2-0.2 0-0.1-0.4-0.5-0.8-1-0.4-0.4-0.8-1-1.1-1.2-0.2-0.3-0.4-0.6-0.6-0.7-0.1-0.2-0.6-0.8-1-1.3-0.5-0.5-1.1-1.1-1.3-1.4-0.5-0.6-6.4-6.5-6.8-6.8-0.2-0.1-0.3-0.2-0.4-0.2 0 0-0.3-0.3-0.7-0.7-0.6-0.6-1.1-1-2.4-2.2-0.2-0.1-0.4-0.3-0.6-0.5-0.3-0.1-0.6-0.4-0.8-0.6-0.2-0.2-0.5-0.4-0.8-0.6-0.2-0.2-0.5-0.4-0.6-0.5-0.5-0.4-1.8-1.5-2-1.6-0.1-0.1-0.4-0.3-0.7-0.5-0.4-0.2-0.7-0.4-0.8-0.4 0 0-0.2 0-0.2-0.1-0.1-0.1-0.2-0.2-0.3-0.2 0 0-0.2 0-0.4-0.1-0.1-0.1-0.3-0.2-0.4-0.2-0.1 0-0.2 0-0.3-0.1-0.2-0.1-2.7-0.2-2.9 0 0 0.1-0.2 0.2-0.3 0.2-0.3 0.1-1.3 0.8-1.7 1.1-0.2 0.1-0.4 0.2-0.4 0.2q-0.1 0.1-0.2 0.1c0 0.1-0.1 0.2-0.3 0.4-0.2 0.1-0.4 0.2-0.5 0.3 0 0-0.3 0.2-0.6 0.5-0.3 0.2-0.8 0.6-1.2 0.9-0.3 0.2-0.8 0.6-1.2 0.9-0.3 0.3-0.7 0.5-0.7 0.6-0.1 0.1-0.4 0.3-0.7 0.6-0.4 0.3-1 0.9-1.5 1.3-0.4 0.4-1.1 1-1.5 1.3-0.8 0.8-2.7 2.6-4.6 4.4-0.8 0.8-2.4 2.4-3.5 3.6-1.1 1.1-2 2.1-2.1 2.2-0.1 0.1-0.3 0.4-0.5 0.6-0.1 0.2-0.5 0.5-0.7 0.8-0.2 0.2-0.6 0.7-0.9 1.1-0.3 0.4-0.7 0.8-0.8 0.9-0.2 0.3-1.5 1.9-2.3 2.9-0.1 0.2-0.4 0.5-0.5 0.7-0.1 0.1-0.2 0.3-0.2 0.4-0.1 0-0.3 0.4-0.5 0.7-0.2 0.4-0.4 0.7-0.4 0.8 0 0.1 0 0.2-0.1 0.3-0.1 0.1-0.2 0.3-0.2 0.4 0 0.1 0 0.3-0.1 0.3-0.1 0.1-0.1 1.3 0 1.4 0.1 0 0.1 0.3 0.1 0.5 0 0.2 0.1 0.4 0.2 0.5 0.1 0 0.1 0.2 0.1 0.3 0 0.1 0.1 0.2 0.2 0.3 0.1 0 0.1 0.1 0.1 0.2 0 0.1 0.2 0.2 0.3 0.4 0.1 0.2 0.6 0.8 0.9 1.3 0.7 0.9 1.1 1.4 2 2.6 0.6 0.8 1.8 2.2 2 2.5 0.2 0.1 0.3 0.2 0.3 0.3 0 0 0.1 0.1 0.2 0.2 0.1 0.1 0.3 0.4 0.5 0.6 0.9 1 2.7 3 4.8 5 1.2 1.2 2.6 2.6 3.1 3 0.5 0.5 1.2 1.1 1.4 1.3 0.3 0.3 0.6 0.6 0.7 0.7 0.2 0.1 1.7 1.5 2.4 2.2 0.2 0.1 0.6 0.5 1 0.8 0.4 0.3 0.7 0.7 0.8 0.7 0.1 0.2 2.1 1.7 2.7 2.2 0.3 0.3 1 0.7 1.4 1 0.4 0.3 0.9 0.6 0.9 0.7 0.1 0 0.2 0.1 0.2 0.1 0 0 0.3 0.2 0.7 0.4 0.4 0.2 0.7 0.4 0.7 0.4 0.1 0 0.2 0 0.3 0.1 0 0.1 0.2 0.2 0.3 0.2 0.1 0 0.2 0 0.2 0.1 0 0.1 0.6 0.3 1.3 0.3 0.3 0 0.7-0.1 0.9-0.1zm-2.5-2.4c-0.3-0.2-1-0.6-1.6-1-0.5-0.4-1-0.8-1.1-0.9-0.1 0-0.2-0.1-0.3-0.2-0.1-0.1-0.3-0.2-0.5-0.4-0.2-0.2-0.5-0.3-0.5-0.4-0.7-0.6-1.1-0.9-1.4-1.1-0.5-0.4-1.8-1.5-2.1-1.7-0.1-0.2-0.5-0.5-0.9-0.9-0.7-0.6-2-1.7-3.2-2.9-1.1-1-5.3-5.1-6.2-6.1-0.5-0.6-1-1.1-1.1-1.3-0.2-0.1-0.5-0.6-0.9-1-0.3-0.3-0.9-1-1.3-1.5-1.1-1.2-1.3-1.5-1.3-1.6 0 0-0.6-0.8-0.7-0.9-0.2-0.2-1.7-2.1-2-2.5-0.2-0.3-0.4-0.8-0.6-1.1-0.3-0.5-0.3-0.7-0.3-1.6 0-0.9 0-1.1 0.3-1.6 0.3-0.6 1.2-1.9 1.5-2.1 0.1-0.1 0.2-0.2 0.2-0.3 0-0.1 0-0.2 0-0.2 0.1 0 0.3-0.3 0.6-0.7 0.3-0.3 0.6-0.8 0.8-1 0.3-0.2 0.5-0.6 0.7-0.8 0.2-0.2 0.4-0.5 0.5-0.6 0.6-0.6 1.4-1.5 1.4-1.6 0 0 0.2-0.3 0.5-0.5 0.2-0.3 1-1.2 1.7-1.9 0.7-0.8 2.3-2.5 3.6-3.7 2.4-2.4 3.3-3.2 6-5.6 0.5-0.4 0.9-0.8 0.9-0.8q0.1-0.1 0.1-0.1c0.1 0 0.4-0.3 0.7-0.5 0.4-0.3 0.8-0.7 1-0.8 0.2-0.2 0.7-0.6 1.1-0.9 0.4-0.3 0.9-0.7 1.1-0.9 0.2-0.1 0.4-0.3 0.5-0.3 0.1-0.1 0.4-0.4 0.9-0.7 0.4-0.3 0.8-0.5 0.8-0.5 0.1 0 0.2-0.1 0.2-0.2 0-0.1 0.1-0.1 0.2-0.1q0.1-0.1 0.2-0.1c0-0.1 0.2-0.3 0.6-0.4 0.6-0.3 0.8-0.3 1.5-0.3 0.5 0 1 0 1.3 0.1 0.6 0.2 1.8 0.9 2.2 1.2 0.1 0.2 0.2 0.3 0.2 0.3 0.1 0 0.3 0.2 0.6 0.4 0.3 0.3 0.6 0.5 0.6 0.5 0.1 0 0.3 0.1 0.5 0.3 0.2 0.2 0.5 0.5 0.8 0.7 0.2 0.2 0.5 0.3 0.5 0.4 0 0 0.4 0.3 0.9 0.7 0.5 0.4 0.9 0.8 1 0.9 0.1 0.1 0.4 0.3 0.6 0.5 0.3 0.2 0.6 0.4 0.6 0.5 0.1 0.1 0.5 0.4 0.8 0.7 0.4 0.4 1 0.9 1.4 1.3 1.1 0.9 7 6.8 7.7 7.7 0.4 0.4 1 1.1 1.3 1.4 0.6 0.6 0.8 1 2.1 2.6 1.3 1.6 1.8 2.3 1.9 2.5 0.1 0.1 0.2 0.3 0.4 0.4 0.1 0.1 0.3 0.5 0.5 0.8 0.2 0.3 0.5 0.7 0.7 1 0.6 0.8 0.9 1.5 0.9 2.6q0 0.7-0.2 1.2c-0.1 0.3-0.2 0.5-0.2 0.5q-0.1 0-0.1 0.1c0 0.1-0.1 0.3-0.2 0.3 0 0.1-0.4 0.6-0.8 1.2-0.3 0.5-0.8 1.1-1 1.4-0.2 0.3-0.6 0.7-0.8 1-0.3 0.4-0.6 0.8-0.8 1-0.2 0.2-0.5 0.5-0.6 0.7-0.2 0.2-0.3 0.4-0.4 0.4q0 0 0 0.1c0 0.1-0.1 0.2-0.2 0.3-0.1 0.1-0.3 0.3-0.5 0.6-0.4 0.5-1.2 1.4-3.5 3.7-1.1 1.1-2 2.1-2.1 2.2 0 0-0.2 0.3-0.6 0.6-0.3 0.2-1.4 1.3-2.5 2.3-1 1.1-2.1 2.1-2.4 2.3-0.3 0.3-0.8 0.8-1.2 1.1-0.4 0.4-0.7 0.7-0.7 0.7q-0.1 0-1 0.7c-0.2 0.2-1 0.8-1.8 1.4-0.8 0.6-1.6 1.2-1.8 1.4-0.7 0.6-1.6 1.2-2.3 1.5-0.7 0.4-0.8 0.4-1.8 0.4-1 0-1.1-0.1-1.6-0.3zm4-7.7c0.1-0.1 0.1-3.9 0-4.1-0.1-0.1-0.1-1.4-0.2-3 0-1.6-0.1-3-0.1-3.1-0.1-0.1-0.1-0.6-0.1-1.2 0-0.8-0.1-1-0.2-1.1q-0.2-0.1-0.6-0.1c-0.7 0.1-2.2 0.1-2.8 0-0.5 0-0.5 0-0.7 0.3q-0.2 0.6-0.2 4.5c-0.1 1.3-0.1 2.4-0.1 2.5-0.1 0.1-0.2 1.3-0.2 2.6 0 1.3-0.1 2.4-0.1 2.5-0.1 0.1 0.3 0.2 1.3 0.3 1.1 0 3.9 0 4-0.1zm0.8-13.3c1.5-0.1 2.6-0.3 2.9-0.4 0.2-0.1 0.5-0.1 0.7-0.1 0.2 0 0.5-0.1 0.7-0.2 0.2 0 0.5-0.1 0.7-0.1 0.2 0 0.4-0.1 0.4-0.1 0.1-0.1 0.3-0.1 0.6-0.2 0.3 0 0.5-0.1 0.6-0.1 0-0.1 0.2-0.1 0.3-0.1 0.2 0 0.4-0.1 0.6-0.2 0.1 0 0.5-0.2 0.7-0.3 0.8-0.3 1.5-0.7 2-1 0.5-0.3 1.5-1.3 1.7-1.7 0.1-0.2 0.2-0.4 0.3-0.5 0.2-0.4 0.2-1.2 0-1.5-0.1-0.1-0.2-0.2-0.2-0.3 0-0.2-0.4-0.8-0.9-1.2-0.5-0.5-1.6-1.3-2-1.4-0.1 0-0.2-0.1-0.2-0.2q0-0.1 0.3-0.2c0.2 0 0.4-0.1 0.6-0.2 0.1-0.1 0.2-0.3 0.2-0.3-0.1-0.1-0.4-0.1-0.7-0.2-0.6 0-1.2-0.2-2.6-0.5-0.4-0.1-0.8-0.2-1-0.3-0.7-0.1-1.3-0.3-1.7-0.4-0.5-0.2-1-0.2-1.1 0 0 0.1 0.1 0.7 0.5 1.3 0 0.1 0.1 0.4 0.1 0.5 0 0.1 0 0.3 0.1 0.3 0 0 0.1 0.2 0.1 0.4 0.1 0.2 0.2 0.4 0.3 0.5 0.1 0.1 0.2 0.1 0.5 0.1 0.2 0 0.5-0.1 0.7-0.2 0.4-0.2 1.4-0.2 1.7 0 0.1 0.1 0.2 0.1 0.3 0.1 0.2 0.1 0.8 0.3 1 0.5 0.1 0.1 0.2 0.2 0.2 0.2 0 0 0.2 0.1 0.4 0.3 0.5 0.4 0.9 1.2 0.9 1.7 0 0.2-0.1 0.5-0.2 0.8-0.2 0.4-0.9 1.1-1.5 1.4-0.2 0.1-0.4 0.2-0.5 0.3-0.1 0-0.3 0.1-0.6 0.2-0.2 0.1-0.5 0.2-0.6 0.3-0.1 0-0.3 0.1-0.6 0.1-0.2 0.1-0.4 0.1-0.5 0.2 0 0-0.1 0.1-0.3 0.1-0.2 0-0.4 0-0.5 0.1-0.2 0.1-0.5 0.1-0.7 0.2-1.1 0.2-2.3 0.4-2.5 0.4-0.3 0.1-3.3 0.3-4.2 0.3-1 0-3.8-0.3-4.9-0.4-0.4-0.1-0.8-0.2-1-0.2-0.2-0.1-0.4-0.1-0.6-0.1-0.2 0-0.5-0.1-0.6-0.2-0.2-0.1-0.4-0.1-0.6-0.1-0.1 0-0.4-0.1-0.5-0.2-0.2-0.1-0.4-0.1-0.5-0.1-0.2 0-0.3-0.1-0.3-0.1 0-0.1 0-0.1-0.1-0.1-0.1 0-0.5-0.2-0.8-0.3-0.7-0.4-1.6-1.1-1.6-1.3 0 0-0.1-0.1-0.1-0.2-0.1-0.1-0.2-0.4-0.2-0.7q0-0.5 0.2-0.7c0-0.1 0.1-0.3 0.1-0.3 0-0.1 0.3-0.4 0.7-0.8 0.6-0.5 1-0.8 1.7-1.1 0.5-0.2 1-0.4 1-0.4 0.2 0 1.2-0.3 1.4-0.5 0.1 0 0.2-0.1 0.4-0.1 0.4 0 0.7-0.1 0.7-0.3 0-0.2-0.2-0.4-0.8-0.8-0.5-0.3-0.9-0.5-1-0.6 0 0-0.1-0.1-0.3-0.2-0.2 0-0.5-0.3-0.8-0.5-0.3-0.2-0.6-0.4-0.8-0.4-0.1-0.1-0.4 0-0.7 0.1-0.2 0.1-0.5 0.1-0.6 0.1-0.1 0-0.3 0.1-0.3 0.1-0.1 0.1-0.2 0.1-0.4 0.2-0.4 0-2.1 0.8-2.2 1 0 0-0.1 0-0.2 0-0.1 0-0.2 0.1-0.2 0.1-0.1 0.1-0.3 0.2-0.5 0.3-0.7 0.4-1.8 1.2-2.3 1.8-0.3 0.3-0.6 0.8-0.7 1-0.1 0.2-0.3 0.6-0.3 0.9-0.1 0.5-0.1 0.7 0 1.1 0.1 0.3 0.2 0.7 0.5 0.9 0.1 0.2 0.3 0.5 0.3 0.5 0 0 0.3 0.3 0.8 0.6 0.4 0.4 1.2 0.8 1.7 1.1 0.5 0.2 0.9 0.4 1 0.5 0.1 0 0.3 0.1 0.5 0.1 0.2 0.1 0.3 0.1 0.4 0.2 0 0 0.1 0.1 0.3 0.1 0.1 0 0.2 0 0.3 0.1 0 0 0.2 0.1 0.5 0.2 0.2 0 0.7 0.2 1.1 0.3 1.3 0.3 1.7 0.4 2.2 0.5 0.3 0 0.9 0.1 1.4 0.2 0.5 0.1 1.5 0.2 2.3 0.3 0.8 0 1.5 0.1 1.6 0.1 0.2 0.1 4.6 0 5.8-0.1zm-2.2-2.4c0.2 0 0.6-0.1 0.6-0.1 0.2-0.1 0.2-0.3 0.1-0.9 0-0.4 0-1.7 0-2.9 0-1.1-0.1-2.1-0.1-2.2-0.1-0.1-0.1-1.4-0.1-3.1l-0.1-2.9 1.5-0.1c0.9 0 1.6 0 1.6-0.1 0.1 0 0-0.3-0.1-0.6-0.1-0.3-0.3-0.6-0.3-0.8 0-0.1-0.1-0.2-0.1-0.2-0.1-0.1-0.1-0.2-0.1-0.3 0-0.1-0.1-0.3-0.2-0.4 0-0.1-0.1-0.3-0.1-0.4 0-0.1-0.1-0.3-0.2-0.4-0.1-0.1-0.1-0.3-0.1-0.5 0-0.1-0.1-0.2-0.1-0.2-0.1 0-0.1-0.1-0.2-0.3 0-0.2-0.2-1-0.4-1.3-0.1-0.2-0.2-0.5-0.3-0.7-0.1-0.3-0.2-0.6-0.2-0.6-0.1-0.1-0.1-0.2-0.1-0.3 0-0.1-0.1-0.3-0.2-0.5-0.1-0.3-0.5-1.4-0.6-1.9-0.1-0.2-0.2-0.4-0.2-0.4-0.1-0.1-0.1-0.3-0.1-0.4 0-0.2-0.1-0.3-0.1-0.4-0.1 0-0.2-0.3-0.3-0.7-0.2-0.4-0.3-0.8-0.3-0.9-0.1 0-0.1-0.2-0.1-0.3-0.1-0.2-0.1-0.3-0.2-0.3-0.2 0-0.5 0.7-0.5 1.1 0 0.1-0.1 0.3-0.2 0.4-0.1 0.1-0.1 0.3-0.1 0.5 0 0.1-0.1 0.3-0.1 0.3-0.1 0.1-0.1 0.2-0.1 0.3 0 0.1-0.1 0.3-0.2 0.4-0.1 0.2-0.1 0.4-0.1 0.5 0 0.2-0.1 0.3-0.2 0.4-0.1 0.1-0.1 0.2-0.1 0.3 0 0.2-0.1 0.4-0.2 0.6-0.1 0.1-0.1 0.3-0.1 0.4 0 0.1-0.1 0.2-0.1 0.2-0.1 0.1-0.1 0.2-0.1 0.3 0 0.1-0.1 0.3-0.2 0.5-0.1 0.3-0.5 1.4-0.7 1.9 0 0.2-0.1 0.4-0.1 0.4-0.1 0.1-0.1 0.3-0.1 0.4 0 0.1-0.1 0.3-0.2 0.5-0.1 0.1-0.2 0.4-0.3 0.7 0 0.2-0.1 0.5-0.2 0.7-0.2 0.4-0.6 1.5-0.6 1.8-0.1 0.1 0 0.2 0.2 0.3 0.1 0 0.8 0 1.4 0h1.3l-0.1 1.2c0 0.6-0.1 2.5-0.2 4.3-0.3 6-0.3 6.5-0.2 6.6 0.1 0.1 0.5 0.1 1 0.1 0.4 0 0.8 0.1 0.8 0.1 0.1 0.1 0.3 0.1 0.5 0 0.2 0 0.6 0 0.9-0.1zm11.3 32.7c-0.1 0-0.2-0.1-0.3-0.1-0.3-0.2-0.6-0.4-0.8-0.7-0.2-0.1-0.3-0.3-0.3-0.4 0 0-0.1-0.2-0.1-0.4-0.2-0.3-0.2-1.7 0-2 0-0.1 0.1-0.2 0.1-0.3 0-0.2 1-1.1 1.3-1.2 0.1 0 0.4-0.1 0.6-0.1 0.3-0.1 0.5-0.1 0.9 0 0.3 0 0.7 0.2 0.9 0.3 0.2 0.1 0.5 0.2 0.7 0.4 0.1 0.1 0.3 0.4 0.4 0.7 0.2 0.4 0.2 0.6 0.2 1.4 0 0.6-0.1 1.1-0.2 1.3-0.2 0.4-0.9 0.9-1.3 1.1-0.5 0.1-1.9 0.2-2.1 0zm1.5-0.4c0.2-0.1 0.5-0.2 0.7-0.4 0.2-0.1 0.4-0.4 0.5-0.5 0.1-0.2 0.3-0.6 0.3-0.9 0.1-0.4 0.1-0.5 0-0.6 0-0.1-0.1-0.3-0.1-0.5 0-0.2 0-0.3 0-0.3-0.1 0-0.2-0.1-0.3-0.3-0.1-0.2-0.3-0.4-0.6-0.5-0.3-0.3-0.5-0.3-1.1-0.3-0.6 0-0.7 0-1.1 0.4-0.3 0.2-0.5 0.5-0.6 0.7-0.1 0.2-0.2 0.6-0.2 1.1 0 0.6 0.1 0.8 0.3 1.2 0.2 0.2 0.4 0.5 0.5 0.6 0.2 0.1 0.9 0.4 1.2 0.4 0 0 0.2 0 0.5-0.1zm-1.5-0.9c0-0.1 0-2.3 0-2.5 0-0.2 0.1-0.2 0.8-0.2 0.7 0 0.8 0 1.1 0.3 0.2 0.1 0.3 0.3 0.3 0.5 0 0.2-0.1 0.4-0.3 0.6-0.2 0.2-0.3 0.3-0.2 0.5 0 0.1 0.2 0.4 0.3 0.6l0.2 0.3h-0.3c-0.4 0-0.4-0.1-0.7-0.5-0.2-0.4-0.3-0.5-0.5-0.5-0.2 0-0.2 0-0.3 0.5 0 0.4 0 0.5-0.2 0.5-0.1 0-0.2 0-0.2-0.1zm1.3-1.5c0.1 0 0.2-0.1 0.3-0.2 0-0.1 0-0.3 0-0.4-0.1-0.2-0.2-0.2-0.6-0.2-0.3 0-0.5 0-0.5 0.2-0.1 0.2-0.1 0.4 0.1 0.5 0.1 0.2 0.3 0.2 0.7 0.1zm36.8-32.6c0-23.8 0-29.9 0.1-29.9 0.1 0 3.8 0 8.2 0 5.3 0 8 0 8 0.1 0 0 0 13.5 0 29.8v29.7l-8.1 0.1h-8.2zm25.2 0c0-16.4 0-29.8 0.1-29.8 0 0 10.2 0 22.6 0l22.6-0.1v11.3h-14.2c-9 0-14.2 0-14.4 0.1l-0.3 0.1v6.1c0 5 0 6.1 0.1 6.2 0.1 0.1 2.6 0.2 13.4 0.2h13.3v11.4h-13.4c-12.7 0-13.4 0-13.4 0.2 0 0.1 0 2.9 0 6.3 0 4.4 0.1 6.1 0.2 6.2 0.1 0.1 2.4 0.2 14.4 0.2h14.4v11.4h-45.4zm54.8 0c0-28.3 0-29.8 0.2-29.8 0.1 0 10.2-0.1 22.4 0 12.2 0 22.4 0 22.6 0h0.3v5.6c0 5.3 0 5.6-0.2 5.6-0.1 0-6.5 0-14.3 0h-14.2l-0.2 0.3c-0.1 0.2-0.1 0.9-0.1 6.2 0 5.8 0 6 0.2 6.1 0.1 0.1 4.4 0.1 13.3 0.1h13.1v5.7 5.7h-13.2c-10.5 0-13.3 0.1-13.3 0.2-0.1 0-0.1 2.8-0.1 6.1 0 4.4 0 6.1 0.1 6.3l0.1 0.3h28.8v5.7l-0.1 5.7h-22.7-22.7zm55 0v-29.8h22.6 22.7v11.3l-14.3-0.1c-9.8 0-14.4 0.1-14.5 0.2-0.2 0.1-0.2 0.2-0.2 6.2 0 5.5 0 6.2 0.2 6.2 0 0.1 6.1 0.1 13.3 0.1h13.2v5.6c0 3.1 0 5.7 0 5.7 0 0.1-6 0.1-13.3 0.1l-13.4 0.1v6.3c0 4.9 0 6.4 0.1 6.4 0.1 0.1 6.6 0.1 14.5 0.1h14.4v11.4h-45.4z"/>
</svg>