<svg version="1.2" xmlns="http://www.w3.org/2000/svg" viewBox="0 0 373 186" width="373" height="186">
	<title>Untitled-177 04 Programme-svg</title>
	<style>
		.s0 { fill: #ffffff } 
	</style>
	<path id="Layer" fill-rule="evenodd" class="s0" d="m369.9 2.1c-0.6 100.4-82.1 181.7-182.7 181.7-100.9 0-182.8-81.9-182.8-182.8v-1.1zm-292.2 68.2c7.1 0 13-2.6 13-8 0-5.2-5.2-8.5-12.3-8.5h-8.9v25.5h5.9v-9.1zm-2.3-0.8v-12.7h3.2c3.7 0 6.2 1.1 6.2 6 0 4.5-3.3 6.7-6.9 6.7zm18.4 9.9h5.9v-12.8c2.5 2.6 6.8 8.2 7.2 12.8h7.7c-2.7-2.5-7.3-6.7-11-10.2 6-0.4 10.8-2.8 10.8-7.4 0-4.9-5-7.9-11.9-7.9h-8.7zm5.9-13.8v-8.8h2.8c3.6 0 6 1 6 5.4 0 3.9-2.7 5.9-5.8 6.2-1.1-1.1-2.1-2-3-2.8zm17.5 1.1c0 9.3 3.9 13.2 13.2 13.2 9.3 0 13.3-3.9 13.3-13.2 0-9.3-4-13.3-13.3-13.3-9.3 0-13.2 4-13.2 13.3zm5.6 0.1c0-7.7 2.3-10.6 7.6-10.6 5.3 0 7.6 2.9 7.6 10.6 0 7.7-2.3 10.4-7.6 10.4-5.3 0-7.6-2.7-7.6-10.4zm41.2 1.6c-0.1 4.3-1.8 7.1-5.5 7.1-4 0-6.3-3.8-6.3-9.5 0-5.6 2.9-9.8 7.5-9.8 2.4 0 5.3 2 5.1 5l5.4-2.6c-1.6-3.4-5.6-5.2-10.4-5.2-8.4 0-13.5 5.6-13.5 13.3 0 7.9 3.6 13.2 10 13.2 5.3 0 8.5-3.9 8.6-11.5h0.6l4.6 11h1v-11.9h-14.7v0.9zm11.3 11h5.9v-12.8c2.5 2.6 6.8 8.2 7.2 12.8h7.7c-2.7-2.5-7.3-6.7-11-10.2 6-0.4 10.8-2.7 10.8-7.4 0-4.9-5-7.9-11.9-7.9h-8.7zm5.9-13.8v-8.8h2.8c3.6 0 6 1 6 5.4 0 3.9-2.7 5.9-5.8 6.2-1.1-1.1-2.1-2-3-2.8zm39 13.8h0.9l-8.9-25.5h-5.9l-8.7 25.5h5.9l3.1-9h10.5zm-13.4-10l4.9-14.3 5 14.3zm44.5-15.5h-5.8l-8.3 24-7.3-24h-6.3v25.5h5.9v-24l7.2 24h6l7.7-23v23h0.9zm32.4 0h-5.9l-8.2 24-7.3-24h-6.4v25.5h6v-24l7.2 24h6l7.7-23v23h0.9zm4.6 25.5h17v-3.9h-11.1v-5.5h9.4v-0.9h-9.4v-11.5h11.1v-3.8h-17zm81.6-77.2l-365.5-2.1"/>
</svg>