<svg version="1.2" xmlns="http://www.w3.org/2000/svg" viewBox="0 0 225 313" width="225" height="313">
	<title>Untitled-177 03 Virtual access-svg</title>
	<style>
		.s0 { fill: #ffffff } 
	</style>
	<path id="Layer" fill-rule="evenodd" class="s0" d="m2.3 310.8v-307.6l221.8 0.1v307.4zm58.2-198.1l-7.8 24.2-7.6-24.2h-5.8l8 25.5h5.9l8.1-25.5zm8.1 25.5v-25.5h-5.9v25.5zm3.6 0h5.9v-12.9c2.5 2.7 6.8 8.3 7.1 12.9h7.8c-2.7-2.6-7.3-6.8-11.1-10.2 6.1-0.4 10.8-2.8 10.8-7.5 0-4.8-4.9-7.8-11.8-7.8h-8.7zm5.9-13.8v-8.8h2.8c3.6 0 5.9 0.9 5.9 5.4 0 3.8-2.6 5.9-5.7 6.2-1.1-1.1-2.2-2.1-3-2.8zm36.8-11.7h-20.4v3.8h7.3v21.7h5.9v-21.7h7.2c0 0 0-3.8 0-3.8zm2.4 16.8c0 6.1 3.5 9.2 10.3 9.2 6.8 0 10.2-3.1 10.2-9.2v-16.8h-5.9v16.8c0.5 4.4-0.4 6.4-4.3 6.4-3.9 0-4.7-1.9-4.4-6.4v-16.8h-5.9zm45.6 8.7h0.8l-8.8-25.5h-5.9l-8.8 25.5h5.9l3.1-9.1h10.5zm-13.4-9.9l4.9-14.3 5 14.3zm22.7-15.6h-5.9v25.5h17v-3.8h-11.1c0 0 0-21.7 0-21.7zm-110 66.3h0.8l-8.9-25.5h-5.8l-8.8 25.5h5.9l3.1-9.1h10.5zm-13.4-9.9l4.9-14.3 5 14.3zm34.8 2.9c-1 2.6-2.5 4.5-5.9 4.5-5 0-7.2-4.8-7.2-10.2 0-6.3 2.3-10.5 6.8-10.5 2.7 0 4.6 1.4 4.9 4.6l5-3.8c-2.1-2-5.4-3.6-9.8-3.6-7.9 0-12.8 5.4-12.8 13.3 0 7.8 5.2 13.2 13.2 13.2 4.5 0 7.4-1.6 9.4-4.1zm24.5 0c-0.9 2.5-2.5 4.4-5.8 4.4-5 0.1-7.2-4.7-7.2-10.2 0-6.3 2.3-10.4 6.8-10.4 2.6 0 4.5 1.3 4.9 4.6l4.9-3.9c-2.1-2-5.3-3.5-9.7-3.5-7.9 0-12.8 5.4-12.8 13.2 0 7.9 5.1 13.3 13.1 13.3 4.6 0 7.4-1.6 9.4-4.2zm6.6 7h17v-3.8h-11.1v-5.6h9.4v-0.8h-9.4v-11.5h11.1v-3.8h-17zm25.2-18.9c0-2.9 2.1-4.1 4.4-4.1 3.8 0 5.3 3.2 4.3 6l5.6-0.9c-0.2-4.3-2.9-8-10.6-8-6.8 0-9.4 2.9-9 6.1 0.8 7.4 15.9 5.8 15.9 12.3 0 3.3-2.6 4.9-5.5 4.9-3.9 0-5.9-3.1-5.3-6l-5.7 1.4c0.8 5.8 5.3 7.7 10.9 7.7 5.4 0 10.2-2 10.2-6.6-0.2-7.3-15.1-4.9-15.2-12.8zm23.1 0c0-2.9 2.1-4.1 4.4-4.1 3.8 0 5.2 3.2 4.3 6l5.6-0.9c-0.2-4.3-2.9-8-10.6-8-6.8 0-9.4 2.9-9 6.1 0.8 7.4 15.9 5.8 15.9 12.3 0 3.3-2.6 4.9-5.6 4.9-3.8 0-5.8-3.1-5.3-6l-5.7 1.4c0.9 5.8 5.4 7.7 11 7.7 5.4 0 10.2-2 10.2-6.6-0.3-7.3-15.1-4.9-15.2-12.8z"/>
</svg>