<svg width="1036" height="451" viewBox="0 0 1036 451" fill="none" xmlns="http://www.w3.org/2000/svg">
<path d="M779.113 249.99C762.633 284.672 745.778 318.947 729.988 353.761C719.437 377.053 710.287 401.072 700.884 424.929C699.927 427.364 701.691 430.976 702.178 434.029C704.97 432.899 708.04 432.189 710.458 430.482C711.943 429.439 712.447 426.878 713.366 424.982C740.656 369.206 768.583 313.762 794.816 257.435C802.064 241.885 812.886 237.97 824.648 236.17C804.843 277.495 784.006 319.14 764.863 361.621C752.934 388.066 743.469 415.751 733.188 442.988C732.38 445.095 733.716 448.112 734.07 450.695C736.77 450.087 740.623 450.424 741.95 448.659C745.25 444.289 747.596 439.06 749.959 433.976C757.515 417.76 764.385 401.164 772.46 385.246C798.024 334.97 823.833 284.826 850.053 234.918C852.616 230.048 858.092 225.139 863.11 223.698C905.536 211.599 948.242 200.608 990.71 188.627C1005.94 184.331 1020.71 178.248 1035.7 172.985C1035.35 171.483 1034.98 169.968 1034.63 168.466C978.827 173.519 924.172 186.148 867.778 200.533C881.229 174.723 893.628 151.216 905.773 127.556C922.72 94.5559 939.725 61.5685 956.134 28.2702C960.12 20.1733 961.86 10.8591 964.626 2.09661C963.753 1.63243 962.883 1.15949 962.009 0.695313C958.901 4.68463 955.294 8.35865 952.785 12.7377C918.384 72.9278 883.505 132.833 850.29 193.755C841.961 209.037 830.71 214.323 815.091 217.59C817.725 211.319 820.055 205.994 822.189 200.586C840.197 154.79 858.383 109.059 875.937 63.0617C878.804 55.556 878.808 46.8373 880.131 38.7011C879.241 38.5347 878.354 38.3727 877.452 38.2282C876.915 39.0777 876.249 39.8659 875.854 40.7899C850.087 98.8824 824.282 156.957 798.685 215.142C795.681 221.978 791.637 226.028 784.61 228.765C767.905 235.259 751.661 243.05 735.389 250.704C731.781 252.421 728.848 255.771 725.603 258.381C726.156 259.791 726.718 261.209 727.267 262.615C744.492 258.429 761.718 254.238 779.113 249.99Z" fill="#FFFFFF"/>
<path d="M489.006 348.807C488.498 347.852 487.995 346.915 487.491 345.969C503.793 326.18 520.007 306.334 536.546 286.773C538.281 284.728 541.88 284.093 544.751 283.476C566.665 278.746 588.646 274.323 610.54 269.458C613.902 268.714 616.897 266.209 620.072 264.51C619.739 263.323 619.406 262.145 619.069 260.954C596.755 258.537 574.812 263.56 551.974 267.269C558.336 255.559 563.848 244.673 570.102 234.281C572.082 231.01 575.706 227.739 579.181 226.71C607.815 218.267 636.644 210.516 665.257 201.981C667.562 201.294 668.748 196.416 670.458 193.486C667.612 192.286 664.429 189.54 661.97 190.119C633.806 196.858 605.609 203.597 577.749 211.563C570.805 213.555 563.807 218.797 558.856 224.49C538.859 247.502 519.566 271.21 500.177 294.822C488.735 308.76 476.395 322.125 466.65 337.307C454.006 357 464.832 377.52 487.487 375.895C511.852 374.126 536.151 369.537 560.179 364.593C588.796 358.703 618.021 354.132 643.384 337.141C645.814 335.507 649.301 330.747 648.789 329.928C646.755 326.749 643.326 322.432 640.351 322.388C627.337 322.156 614.039 321.722 601.34 324.218C568.966 330.572 536.879 338.481 504.671 345.715C499.474 346.871 494.228 347.782 489.006 348.807Z" fill="#FFFFFF"/>
<path d="M243.255 349.693C253.611 339.38 264.458 329.821 273.891 318.899C283.548 307.72 292.285 295.55 300.336 283.044C302.138 280.267 299.387 274.242 298.738 269.727C294.59 270.664 289.481 270.288 286.464 272.766C275.301 281.883 264.5 291.587 254.161 301.742C231.98 323.537 210.141 345.712 188.239 367.813C182.788 373.318 181.024 380.018 185.16 387.059C189.366 394.228 195.578 398.484 203.929 396.133C225.34 390.125 246.626 383.666 268.012 377.623C293.758 370.345 317.649 355.596 345.438 356.375C347.356 356.423 349.353 353.503 351.313 351.961C349.441 349.916 347.785 346.549 345.634 346.124C341.065 345.239 336.214 345.765 331.508 345.953C302.466 347.153 273.416 348.405 243.255 349.693Z" fill="#FFFFFF"/>
<path d="M739.601 224.242C743.204 208.513 728.684 194.509 713.622 199.956C703.116 203.74 693.13 210.588 684.389 217.998C664.838 234.559 647.255 253.131 639.986 279.707C634.594 299.483 640.385 317.599 655.202 327.386C676.463 341.408 697.524 339.586 717.691 325.442C727.448 318.598 736.181 310.063 744.956 301.808C747.12 299.763 747.627 295.757 748.888 292.652C745.647 293.497 741.54 293.309 739.302 295.358C723.641 309.717 704.814 312.327 685.383 311.363C664.763 310.365 658.156 298.012 666.477 278.188C675.743 256.144 692.469 240.572 708.562 224.501C720.092 212.984 726.832 213.001 739.601 224.242Z" fill="#FFFFFF"/>
<path d="M442.481 269.932C440.209 266.805 437.967 260.727 434.9 260.228C430.548 259.506 424.074 261.432 421.137 264.791C406.969 280.928 392.998 297.358 380.337 314.796C372.71 325.305 367.235 337.659 361.605 349.618C360.382 352.236 361.659 358.573 363.702 359.873C366.382 361.581 371.1 360.596 374.678 359.663C377.1 359.037 379.434 356.839 381.156 354.75C398.182 334.177 415.386 313.749 431.792 292.633C436.336 286.8 438.399 278.835 442.481 269.932Z" fill="#FFFFFF"/>
<path d="M317.891 152.32C319.155 149.907 322.717 147.157 325.084 147.293C371.056 149.82 417.398 149.259 462.279 162.484C468.579 164.336 474.503 167.642 480.599 170.27C480.807 171.601 481.031 172.937 481.231 174.281C473.467 178.861 465.887 183.836 457.923 187.983C424.916 205.114 389.097 211.564 353.298 217.857C329.154 222.087 304.905 225.77 280.132 229.799C280.166 227.754 279.891 226.733 280.236 226.054C292.698 201.422 305.121 176.768 317.891 152.32ZM777.835 83.4068C771.614 69.5647 761.167 66.6263 751.988 65.5622C714.451 61.2138 676.755 55.5255 639.121 55.5211C569.296 55.5036 499.451 58.4989 429.676 61.4985C393.349 63.0662 356.997 66.1884 320.895 70.6507C274.79 76.3478 228.852 83.6784 182.972 91.1797C167.456 93.7239 152.158 98.3438 137.117 103.209C130.064 105.495 123.187 110.741 124.318 120.195C125.417 129.391 130.859 135.785 139.792 137.637C148.346 139.419 156.992 141.526 165.638 141.797C199.764 142.866 233.911 143.115 268.041 144.026C278.668 144.306 289.261 145.747 303.207 146.929C285.092 175.66 268.47 202.149 251.602 228.472C250.288 230.552 247.325 232.395 244.966 232.654C214.476 235.938 183.987 239.341 153.427 241.863C124.851 244.228 96.2004 245.563 67.5831 247.376L0.304646 281.217C33.5777 278.664 66.8383 275.822 100.111 273.151C127.672 270.962 155.249 268.96 182.809 266.705C197.022 265.536 211.198 264.021 227.624 262.444C217.381 275.45 209.055 287.011 199.752 297.626C179.023 321.255 161.141 346.868 148.538 376.265C147.335 379.08 148.733 383.113 148.916 386.586C152.249 385.211 156.168 384.589 158.736 382.281C161.981 379.361 163.928 374.894 166.774 371.399C195.961 335.544 225.136 299.688 254.569 264.056C257.198 260.89 261.447 257.93 265.266 257.347C301.214 251.843 337.325 247.516 373.186 241.565C410.87 235.303 447.904 225.914 481.31 205.469C489.295 200.595 497.146 194.271 502.863 186.766C512.782 173.72 510.289 159.497 497.075 149.977C489.665 144.644 481.402 139.301 472.822 137.396C446.893 131.611 420.768 125.306 394.435 123.247C342.934 119.188 291.245 117.866 239.615 115.444C235.363 115.238 231.103 115.269 226.842 115.19C356.714 89.7828 487.647 77.6966 619.882 75.0078C593.15 104.168 566.917 131.388 542.244 160.071C515.099 191.648 487.218 222.95 463.64 257.387C439.296 292.901 419.724 332.014 398.175 369.639C395.25 374.745 393.278 380.845 399.906 384.296C406.671 387.817 409.438 381.725 412.055 376.689C417.09 367.073 420.793 356.349 427.225 347.923C462.903 301.186 498.823 254.636 535.478 208.748C563.913 173.147 593.87 138.889 622.387 103.358C628.254 96.0273 630.746 85.719 636.084 73.9612C680.183 75.3669 728.139 71.6447 777.835 83.4068Z" fill="#FFFFFF"/>
<path d="M243.253 349.691C273.414 348.404 302.46 347.152 331.514 345.947C336.22 345.768 341.071 345.242 345.64 346.127C347.795 346.552 349.447 349.919 351.319 351.964C349.359 353.505 347.362 356.426 345.444 356.378C317.651 355.594 293.764 370.343 268.018 377.625C246.628 383.668 225.346 390.123 203.935 396.136C195.584 398.487 189.372 394.226 185.166 387.071C181.03 380.025 182.798 373.334 188.245 367.829C210.147 345.715 231.986 323.54 254.167 301.745C264.502 291.59 275.307 281.886 286.47 272.769C289.487 270.286 294.596 270.667 298.745 269.712C299.394 274.253 302.14 280.27 300.342 283.047C292.287 295.544 283.554 307.727 273.897 318.902C264.456 329.819 253.609 339.387 243.253 349.691Z" fill="#FFFFFF"/>
<path d="M442.481 269.931C438.403 278.834 436.344 286.804 431.792 292.641C415.387 313.739 398.182 334.172 381.156 354.753C379.434 356.838 377.087 359.041 374.678 359.667C371.092 360.599 366.382 361.585 363.698 359.868C361.659 358.576 360.382 352.24 361.605 349.621C367.222 337.662 372.702 325.309 380.337 314.799C392.998 297.362 406.965 280.931 421.137 264.795C424.078 261.436 430.544 259.509 434.9 260.232C437.967 260.731 440.218 266.818 442.481 269.931Z" fill="#FFFFFF"/>
</svg>
